<?xml version="1.0" standalone="no"?>
<!DOCTYPE svg PUBLIC "-//W3C//DTD SVG 1.1//EN" "http://www.w3.org/Graphics/SVG/1.1/DTD/svg11.dtd" >
<svg xmlns="http://www.w3.org/2000/svg" xmlns:xlink="http://www.w3.org/1999/xlink" version="1.1">
<metadata>
Created by FontForge 20150824 at Tue Jul  5 02:49:33 2016
 By Everything Fonts
Copyright (c) 2001-2005 Peter Bilak (www.typotheque.com). All rights reserved.
</metadata>
<defs>
<font id="FedraSansProMediumItalic" horiz-adv-x="560" >
  <font-face 
    font-family="FedraSansProMediumItalic"
    font-weight="500"
    font-style="italic"
    font-stretch="normal"
    units-per-em="1000"
    panose-1="2 11 6 4 4 0 0 9 0 4"
    ascent="780"
    descent="-220"
    x-height="546"
    cap-height="707"
    bbox="-412 -303 1406 976"
    underline-thickness="50"
    underline-position="-150"
    slope="-6"
    unicode-range="U+0020-FB04"
  />
<missing-glyph horiz-adv-x="1000" 
 />
    <glyph glyph-name="f_k" unicode="fk" horiz-adv-x="845" 
d="M699 -7l-165 282l-29 -275h-123l70 663q-21 -1 -61 1.5t-62 2.5q-44 0 -65.5 -23.5t-26.5 -75.5l-2 -22h116l-10 -93h-116l-71 -673h-122l71 673h-80l10 93h80l2 22q22 207 227 207q20 0 64 -3.5t67 -3.5q51 -1 114 7l-52 -488l191 259h136l-197 -255l167 -286z" />
    <glyph glyph-name="f_h" unicode="fh" horiz-adv-x="901" 
d="M32 -220l70 673h-80l11 93h80l2 22q22 207 227 207q21 0 64.5 -3.5t66.5 -3.5q62 0 114 7l-31 -301q122 86 187 86q73 0 93.5 -35t10.5 -131l-41 -394h-123l40 371q6 41 1.5 56.5t-28.5 15.5q-12 0 -36 -9.5t-43 -19.5t-43.5 -24t-27.5 -15l-40 -375h-125l72 666
q-22 -1 -67 0t-57 1q-44 0 -65 -23.5t-27 -75.5l-2 -22h116l-9 -93h-117l-71 -673h-122z" />
    <glyph glyph-name="f_j" unicode="fj" horiz-adv-x="589" 
d="M283 -226q-48 0 -92 16l33 97q24 -8 63 -8q46 0 68.5 25.5t28.5 82.5l47 466h-206l-71 -673h-121l70 673h-80l10 93h80l2 22q22 207 227 207q20 0 64.5 -3t69.5 -3q64 0 110 6l9 -93q-57 -20 -140 -20q-21 0 -61.5 2.5t-63.5 2.5q-45 0 -66 -23.5t-26 -75.5l-3 -22h328
l-58 -559q-13 -121 -69.5 -167t-152.5 -46z" />
    <glyph glyph-name="f_f_j" unicode="ffj" horiz-adv-x="920" 
d="M33 -220l70 673h-80l11 93h79l4 33q6 60 26 100.5t52.5 60.5t67.5 27.5t81 7.5q32 0 94.5 -12.5t89.5 -22.5q46 35 142 35q20 0 65 -3t69 -3q64 0 110 6l9 -93q-59 -20 -140 -20q-21 0 -62 2.5t-64 2.5q-44 0 -65 -23.5t-27 -75.5l-2 -22h327l-58 -553
q-13 -122 -68.5 -167.5t-151.5 -45.5q-57 0 -104 20l32 97q45 -12 76 -12q46 0 67 25.5t26 83.5l48 459h-204l-71 -673h-122l70 673h-206l-71 -673h-120zM234 546h207l2 22q4 48 21 82q-85 18 -122 18q-48 0 -73.5 -21t-30.5 -68z" />
    <glyph glyph-name="aogonek_j" unicode="&#x105;j" horiz-adv-x="823" 
d="M397 -256q-85 0 -125 32t-40 85q0 39 23.5 76.5t61.5 64.5l8 80q-99 -94 -168 -94q-129 0 -129 173q0 159 97 275t250 116q62 0 120 -10l-57 -542q-81 -49 -85 -104q-1 -24 17.5 -37.5t51.5 -13.5q62 0 111 33t55 95l60 573h122l-59 -569q-7 -65 -38 -112.5t-77.5 -72.5
t-96 -36.5t-102.5 -11.5zM190 97q46 0 145 86l28 265q-4 2 -19 2q-82 0 -137.5 -84t-55.5 -193q0 -76 39 -76zM715 629l-79 87l98 86l79 -86z" />
    <glyph glyph-name="f_f" unicode="ff" horiz-adv-x="674" 
d="M33 -220l70 673h-80l10 93h80l4 33q6 60 26 100.5t52.5 60.5t67.5 27.5t81 7.5q96 0 180 -34q52 34 148 34q32 0 78.5 -9.5t71.5 -19.5l-33 -95q-81 17 -120 17q-48 0 -73.5 -21t-30.5 -68l-3 -33h120l-11 -93h-119l-72 -673h-120l70 673h-206l-71 -673h-120zM234 546
h206l4 33q3 39 18 73q-68 16 -120 16q-48 0 -73.5 -21t-30.5 -68z" />
    <glyph glyph-name="fi" unicode="fi" horiz-adv-x="610" 
d="M32 -220l70 673h-80l11 93h80l2 22q22 207 227 207q20 0 65 -3.5t69 -3.5q56 0 110 7l11 -93q-63 -20 -142 -20q-22 0 -62.5 2.5t-63.5 2.5q-44 0 -65 -23.5t-27 -75.5l-2 -22h327l-57 -546h-123l48 453h-205l-71 -673h-122z" />
    <glyph glyph-name="fl" unicode="fl" horiz-adv-x="626" 
d="M32 -220l70 673h-80l11 93h80l2 22q22 207 227 207q21 0 64.5 -3.5t66.5 -3.5q62 0 114 7l-83 -775h-122l69 663q-20 -1 -60 1.5t-62 2.5q-44 0 -65 -23.5t-27 -75.5l-2 -22h116l-9 -93h-117l-71 -673h-122z" />
    <glyph glyph-name="f_f_i" unicode="ffi" horiz-adv-x="920" 
d="M33 -220l70 673h-80l11 93h79l4 33q6 60 26 100.5t52.5 60.5t67.5 27.5t81 7.5q32 0 94.5 -12.5t89.5 -22.5q46 35 142 35q20 0 65 -3t69 -3q64 0 110 6l9 -93q-59 -20 -140 -20q-21 0 -62 2.5t-64 2.5q-44 0 -65 -23.5t-27 -75.5l-2 -22h327l-58 -546h-122l48 453h-205
l-71 -673h-122l70 673h-206l-71 -673h-120zM234 546h207l2 22q4 48 21 82q-85 18 -122 18q-48 0 -73.5 -21t-30.5 -68z" />
    <glyph glyph-name="f_f_l" unicode="ffl" horiz-adv-x="952" 
d="M33 -220l70 673h-80l11 93h79l4 33q6 60 26 100.5t52.5 60.5t67.5 27.5t81 7.5t103.5 -11t83.5 -23q52 34 138 34q20 0 63.5 -3.5t67.5 -3.5q60 0 113 7l-82 -775h-122l69 663q-20 -1 -60 1.5t-62 2.5q-44 0 -65.5 -23.5t-26.5 -75.5l-2 -22h116l-10 -93h-116l-71 -673
h-122l70 673h-205l-71 -673h-120zM234 546h205l3 22q4 49 22 85q-71 15 -122 15q-48 0 -73.5 -21t-30.5 -68z" />
    <glyph glyph-name=".notdef" horiz-adv-x="1000" 
 />
    <glyph glyph-name=".null" horiz-adv-x="0" 
 />
    <glyph glyph-name="nonmarkingreturn" horiz-adv-x="333" 
 />
    <glyph glyph-name="space" unicode=" " horiz-adv-x="235" 
 />
    <glyph glyph-name="exclam" unicode="!" horiz-adv-x="279" 
d="M84 195l11 167l36 345h122l-36 -345l-25 -167h-108zM53 0l12 117h129l-13 -117h-128z" />
    <glyph glyph-name="quotedbl" unicode="&#x22;" horiz-adv-x="389" 
d="M60 515l17 239h123l-34 -239h-106zM262 515l17 239h122l-33 -239h-106z" />
    <glyph glyph-name="numbersign" unicode="#" horiz-adv-x="627" 
d="M80 0l20 128h-86l10 97h94l17 108h-99l10 98h107l22 136h114l-22 -136h142l22 136h114l-22 -136h83l-10 -98h-90l-18 -108h96l-10 -97h-103l-20 -128h-115l21 128h-142l-20 -128h-115zM231 225h143l17 108h-141z" />
    <glyph glyph-name="dollar" unicode="$" horiz-adv-x="542" 
d="M181 -99l11 93q-100 0 -171 35l41 94q94 -33 167 -33q26 0 50.5 4t48 19.5t23.5 41.5q0 24 -28 41t-68.5 31t-80.5 31t-68 50.5t-28 80.5q0 69 49 107t123 50l10 106h93l-13 -102q76 -1 149 -31l-37 -86q-82 23 -150 23q-97 0 -97 -52q0 -23 28.5 -42t69 -34.5t81 -34
t69 -49.5t28.5 -72q0 -78 -57.5 -121.5t-141.5 -53.5l-7 -96h-94z" />
    <glyph glyph-name="percent" unicode="%" horiz-adv-x="818" 
d="M220 369q-70 0 -111.5 36t-41.5 105q0 85 54 144.5t138 59.5q72 0 114 -35.5t42 -106.5q0 -87 -54 -145t-141 -58zM229 455q41 0 61.5 31.5t20.5 75.5q0 67 -60 67q-41 0 -60 -33.5t-19 -77.5q0 -63 57 -63zM593 -10q-70 0 -111.5 35.5t-41.5 104.5q0 86 53.5 145
t138.5 59q73 0 114.5 -35.5t41.5 -106.5q0 -87 -54 -144.5t-141 -57.5zM603 77q40 0 61 31t21 73q0 68 -62 68q-40 0 -59 -34t-19 -78q0 -60 58 -60zM143 49l-59 67l613 531l59 -67z" />
    <glyph glyph-name="ampersand" unicode="&#x26;" horiz-adv-x="709" 
d="M691 -99q-175 0 -317 135q-72 -46 -156 -46q-87 0 -142.5 37.5t-55.5 122.5q0 70 38.5 122t107.5 102q-18 66 -18 131q0 96 51 153t148 57q73 0 119.5 -36t46.5 -106q0 -26 -11 -50.5t-23 -41t-41 -39.5t-42.5 -32.5t-52 -33t-47.5 -29.5q140 -344 413 -345h16l-6 -99
q-9 -2 -28 -2zM231 91q41 0 79 18q-62 73 -107 174q-63 -54 -63 -115q0 -77 91 -77zM265 435q8 5 30 18t32.5 20t28 19.5t26 22t15.5 21.5t7 24q0 26 -18.5 44t-49.5 18q-80 0 -80 -106q0 -44 9 -81zM454 115l9 99q43 28 105 28h116l-10 -101h-112q-57 0 -108 -26z" />
    <glyph glyph-name="quotesingle" unicode="'" horiz-adv-x="201" 
d="M60 515l17 239h124l-34 -239h-107z" />
    <glyph glyph-name="parenleft" unicode="(" horiz-adv-x="351" 
d="M235 -223q-88 66 -138 189t-50 242q0 162 80 324.5t214 237.5l67 -81q-107 -68 -171.5 -201t-64.5 -266q0 -98 39 -202t108 -164z" />
    <glyph glyph-name="parenright" unicode=")" horiz-adv-x="351" 
d="M34 -223l-68 79q105 78 171.5 217t66.5 273q0 95 -40 193.5t-111 149.5l84 81q91 -58 141.5 -175.5t50.5 -239.5q0 -163 -81.5 -327.5t-213.5 -250.5z" />
    <glyph glyph-name="asterisk" unicode="*" horiz-adv-x="460" 
d="M104 456l-37 79l103 39l25 -53zM173 593l-95 41l53 79l79 -66zM185 406l25 104h66v-104h-91zM225 657v104h91l-24 -104h-67zM371 452l-79 67l37 55l95 -42zM331 593l-25 53l92 66l35 -79z" />
    <glyph glyph-name="plus" unicode="+" horiz-adv-x="600" 
d="M218 48l22 206l-205 -1l11 103l205 -3l21 209h105l-27 -211l215 5l-11 -103l-212 1l-20 -206h-104z" />
    <glyph glyph-name="comma" unicode="," horiz-adv-x="283" 
d="M11 -139q9 16 16 33t12 29t9.5 32.5t6.5 29.5t5.5 34.5t4.5 32.5t4 39t4 40h135q-6 -60 -9 -79.5t-12.5 -59.5t-25.5 -69t-43 -62h-107z" />
    <glyph glyph-name="hyphen" unicode="-" horiz-adv-x="364" 
d="M23 237l11 101h298l-11 -101h-298z" />
    <glyph glyph-name="hyphen" unicode="&#xad;" horiz-adv-x="364" 
d="M23 237l11 101h298l-11 -101h-298z" />
    <glyph glyph-name="period" unicode="." horiz-adv-x="292" 
d="M53 0l14 126h139l-14 -126h-139z" />
    <glyph glyph-name="slash" unicode="/" horiz-adv-x="432" 
d="M-3 -62l319 831h119l-320 -831h-118z" />
    <glyph glyph-name="zero" unicode="0" horiz-adv-x="624" 
d="M279 -9q-116 0 -183.5 59t-67.5 175q0 152 85 241.5t234 89.5q114 0 181.5 -61t67.5 -176q0 -151 -85 -239.5t-232 -88.5zM293 92q85 0 132 60.5t47 150.5q0 72 -35.5 111.5t-103.5 39.5q-87 0 -133.5 -58.5t-46.5 -150.5q0 -72 36 -112.5t104 -40.5z" />
    <glyph glyph-name="one" unicode="1" horiz-adv-x="335" 
d="M114 0l48 450h-142l9 96l266 7l-58 -553h-123z" />
    <glyph glyph-name="two" unicode="2" horiz-adv-x="447" 
d="M4 0l10 100q16 12 61.5 44t77 56.5t67.5 58t55.5 67.5t19.5 66q0 66 -85 66q-61 0 -117 -29l-30 89q71 43 165 43q104 0 147.5 -41.5t43.5 -105.5q0 -169 -250 -313h248l-11 -101h-402z" />
    <glyph glyph-name="three" unicode="3" horiz-adv-x="444" 
d="M132 -170q-88 0 -152 31l32 96q65 -23 123 -23q70 0 110.5 36t40.5 99q0 28 -13 47.5t-38 30.5t-50 16t-60 8l1 85q69 11 114 43.5t45 89.5q0 68 -86 68q-61 0 -121 -19l-26 89q67 33 165 33q82 0 137 -37t55 -111q0 -116 -122 -183q124 -45 124 -158
q0 -112 -79.5 -176.5t-199.5 -64.5z" />
    <glyph glyph-name="four" unicode="4" horiz-adv-x="552" 
d="M261 -161l19 187h-282l9 88l264 432h185l-43 -421h109l-10 -99h-109l-21 -187h-121zM131 125h160l34 324z" />
    <glyph glyph-name="five" unicode="5" horiz-adv-x="480" 
d="M173 -172q-94 0 -175 27l30 102q81 -23 155 -23q67 0 105.5 34.5t38.5 98.5q0 34 -29 60.5t-74.5 41.5t-90 23.5t-85.5 10.5l35 343h366l-10 -99h-249l-14 -147q118 -17 196.5 -71.5t78.5 -146.5q0 -114 -79.5 -184t-198.5 -70z" />
    <glyph glyph-name="six" unicode="6" horiz-adv-x="548" 
d="M255 -12q-224 0 -224 249q0 73 11 139.5t38 129.5t67 108.5t102.5 73t140.5 27.5q64 0 109 -18l-34 -101q-42 15 -87 15q-53 0 -93 -21t-64.5 -55t-40 -84.5t-21 -103.5t-5.5 -118q0 -143 116 -143q57 0 83.5 45.5t26.5 109.5q0 110 -110 110q-42 0 -92 -16l10 93
q58 21 115 21q90 0 146 -50.5t56 -142.5q0 -122 -65 -195t-185 -73z" />
    <glyph glyph-name="seven" unicode="7" horiz-adv-x="449" 
d="M86 -183l-101 48l324 579h-297l11 102h434l-9 -88z" />
    <glyph glyph-name="eight" unicode="8" horiz-adv-x="559" 
d="M240 -10q-90 0 -152.5 39.5t-62.5 117.5q0 136 163 220q-100 74 -100 159q0 93 70 140.5t169 47.5q76 0 133.5 -37t57.5 -109q0 -62 -40.5 -115t-101.5 -88q57 -38 91 -77.5t34 -93.5q0 -101 -78 -152.5t-183 -51.5zM257 88q53 0 86.5 29t33.5 80q0 15 -7.5 29.5
t-24 29.5t-28 24t-33.5 23.5t-26 17.5q-110 -68 -110 -150q0 -41 31 -62t78 -21zM302 412q90 54 90 140q0 30 -25.5 48t-58.5 18q-45 0 -72 -23.5t-27 -67.5q0 -47 93 -115z" />
    <glyph glyph-name="nine" unicode="9" horiz-adv-x="531" 
d="M138 -166q-66 0 -109 17l34 101q47 -15 87 -15q53 0 93 21t64.5 55t40 85t21 104t5.5 118q0 143 -116 143q-57 0 -83.5 -45.5t-26.5 -109.5q0 -111 110 -111q39 0 92 17l-10 -94q-57 -21 -115 -21q-90 0 -146 50.5t-56 142.5q0 122 65 195.5t185 73.5q225 0 225 -250
q0 -73 -11 -139.5t-38 -129t-67.5 -108t-103 -73t-140.5 -27.5z" />
    <glyph glyph-name="colon" unicode=":" horiz-adv-x="283" 
d="M52 0l14 126h139l-14 -126h-139zM96 420l14 126h139l-14 -126h-139z" />
    <glyph glyph-name="semicolon" unicode=";" horiz-adv-x="275" 
d="M8 -139q10 18 17.5 35t13 38t9 33t7.5 38.5t5 36t4.5 44.5l4.5 45h134q-7 -71 -12 -102t-23.5 -77.5t-53.5 -90.5h-106zM95 420l14 126h138l-13 -126h-139z" />
    <glyph glyph-name="less" unicode="&#x3c;" horiz-adv-x="600" 
d="M476 54l-397 190l13 119l437 197l-12 -114l-326 -143l297 -135z" />
    <glyph glyph-name="equal" unicode="=" horiz-adv-x="600" 
d="M44 133l10 103h469l-9 -103h-470zM69 369l9 103h470l-10 -103h-469z" />
    <glyph glyph-name="greater" unicode="&#x3e;" horiz-adv-x="600" 
d="M59 54l13 114l324 135l-296 143l13 114l395 -197l-12 -119z" />
    <glyph glyph-name="question" unicode="?" horiz-adv-x="366" 
d="M103 174q-9 28 -9 58q0 42 17.5 78.5t42.5 62t49.5 47.5t42 45.5t17.5 46.5q0 81 -157 95l34 103q47 -3 87.5 -13t79.5 -30t62 -56t23 -84q0 -45 -19 -82t-46 -61.5t-54.5 -46t-47.5 -48t-22 -55.5q-1 -19 4 -44zM80 0l13 117h127l-11 -117h-129z" />
    <glyph glyph-name="at" unicode="@" horiz-adv-x="794" 
d="M332 -73q-146 0 -223 65t-77 208q0 230 129 373t355 143q122 0 188 -60t66 -181q0 -62 -17 -120.5t-49 -106t-84.5 -76.5t-118.5 -29q-33 0 -59 15t-25 45q-18 -21 -48.5 -38.5t-54.5 -17.5q-51 0 -74 25t-23 77q0 104 62.5 175.5t164.5 71.5q65 0 123 -24l-43 -188
q-4 -20 -4 -27q0 -22 16 -22q43 0 74.5 42.5t43.5 92.5t12 95q0 82 -41.5 120.5t-124.5 38.5q-169 0 -264.5 -114t-95.5 -287q0 -200 211 -200q67 0 163 16l5 -86q-85 -26 -187 -26zM350 236q29 0 72 32l34 150q-10 2 -19 2q-54 0 -83.5 -45.5t-29.5 -102.5q0 -36 26 -36z
" />
    <glyph glyph-name="A" unicode="A" horiz-adv-x="647" 
d="M-54 0l352 707h167l158 -707h-130l-49 236h-256l-113 -236h-129zM235 331h189l-39 204l-14 98l-41 -98z" />
    <glyph glyph-name="B" unicode="B" horiz-adv-x="624" 
d="M46 0l75 707h220q224 0 224 -162q0 -54 -26 -98.5t-74 -64.5l-1 -3q53 -12 85.5 -52.5t32.5 -95.5q0 -118 -80 -174.5t-205 -56.5h-251zM184 101h104q79 0 122 25t43 98q0 27 -11.5 45.5t-26.5 28t-41 14.5t-43.5 6t-44.5 1h-79zM216 409h80q70 0 104 26.5t34 92.5
q0 27 -10.5 45t-31 25.5t-38.5 9.5t-46 2h-71z" />
    <glyph glyph-name="C" unicode="C" horiz-adv-x="607" 
d="M373 -10q-154 0 -246 80.5t-92 233.5q0 195 108 302.5t303 107.5q101 0 179 -32l-39 -95q-68 22 -152 22q-128 0 -199 -79t-71 -209q0 -109 64.5 -166t173.5 -57q95 0 158 19l21 -98q-88 -29 -208 -29z" />
    <glyph glyph-name="D" unicode="D" horiz-adv-x="736" 
d="M46 0l75 707h221q77 0 141 -17t115 -53t79.5 -97t28.5 -142q0 -198 -114.5 -298t-316.5 -100h-229zM182 101h113q284 0 284 288q0 217 -251 217h-92z" />
    <glyph glyph-name="E" unicode="E" horiz-adv-x="574" 
d="M46 0l75 707h429l-10 -100h-304l-21 -204h281l-10 -96h-281l-22 -207h327l-11 -100h-453z" />
    <glyph glyph-name="F" unicode="F" horiz-adv-x="519" 
d="M46 0l75 707h425l-11 -100h-299l-23 -223h277l-10 -96h-277l-31 -288h-126z" />
    <glyph glyph-name="G" unicode="G" horiz-adv-x="673" 
d="M373 -10q-153 0 -245 79.5t-92 232.5q0 197 109.5 304.5t306.5 107.5q109 0 187 -34l-44 -94q-78 23 -155 23q-131 0 -202 -77.5t-71 -210.5q0 -108 63 -165.5t172 -57.5q31 0 69 6l25 246h126l-33 -322q-101 -38 -216 -38z" />
    <glyph glyph-name="H" unicode="H" horiz-adv-x="757" 
d="M46 0l75 707h125l-31 -303h338l32 304h127l-74 -708h-127l33 306h-339l-33 -306h-126z" />
    <glyph glyph-name="I" unicode="I" horiz-adv-x="293" 
d="M46 0l75 707h125l-74 -707h-126z" />
    <glyph glyph-name="J" unicode="J" horiz-adv-x="299" 
d="M-64 -192l-38 90q92 49 126.5 101.5t44.5 151.5l58 556h127l-58 -554q-7 -63 -19.5 -109t-40 -92.5t-77.5 -82t-123 -61.5z" />
    <glyph glyph-name="K" unicode="K" horiz-adv-x="628" 
d="M484 -34l-271 400l2 17l301 324h155l-314 -329l247 -354zM46 0l75 707h125l-74 -707h-126z" />
    <glyph glyph-name="L" unicode="L" horiz-adv-x="509" 
d="M46 0l75 707h125l-63 -605h307l-11 -102h-433z" />
    <glyph glyph-name="M" unicode="M" horiz-adv-x="898" 
d="M-45 0l244 707h151l44 -611l262 611h149l16 -707h-122l-4 533l-229 -533h-175l-39 536l-173 -536h-124z" />
    <glyph glyph-name="N" unicode="N" horiz-adv-x="751" 
d="M46 0l75 707h158l245 -565l55 565h126l-75 -707h-164l-238 550l-56 -550h-126z" />
    <glyph glyph-name="O" unicode="O" horiz-adv-x="797" 
d="M352 -12q-149 0 -233 82.5t-84 230.5q0 192 110 304.5t300 112.5q150 0 234 -81t84 -229q0 -194 -109 -307t-302 -113zM366 90q131 0 199 85.5t68 220.5q0 102 -52.5 161t-152.5 59q-128 0 -196.5 -85t-68.5 -218q0 -102 51.5 -162.5t151.5 -60.5z" />
    <glyph glyph-name="P" unicode="P" horiz-adv-x="580" 
d="M42 0l74 707h253q102 0 165.5 -52.5t63.5 -152.5q0 -58 -19.5 -105.5t-53 -78t-79 -51.5t-94.5 -29.5t-103 -8.5h-39l14 100q42 0 73 3t65 13t55 26.5t35 46t14 70.5q0 61 -34.5 90.5t-94.5 29.5h-104l-64 -608h-127z" />
    <glyph glyph-name="Q" unicode="Q" horiz-adv-x="797" 
d="M352 -12q-149 0 -233 82.5t-84 230.5q0 192 110 304.5t300 112.5q150 0 234 -81t84 -229q0 -194 -109 -307t-302 -113zM366 90q131 0 199 85.5t68 220.5q0 102 -52.5 161t-152.5 59q-128 0 -196.5 -85t-68.5 -218q0 -102 51.5 -162.5t151.5 -60.5zM734 -174l-381 52
l10 90l381 -48z" />
    <glyph glyph-name="R" unicode="R" horiz-adv-x="649" 
d="M518 -32l-197 313q-21 -2 -118 -2l-30 -279h-127l75 707h247q100 0 164.5 -46.5t64.5 -137.5q0 -74 -37 -129t-108 -83l183 -284zM213 371h75q178 0 178 144q0 52 -34.5 72t-95.5 20h-99z" />
    <glyph glyph-name="S" unicode="S" horiz-adv-x="518" 
d="M197 -12q-121 0 -216 50l46 98q103 -41 179 -41q63 0 106.5 23.5t43.5 79.5q0 32 -31 58t-75 47.5t-87.5 46.5t-74.5 68t-31 100q0 97 72 147.5t176 50.5q113 0 203 -44l-45 -92q-74 31 -160 31q-122 0 -122 -81q0 -30 31 -56t76 -48.5t89.5 -49t75.5 -69t31 -95.5
q0 -112 -84 -168t-203 -56z" />
    <glyph glyph-name="T" unicode="T" horiz-adv-x="582" 
d="M193 0l63 606h-231l11 101h589l-11 -101h-231l-64 -606h-126z" />
    <glyph glyph-name="U" unicode="U" horiz-adv-x="741" 
d="M341 -13q-61 0 -111 13.5t-92 43t-62 85.5t-12 133l47 445h127l-45 -438q-10 -94 30.5 -134.5t124.5 -40.5q86 0 135 46t60 152l44 415h123l-44 -418q-7 -69 -30 -122.5t-54.5 -87t-72.5 -54.5t-82 -29.5t-86 -8.5z" />
    <glyph glyph-name="V" unicode="V" horiz-adv-x="655" 
d="M192 0l-170 707h133l133 -607l297 607h130l-356 -707h-167z" />
    <glyph glyph-name="W" unicode="W" horiz-adv-x="955" 
d="M133 0l-114 707h133l84 -602l202 415l-43 187h132l119 -600l238 600h127l-294 -707h-164l-78 365l-177 -365h-165z" />
    <glyph glyph-name="X" unicode="X" horiz-adv-x="598" 
d="M-56 0l289 368l-175 339h143l116 -244l181 244h140l-265 -337l191 -370h-143l-132 273l-202 -273h-143z" />
    <glyph glyph-name="Y" unicode="Y" horiz-adv-x="585" 
d="M186 0l26 250l-197 457h143l132 -351l218 351h140l-310 -454l-26 -253h-126z" />
    <glyph glyph-name="Z" unicode="Z" horiz-adv-x="551" 
d="M-22 0l10 92l401 508h-322l11 107h474l-9 -86l-404 -514h371l-11 -107h-521z" />
    <glyph glyph-name="bracketleft" unicode="[" horiz-adv-x="352" 
d="M30 -220l102 974h222l-9 -102h-100l-82 -770h100l-11 -102h-222z" />
    <glyph glyph-name="backslash" unicode="\" horiz-adv-x="432" 
d="M229 -62l-146 831h119l146 -831h-119z" />
    <glyph glyph-name="bracketright" unicode="]" horiz-adv-x="352" 
d="M-11 -220l11 102h100l81 770h-100l10 102h224l-103 -974h-223z" />
    <glyph glyph-name="asciicircum" unicode="^" horiz-adv-x="518" 
d="M12 294l210 413h144l110 -413h-119l-73 321l-154 -321h-118z" />
    <glyph glyph-name="underscore" unicode="_" horiz-adv-x="500" 
d="M-5 -183l10 102h500l-11 -102h-499z" />
    <glyph glyph-name="grave" unicode="`" horiz-adv-x="540" 
d="M407 598l-239 121l52 101l231 -137z" />
    <glyph glyph-name="a" unicode="a" horiz-adv-x="539" 
d="M157 -12q-129 0 -129 173q0 159 97 275t250 116q62 0 120 -10l-56 -542h-123l9 82q-99 -94 -168 -94zM190 97q46 0 145 86l28 265q-4 2 -19 2q-82 0 -137.5 -84t-55.5 -193q0 -76 39 -76z" />
    <glyph glyph-name="b" unicode="b" horiz-adv-x="542" 
d="M213 -10q-75 0 -167 25l77 739h121l-25 -260q80 60 154 60q71 0 105.5 -41.5t34.5 -127.5q0 -69 -17 -135.5t-50.5 -126t-94 -96.5t-138.5 -37zM219 88q46 0 81 30.5t53.5 78t27.5 95.5t9 91q0 69 -49 69q-45 0 -133 -51l-33 -308q27 -5 44 -5z" />
    <glyph glyph-name="c" unicode="c" horiz-adv-x="446" 
d="M184 -12q-155 0 -155 199q0 158 77 266t211 108q87 0 141 -48l-57 -82q-45 30 -85 30q-45 0 -78 -26t-50 -67.5t-24.5 -83t-7.5 -81.5q0 -52 12 -80.5t32 -28.5q60 0 164 52l40 -85q-40 -24 -58.5 -34t-66 -24.5t-95.5 -14.5z" />
    <glyph glyph-name="d" unicode="d" horiz-adv-x="537" 
d="M157 -12q-128 0 -128 180q0 166 92.5 272t237.5 111h15l21 204h123l-79 -755h-123l9 82q-99 -94 -168 -94zM190 97q46 0 145 86l28 267h-23q-75 2 -131.5 -76.5t-56.5 -187.5q0 -89 38 -89z" />
    <glyph glyph-name="e" unicode="e" horiz-adv-x="475" 
d="M180 -12q-151 0 -151 208q0 71 17.5 135t51.5 116t90 83t126 31q81 0 122.5 -40t41.5 -99q0 -63 -46 -100.5t-123 -63.5l-154 -53q-1 -6 -1 -18q0 -50 12.5 -73t41.5 -23q58 0 166 58l43 -84q-123 -77 -237 -77zM165 302l138 52q57 22 57 63q0 22 -14.5 34t-34.5 12
q-57 0 -94 -44t-52 -117z" />
    <glyph glyph-name="f" unicode="f" horiz-adv-x="338" 
d="M34 -220l70 673h-80l11 93h79l4 31q4 48 18 84t33.5 57.5t48 34.5t57 17.5t64.5 4.5q74 0 148 -28l-33 -96q-75 17 -117 17q-48 0 -70.5 -20.5t-26.5 -68.5l-4 -33h120l-10 -93h-119l-72 -673h-121z" />
    <glyph glyph-name="g" unicode="g" horiz-adv-x="539" 
d="M165 -229q-115 0 -192 30l30 100q84 -26 148 -26q78 0 117 22.5t47 93.5l10 90q-98 -93 -168 -93q-69 0 -98.5 43.5t-29.5 130.5q0 165 98.5 277.5t247.5 112.5q62 0 120 -10l-59 -570q-6 -59 -32.5 -100.5t-67 -62t-82 -29.5t-89.5 -9zM190 97q46 0 145 86l28 265
q-5 2 -19 2q-79 0 -135.5 -81.5t-56.5 -193.5q0 -78 38 -78z" />
    <glyph glyph-name="h" unicode="h" horiz-adv-x="571" 
d="M46 0l79 755h123l-29 -280q117 85 187 85q73 0 94 -35t11 -131l-42 -394h-122l40 371q6 41 1 56.5t-29 15.5q-11 0 -27.5 -5.5t-36 -15t-34.5 -17.5t-32.5 -18t-20.5 -12l-39 -375h-123z" />
    <glyph glyph-name="i" unicode="i" horiz-adv-x="272" 
d="M40 0l57 546h123l-58 -546h-122zM167 629l-79 87l98 86l79 -86z" />
    <glyph glyph-name="j" unicode="j" horiz-adv-x="272" 
d="M-54 -220q-57 0 -104 20l32 97q45 -12 76 -12q46 0 66.5 25t26.5 84l58 552h123l-58 -553q-13 -122 -68.5 -167.5t-151.5 -45.5zM165 629l-79 87l98 86l79 -86z" />
    <glyph glyph-name="k" unicode="k" horiz-adv-x="503" 
d="M44 0l79 755h123l-50 -468l191 259h136l-198 -255l167 -286l-132 -12l-165 282l-29 -275h-122z" />
    <glyph glyph-name="l" unicode="l" horiz-adv-x="285" 
d="M44 0l79 755h123l-80 -755h-122z" />
    <glyph glyph-name="m" unicode="m" horiz-adv-x="850" 
d="M44 0l58 546h122l-7 -70l16 11q16 11 20 14t20 13.5t24 14.5l23 11.5t26 10.5t24 6t25 3q53 0 76.5 -18.5t28.5 -62.5q115 81 184 81q72 0 93 -35t11 -131l-42 -394h-122l40 371q5 41 0.5 56.5t-27.5 15.5q-12 0 -34 -8.5t-40 -18.5t-40 -22t-26 -14l-40 -380h-123
l40 371q6 41 1.5 56t-28.5 15q-12 0 -34 -9t-40 -19t-40.5 -23.5t-26.5 -15.5l-40 -375h-122z" />
    <glyph glyph-name="n" unicode="n" horiz-adv-x="571" 
d="M44 0l58 546h122l-7 -71q117 85 187 85q72 0 93.5 -35.5t11.5 -130.5l-42 -394h-123l40 371q6 41 1 56.5t-28 15.5q-31 0 -151 -68l-40 -375h-122z" />
    <glyph glyph-name="o" unicode="o" horiz-adv-x="533" 
d="M217 -12q-88 0 -138 57t-50 147q0 164 78 265.5t211 101.5q90 0 138.5 -57.5t48.5 -142.5q0 -49 -8 -97.5t-29 -98.5t-53 -88t-83 -62.5t-115 -24.5zM239 90q56 0 99 72t43 191q0 58 -22 82.5t-66 24.5q-55 0 -96.5 -73.5t-41.5 -185.5q0 -111 84 -111z" />
    <glyph glyph-name="p" unicode="p" horiz-adv-x="542" 
d="M21 -220l80 766h123l-6 -53q79 59 155 59q139 0 139 -170q0 -68 -16.5 -134t-50 -125.5t-94 -96t-138.5 -36.5q-26 0 -47 3l-23 -213h-122zM219 88q46 0 81 30.5t53.5 77.5t27.5 94.5t9 90.5q0 69 -49 69q-43 0 -133 -51l-32 -306q27 -5 43 -5z" />
    <glyph glyph-name="q" unicode="q" horiz-adv-x="539" 
d="M293 -220l32 301q-103 -93 -168 -93q-69 0 -98.5 44t-29.5 131q0 165 98 277t248 112q62 0 120 -10l-79 -762h-123zM190 97q46 0 145 86l28 265q-7 2 -19 2q-79 0 -135.5 -81t-56.5 -193q0 -79 38 -79z" />
    <glyph glyph-name="r" unicode="r" horiz-adv-x="373" 
d="M44 0l58 546h122l-7 -69q30 24 46.5 36t50 27.5t61.5 15.5q16 0 32 -3l-22 -118q-17 4 -44 4q-43 0 -134 -72l-41 -367h-122z" />
    <glyph glyph-name="s" unicode="s" horiz-adv-x="443" 
d="M175 -10q-103 0 -171 32l33 97q79 -27 148 -27q37 0 65 13.5t28 44.5q0 17 -15.5 34.5t-39 31.5t-50.5 33t-50.5 38.5t-39 48.5t-15.5 62q0 84 55 122t142 38q43 0 90.5 -9t72.5 -22l-31 -91q-80 23 -131 23q-80 0 -80 -51q0 -21 22 -42.5t53 -42t62 -43.5t53 -56.5
t22 -72.5q0 -49 -21.5 -82.5t-57.5 -49.5t-70.5 -22.5t-73.5 -6.5z" />
    <glyph glyph-name="t" unicode="t" horiz-adv-x="393" 
d="M191 -12q-73 0 -103 34.5t-19 132.5l32 297h-80l11 94h81l11 112h122l-12 -112h151l-9 -94h-152l-33 -304q-4 -31 1.5 -42t25.5 -11q49 0 121 26l23 -92q-82 -41 -171 -41z" />
    <glyph glyph-name="u" unicode="u" horiz-adv-x="564" 
d="M171 -12q-73 0 -99 36.5t-16 135.5l41 386h123l-40 -375q-5 -41 2 -57t30 -16q50 0 145 68l41 380h122l-58 -546h-122l8 71q-100 -83 -177 -83z" />
    <glyph glyph-name="v" unicode="v" horiz-adv-x="485" 
d="M111 0l-85 546h131l52 -435l118 246q40 83 40 155q0 18 -3 34h130q3 -11 3 -34q0 -78 -49 -174l-170 -338h-167z" />
    <glyph glyph-name="w" unicode="w" horiz-adv-x="795" 
d="M104 0l-78 546h131l46 -435l156 291l-22 144h130l52 -435l118 246q40 80 40 155q0 18 -3 34h130q3 -17 3 -34q0 -76 -49 -174l-171 -338h-166l-40 256l-140 -256h-137z" />
    <glyph glyph-name="x" unicode="x" horiz-adv-x="481" 
d="M-48 0l222 284l-125 262h132l74 -162l124 162h129l-203 -263l132 -283h-133l-81 182l-138 -182h-133z" />
    <glyph glyph-name="y" unicode="y" horiz-adv-x="485" 
d="M38 -220l111 220h-41l-82 546h131l51 -435l119 246q40 80 40 155q0 18 -3 34h131q3 -17 3 -34q0 -74 -49 -174l-282 -558h-129z" />
    <glyph glyph-name="z" unicode="z" horiz-adv-x="446" 
d="M-17 0l11 89l301 356h-240l13 101h385l-10 -87l-298 -359h262l-11 -100h-413z" />
    <glyph glyph-name="braceleft" unicode="{" horiz-adv-x="351" 
d="M248 -221q-105 0 -156 39.5t-30 138.5l41 194q5 26 -13 49t-59 23l11 99q40 0 63.5 23t23.5 51v196q0 179 223 179h41l-11 -103h-37q-94 0 -94 -85l2 -178q1 -100 -85 -130v-2q79 -34 58 -131l-40 -178q-8 -39 10.5 -60.5t65.5 -21.5h37l-11 -103h-40z" />
    <glyph glyph-name="bar" unicode="|" horiz-adv-x="267" 
d="M12 -220l103 974h122l-102 -974h-123z" />
    <glyph glyph-name="braceright" unicode="}" horiz-adv-x="351" 
d="M-42 -221l11 103h37q46 0 69.5 22t23.5 60l-2 178q-1 95 85 131v2q-79 30 -57 130l39 178q9 40 -10 62t-65 22h-38l12 104h40q104 0 155 -41.5t31 -137.5l-41 -196q-6 -28 12.5 -51t58.5 -23l-11 -99q-40 0 -63 -23t-23 -49v-194q0 -99 -59 -138.5t-165 -39.5h-40z" />
    <glyph glyph-name="asciitilde" unicode="~" horiz-adv-x="509" 
d="M349 262q-51 0 -110 30t-87 30q-43 0 -85 -32l-50 79q77 75 151 75q51 0 104.5 -30.5t86.5 -30.5q48 0 90 33l53 -72q-28 -34 -71 -58t-82 -24z" />
    <glyph glyph-name="uni00A0" unicode="&#xa0;" horiz-adv-x="235" 
 />
    <glyph glyph-name="exclamdown" unicode="&#xa1;" horiz-adv-x="271" 
d="M28 -161l36 345l24 167h109l-11 -167l-36 -345h-122zM87 430l12 116h128l-11 -116h-129z" />
    <glyph glyph-name="cent" unicode="&#xa2;" horiz-adv-x="531" 
d="M217 -54l12 84q-95 12 -139 55.5t-44 136.5q0 256 234 293l5 83h116l-11 -78q63 -7 102 -29l-43 -89q-53 19 -113 19q-164 0 -164 -183q0 -37 11.5 -60.5t35 -35t48 -15t61.5 -3.5q36 0 110 12l9 -93q-61 -16 -109 -17l-5 -80h-116z" />
    <glyph glyph-name="sterling" unicode="&#xa3;" horiz-adv-x="507" 
d="M29 0l10 90q33 17 57 49.5t28 68.5h-86l10 94h89q2 19 4 61q1 39 11.5 70t26 52.5t40 37t48.5 24.5t57 14.5t60.5 7.5t63.5 2l-6 -102q-7 -1 -25.5 -2t-26 -2t-23.5 -3t-23.5 -4t-20.5 -6.5t-19 -10t-15 -14t-13 -18.5t-7 -23.5t-4 -29.5q-1 -27 -6 -54h163l-10 -94h-174
q-10 -67 -64 -108h269l-10 -100h-404z" />
    <glyph glyph-name="currency" unicode="&#xa4;" horiz-adv-x="510" 
d="M84 128l-53 52l63 62q-41 46 -41 110q0 65 40 110l-61 62l52 51l68 -68q51 24 103 24q57 0 104 -24l67 69l53 -53l-61 -61q39 -46 39 -110q0 -66 -41 -110l63 -62l-52 -52l-69 69q-46 -23 -103 -23q-56 0 -102 23zM255 271q42 0 61.5 22.5t19.5 58.5q0 35 -20 58.5
t-61 23.5t-61.5 -23.5t-20.5 -58.5q0 -34 21 -57.5t61 -23.5z" />
    <glyph glyph-name="yen" unicode="&#xa5;" horiz-adv-x="639" 
d="M621 546l-145 -210h123l-11 -99h-182l-46 -68l-4 -39h222l-11 -100h-221l-3 -30h-116l3 30h-209l10 100h209l3 37l-30 70h-170l9 99h116l-92 210h133l108 -277l174 277h130z" />
    <glyph glyph-name="brokenbar" unicode="&#xa6;" horiz-adv-x="279" 
d="M30 -220l38 361h123l-38 -361h-123zM95 392l38 362h122l-38 -362h-122z" />
    <glyph glyph-name="section" unicode="&#xa7;" horiz-adv-x="527" 
d="M89 -216q-72 0 -118 40l41 92q43 -35 82 -35q15 0 26 11.5t15.5 30t6.5 34t2 30.5q0 36 -7 87l-44 320q-4 28 -4 64q0 137 91 219.5t229 82.5q96 0 156 -53l-55 -80q-49 39 -105 39q-52 0 -52 -84q0 -24 5 -54l47 -316q10 -56 10 -122q0 -139 -93 -222.5t-233 -83.5z
M228 -110q40 27 59.5 75t19.5 102q0 30 -5 70l-48 345q-3 27 -3 52q0 73 18 114l-2 3q-71 -48 -71 -175q0 -28 3 -56l49 -348q4 -25 4 -58q0 -70 -26 -122z" />
    <glyph glyph-name="dieresis" unicode="&#xa8;" horiz-adv-x="453" 
d="M189 632l-71 80l88 79l71 -79zM406 632l-71 80l87 79l72 -79z" />
    <glyph glyph-name="copyright" unicode="&#xa9;" horiz-adv-x="831" 
d="M413 51q-96 0 -146.5 54.5t-44.5 141.5q7 100 68.5 161t164.5 61q42 0 67 -6t58 -23l-32 -66q-38 18 -100 18q-58 0 -97 -35.5t-44 -103.5q-4 -60 31 -91.5t93 -31.5q45 0 98 16l15 -71q-71 -24 -131 -24zM368 -113q-145 0 -226.5 85.5t-81.5 227.5q0 185 112.5 302
t291.5 117q148 0 228 -86.5t80 -226.5q0 -183 -111 -301t-293 -118zM380 -32q143 0 223 93.5t80 233.5q0 110 -61 176.5t-174 66.5q-141 0 -221 -92.5t-80 -231.5q0 -108 59.5 -177t173.5 -69z" />
    <glyph glyph-name="ordfeminine" unicode="&#xaa;" horiz-adv-x="409" 
d="M154 388q-75 0 -75 110q0 93 58 153.5t146 60.5q39 0 77 -7l-32 -311h-82l5 43q-52 -49 -97 -49zM178 456q27 0 79 43l15 146l-10 1q-40 0 -70.5 -42t-30.5 -102q0 -46 17 -46zM52 289l7 67h294l-8 -67h-293z" />
    <glyph glyph-name="guillemotleft" unicode="&#xab;" horiz-adv-x="446" 
d="M111 48l-94 224l140 224l90 -33l-109 -191l68 -187zM321 48l-93 224l140 224l89 -33l-109 -191l68 -187z" />
    <glyph glyph-name="logicalnot" unicode="&#xac;" horiz-adv-x="600" 
d="M409 96l16 157h-381l10 104h494l-27 -261h-112z" />
    <glyph glyph-name="registered" unicode="&#xae;" horiz-adv-x="831" 
d="M593 264q-63 4 -116 65q-24 24 -63 75q-6 -1 -23 -1h-27v-134h-85v387h138q146 0 146 -122q0 -76 -67 -105q23 -30 34 -42t33 -29t48 -26zM408 94q-162 0 -254 99t-92 262q0 165 100 261t263 96q165 0 254.5 -99.5t89.5 -259.5q0 -164 -97 -261.5t-264 -97.5zM411 173
q130 0 197.5 77.5t67.5 203.5q0 124 -68.5 201.5t-190.5 77.5q-126 0 -194 -76.5t-68 -200.5q0 -122 66.5 -202.5t189.5 -80.5zM364 470h30q41 0 60.5 13.5t19.5 47.5q0 31 -16 44.5t-51 13.5h-43v-119z" />
    <glyph glyph-name="macron" unicode="&#xaf;" horiz-adv-x="512" 
d="M156 648l11 105h290l-11 -105h-290z" />
    <glyph glyph-name="macron" unicode="&#x2c9;" horiz-adv-x="512" 
d="M156 648l11 105h290l-11 -105h-290z" />
    <glyph glyph-name="degree" unicode="&#xb0;" horiz-adv-x="338" 
d="M150 403q-76 0 -112.5 41t-29.5 117q7 70 57.5 113t119.5 43q72 0 111.5 -42t32.5 -114q-8 -72 -58.5 -115t-120.5 -43zM160 487q61 0 69 74q4 35 -10.5 53.5t-43.5 18.5q-61 0 -68 -72q-7 -74 53 -74z" />
    <glyph glyph-name="plusminus" unicode="&#xb1;" horiz-adv-x="600" 
d="M230 124l19 168l-169 -1l10 104l169 -3l17 170h106l-23 -172l173 5l-11 -104l-170 1l-15 -168h-106zM50 1l9 104h442l-10 -104h-441z" />
    <glyph glyph-name="twosuperior" unicode="&#xb2;" horiz-adv-x="306" 
d="M-7 415l7 66q86 58 135.5 101t53.5 77q1 20 -11.5 31.5t-34.5 11.5q-44 0 -81 -27q-6 15 -27 66q58 45 135 45q60 0 92.5 -32.5t27.5 -83.5q-9 -90 -169 -175h155l-8 -80h-275z" />
    <glyph glyph-name="threesuperior" unicode="&#xb3;" horiz-adv-x="304" 
d="M112 410q-56 0 -113 16q11 38 24 74q49 -11 88 -11q62 0 67 44q3 27 -17 37.5t-69 12.5l4 47q43 4 61 15.5t20 35.5q1 15 -9.5 23.5t-28.5 8.5q-41 0 -77 -16q-2 10 -7 33.5t-7 32.5q50 25 109 25q61 0 93 -24.5t27 -72.5q-2 -24 -17.5 -45.5t-39.5 -31.5q65 -21 58 -89
q-6 -60 -51.5 -87.5t-114.5 -27.5z" />
    <glyph glyph-name="acute" unicode="&#xb4;" horiz-adv-x="531" 
d="M222 600l-37 84l245 139l45 -99z" />
    <glyph glyph-name="mu" unicode="&#xb5;" horiz-adv-x="568" 
d="M20 -220l81 766h123l-40 -374q-5 -40 2.5 -55t30.5 -15q17 0 40.5 9t40 18.5t38 23.5t26.5 17l39 376h123l-58 -546h-122l8 71q-2 -1 -15.5 -11.5t-17.5 -14t-17.5 -13t-20 -13l-19.5 -10.5t-22.5 -10.5t-22 -6.5t-24.5 -4q-16 0 -28 3l-22 -211h-123z" />
    <glyph glyph-name="paragraph" unicode="&#xb6;" horiz-adv-x="602" 
d="M263 -220q-43 0 -94 18l32 95q31 -6 75 -6q49 0 68.5 27t25.5 81l74 712h122l-75 -713q-22 -214 -228 -214zM219 248q-91 0 -137.5 48.5t-46.5 140.5q0 151 75.5 210.5t228.5 59.5h41l-48 -459h-113z" />
    <glyph glyph-name="periodcentered" unicode="&#xb7;" horiz-adv-x="275" 
d="M134 287l-81 91l100 90l83 -90z" />
    <glyph glyph-name="cedilla" unicode="&#xb8;" horiz-adv-x="477" 
d="M139 -261l-34 72q23 14 35.5 22.5t25 22.5t14.5 28q2 23 -11 65h102q18 -41 14 -74q-8 -81 -146 -136z" />
    <glyph glyph-name="onesuperior" unicode="&#xb9;" horiz-adv-x="245" 
d="M75 415l31 287h-79l7 77q49 2 181 5l-39 -369h-101z" />
    <glyph glyph-name="ordmasculine" unicode="&#xba;" horiz-adv-x="409" 
d="M198 384q-59 0 -94.5 36.5t-35.5 97.5q0 89 47 144.5t126 55.5q62 0 96.5 -36.5t34.5 -98.5q0 -84 -45.5 -141.5t-128.5 -57.5zM210 452q41 0 59 39t18 88q0 71 -57 71q-41 0 -59.5 -38.5t-18.5 -86.5q0 -73 58 -73zM44 291l7 65h295l-8 -65h-294z" />
    <glyph glyph-name="guillemotright" unicode="&#xbb;" horiz-adv-x="446" 
d="M103 48l-86 37l106 187l-69 191l97 33l93 -224zM314 48l-87 37l107 187l-69 191l97 33l92 -224z" />
    <glyph glyph-name="onequarter" unicode="&#xbc;" horiz-adv-x="791" 
d="M89 415l31 287h-79l7 77q49 2 181 5l-39 -369h-101zM83 67l-45 54l592 540l45 -52zM595 0l8 83h-161l8 75l135 210h140l-23 -214h55l-8 -71h-54l-9 -83h-91zM519 154h92l17 161z" />
    <glyph glyph-name="onehalf" unicode="&#xbd;" horiz-adv-x="782" 
d="M457 0l7 66q86 58 135.5 101t53.5 77q1 20 -11.5 31.5t-34.5 11.5q-44 0 -81 -27l-27 66q59 46 135 46q60 0 92.5 -33t27.5 -84q-9 -90 -169 -175h155l-8 -80h-275zM89 415l31 287h-79l7 77q49 2 181 5l-39 -369h-101zM79 67l-45 54l592 540l45 -52z" />
    <glyph glyph-name="threequarters" unicode="&#xbe;" horiz-adv-x="788" 
d="M124 410q-56 0 -113 16q11 38 24 74q49 -11 88 -11q62 0 67 44q3 27 -17 37.5t-69 12.5l4 47q43 4 61 15.5t20 35.5q1 15 -9.5 23.5t-28.5 8.5q-41 0 -77 -16q-2 10 -7 33.5t-7 32.5q50 25 109 25q61 0 93 -24.5t27 -72.5q-2 -24 -17.5 -45.5t-39.5 -31.5q65 -21 58 -89
q-6 -60 -51.5 -87.5t-114.5 -27.5zM94 67l-45 54l592 540l45 -52zM592 0l8 83h-161l8 75l135 210h140l-23 -214h55l-8 -71h-54l-9 -83h-91zM516 154h92l17 161z" />
    <glyph glyph-name="questiondown" unicode="&#xbf;" horiz-adv-x="366" 
d="M258 -164q-47 3 -87.5 13t-79.5 29.5t-62 55.5t-23 85q0 38 13.5 70.5t33.5 53.5t44 42.5t45 38.5t35.5 40t16.5 48q1 15 -3 44l103 15q9 -27 9 -57q0 -42 -17.5 -78.5t-42 -62t-49 -47.5t-42 -45.5t-17.5 -46.5q0 -25 16 -44t42 -29t50 -15t49 -7zM177 429l13 117h127
l-11 -117h-129z" />
    <glyph glyph-name="Agrave" unicode="&#xc0;" horiz-adv-x="647" 
d="M-54 0l352 707h167l158 -707h-130l-49 236h-256l-113 -236h-129zM235 331h189l-39 204l-14 98l-41 -98zM461 735l-249 65l32 102l240 -86z" />
    <glyph glyph-name="Aacute" unicode="&#xc1;" horiz-adv-x="647" 
d="M-54 0l352 707h167l158 -707h-130l-49 236h-256l-113 -236h-129zM235 331h189l-39 204l-14 98l-41 -98zM300 737l-22 80l249 86l28 -102z" />
    <glyph glyph-name="Acircumflex" unicode="&#xc2;" horiz-adv-x="647" 
d="M-54 0l352 707h167l158 -707h-130l-49 236h-256l-113 -236h-129zM235 331h189l-39 204l-14 98l-41 -98zM530 736l-140 57l-151 -54l-34 82l195 83l172 -83z" />
    <glyph glyph-name="Atilde" unicode="&#xc3;" horiz-adv-x="647" 
d="M-54 0l352 707h167l158 -707h-130l-49 236h-256l-113 -236h-129zM235 331h189l-39 204l-14 98l-41 -98zM439 745q-23 0 -63.5 19t-56.5 19q-39 0 -77 -27l-43 63q61 61 126 61q29 0 70.5 -18.5t54.5 -18.5q36 0 84 26l37 -65q-59 -59 -132 -59z" />
    <glyph glyph-name="Adieresis" unicode="&#xc4;" horiz-adv-x="647" 
d="M-54 0l352 707h167l158 -707h-130l-49 236h-256l-113 -236h-129zM235 331h189l-39 204l-14 98l-41 -98zM270 748l-67 78l84 76l67 -76zM496 748l-68 78l84 76l68 -76z" />
    <glyph glyph-name="Aring" unicode="&#xc5;" horiz-adv-x="647" 
d="M-54 0l340 685q-33 27 -33 74q0 62 43 100t106 38q52 0 87.5 -28t35.5 -77q0 -67 -54 -106l152 -686h-130l-49 236h-254l-114 -236h-130zM384 724q26 0 42.5 15.5t16.5 41.5q0 20 -14.5 33t-34.5 13q-26 0 -42 -15t-16 -41q0 -22 13.5 -34.5t34.5 -12.5zM235 331h189
l-53 302z" />
    <glyph glyph-name="AE" unicode="&#xc6;" horiz-adv-x="925" 
d="M-69 0l455 707h519l-10 -100h-304l-21 -204h282l-11 -96h-281l-22 -207h326l-10 -100h-452l35 307h-179l-188 -307h-139zM314 402h134l23 205h-30z" />
    <glyph glyph-name="Ccedilla" unicode="&#xc7;" horiz-adv-x="607" 
d="M373 -10q-154 0 -246 80.5t-92 233.5q0 195 108 302.5t303 107.5q101 0 179 -32l-39 -95q-68 22 -152 22q-128 0 -199 -79t-71 -209q0 -109 64.5 -166t173.5 -57q95 0 158 19l21 -98q-88 -29 -208 -29zM292 -261l-34 72q23 14 35.5 22.5t25 22.5t14.5 28q2 23 -11 65h102
q18 -41 14 -74q-8 -81 -146 -136z" />
    <glyph glyph-name="Egrave" unicode="&#xc8;" horiz-adv-x="574" 
d="M46 0l75 707h429l-10 -100h-304l-21 -204h281l-10 -96h-281l-22 -207h327l-11 -100h-453zM426 735l-249 65l32 102l240 -86z" />
    <glyph glyph-name="Eacute" unicode="&#xc9;" horiz-adv-x="574" 
d="M264 737l-22 80l249 86l28 -102zM46 0l75 707h429l-10 -100h-304l-21 -204h281l-10 -96h-281l-22 -207h327l-11 -100h-453z" />
    <glyph glyph-name="Ecircumflex" unicode="&#xca;" horiz-adv-x="574" 
d="M487 736l-140 57l-151 -54l-34 82l195 83l172 -83zM46 0l75 707h429l-10 -100h-304l-21 -204h281l-10 -96h-281l-22 -207h327l-11 -100h-453z" />
    <glyph glyph-name="Edieresis" unicode="&#xcb;" horiz-adv-x="574" 
d="M230 748l-67 78l84 76l67 -76zM456 748l-68 78l84 76l68 -76zM46 0l75 707h429l-10 -100h-304l-21 -204h281l-10 -96h-281l-22 -207h327l-11 -100h-453z" />
    <glyph glyph-name="Igrave" unicode="&#xcc;" horiz-adv-x="293" 
d="M46 0l75 707h125l-74 -707h-126zM253 735l-249 65l32 102l240 -86z" />
    <glyph glyph-name="Iacute" unicode="&#xcd;" horiz-adv-x="293" 
d="M46 0l75 707h125l-74 -707h-126zM119 737l-22 80l249 86l28 -102z" />
    <glyph glyph-name="Icircumflex" unicode="&#xce;" horiz-adv-x="293" 
d="M46 0l75 707h125l-74 -707h-126zM337 736l-140 57l-151 -54l-34 82l195 83l172 -83z" />
    <glyph glyph-name="Idieresis" unicode="&#xcf;" horiz-adv-x="293" 
d="M46 0l75 707h125l-74 -707h-126zM77 748l-67 78l84 76l67 -76zM303 748l-68 78l84 76l68 -76z" />
    <glyph glyph-name="Eth" unicode="&#xd0;" horiz-adv-x="736" 
d="M42 0l32 302h-77l11 101h76l32 304h221q78 0 142 -17t115 -53t79.5 -97t28.5 -142q0 -200 -115 -299t-318 -99h-227zM177 100h114q139 0 211 74t72 215q0 218 -250 218h-93l-22 -204h146l-11 -101h-145z" />
    <glyph glyph-name="Ntilde" unicode="&#xd1;" horiz-adv-x="751" 
d="M46 0l75 707h158l245 -565l55 565h126l-75 -707h-164l-238 550l-56 -550h-126zM487 745q-23 0 -63.5 19t-56.5 19q-39 0 -77 -27l-43 63q61 61 126 61q29 0 70 -18.5t55 -18.5q36 0 84 26l37 -65q-59 -59 -132 -59z" />
    <glyph glyph-name="Ograve" unicode="&#xd2;" horiz-adv-x="797" 
d="M352 -12q-149 0 -233 82.5t-84 230.5q0 192 110 304.5t300 112.5q150 0 234 -81t84 -229q0 -194 -109 -307t-302 -113zM366 90q131 0 199 85.5t68 220.5q0 102 -52.5 161t-152.5 59q-128 0 -196.5 -85t-68.5 -218q0 -102 51.5 -162.5t151.5 -60.5zM519 735l-249 65
l32 102l240 -86z" />
    <glyph glyph-name="Oacute" unicode="&#xd3;" horiz-adv-x="797" 
d="M347 737l-22 80l249 86l28 -102zM352 -12q-149 0 -233 82.5t-84 230.5q0 192 110 304.5t300 112.5q150 0 234 -81t84 -229q0 -194 -109 -307t-302 -113zM366 90q131 0 199 85.5t68 220.5q0 102 -52.5 161t-152.5 59q-128 0 -196.5 -85t-68.5 -218q0 -102 51.5 -162.5
t151.5 -60.5z" />
    <glyph glyph-name="Ocircumflex" unicode="&#xd4;" horiz-adv-x="797" 
d="M583 736l-140 57l-151 -54l-34 82l195 83l172 -83zM352 -12q-149 0 -233 82.5t-84 230.5q0 192 110 304.5t300 112.5q150 0 234 -81t84 -229q0 -194 -109 -307t-302 -113zM366 90q131 0 199 85.5t68 220.5q0 102 -52.5 161t-152.5 59q-128 0 -196.5 -85t-68.5 -218
q0 -102 51.5 -162.5t151.5 -60.5z" />
    <glyph glyph-name="Otilde" unicode="&#xd5;" horiz-adv-x="797" 
d="M352 -12q-149 0 -233 82.5t-84 230.5q0 192 110 304.5t300 112.5q150 0 234 -81t84 -229q0 -194 -109 -307t-302 -113zM366 90q131 0 199 85.5t68 220.5q0 102 -52.5 161t-152.5 59q-128 0 -196.5 -85t-68.5 -218q0 -102 51.5 -162.5t151.5 -60.5zM503 745
q-23 0 -63.5 19t-56.5 19q-39 0 -77 -27l-43 63q61 61 126 61q29 0 70 -18.5t55 -18.5q36 0 84 26l37 -65q-59 -59 -132 -59z" />
    <glyph glyph-name="Odieresis" unicode="&#xd6;" horiz-adv-x="797" 
d="M325 748l-67 78l84 76l67 -76zM551 748l-68 78l84 76l68 -76zM352 -12q-149 0 -233 82.5t-84 230.5q0 192 110 304.5t300 112.5q150 0 234 -81t84 -229q0 -194 -109 -307t-302 -113zM366 90q131 0 199 85.5t68 220.5q0 102 -52.5 161t-152.5 59q-128 0 -196.5 -85
t-68.5 -218q0 -102 51.5 -162.5t151.5 -60.5z" />
    <glyph glyph-name="multiply" unicode="&#xd7;" horiz-adv-x="577" 
d="M427 68l-149 167l-176 -163l-67 74l180 161l-145 160l79 74l143 -164l181 165l67 -74l-187 -163l153 -163z" />
    <glyph glyph-name="Oslash" unicode="&#xd8;" horiz-adv-x="797" 
d="M57 -38l-52 56l84 82q-59 79 -59 201q0 192 110 304.5t301 112.5q132 0 212 -62l88 85l51 -57l-86 -84q53 -78 53 -192q0 -195 -109 -307.5t-302 -112.5q-126 0 -205 59zM183 192l381 378q-52 46 -141 46q-128 0 -196 -85t-68 -218q0 -70 24 -121zM362 90
q130 0 198.5 85.5t68.5 220.5q0 60 -22 109l-376 -374q50 -41 131 -41z" />
    <glyph glyph-name="Ugrave" unicode="&#xd9;" horiz-adv-x="741" 
d="M341 -13q-61 0 -111 13.5t-92 43t-62 85.5t-12 133l47 445h127l-45 -438q-10 -94 30.5 -134.5t124.5 -40.5q86 0 135 46t60 152l44 415h123l-44 -418q-7 -69 -30 -122.5t-54.5 -87t-72.5 -54.5t-82 -29.5t-86 -8.5zM508 735l-249 65l32 102l240 -86z" />
    <glyph glyph-name="Uacute" unicode="&#xda;" horiz-adv-x="741" 
d="M338 737l-22 80l249 86l28 -102zM341 -13q-61 0 -111 13.5t-92 43t-62 85.5t-12 133l47 445h127l-45 -438q-10 -94 30.5 -134.5t124.5 -40.5q86 0 135 46t60 152l44 415h123l-44 -418q-7 -69 -30 -122.5t-54.5 -87t-72.5 -54.5t-82 -29.5t-86 -8.5z" />
    <glyph glyph-name="Ucircumflex" unicode="&#xdb;" horiz-adv-x="741" 
d="M559 736l-140 57l-151 -54l-34 82l195 83l172 -83zM341 -13q-61 0 -111 13.5t-92 43t-62 85.5t-12 133l47 445h127l-45 -438q-10 -94 30.5 -134.5t124.5 -40.5q86 0 135 46t60 152l44 415h123l-44 -418q-7 -69 -30 -122.5t-54.5 -87t-72.5 -54.5t-82 -29.5t-86 -8.5z" />
    <glyph glyph-name="Udieresis" unicode="&#xdc;" horiz-adv-x="741" 
d="M300 748l-67 78l84 76l67 -76zM526 748l-68 78l84 76l68 -76zM341 -13q-61 0 -111 13.5t-92 43t-62 85.5t-12 133l47 445h127l-45 -438q-10 -94 30.5 -134.5t124.5 -40.5q86 0 135 46t60 152l44 415h123l-44 -418q-7 -69 -30 -122.5t-54.5 -87t-72.5 -54.5t-82 -29.5
t-86 -8.5z" />
    <glyph glyph-name="Yacute" unicode="&#xdd;" horiz-adv-x="585" 
d="M186 0l26 250l-197 457h143l132 -351l218 351h140l-310 -454l-26 -253h-126zM280 738l-22 80l249 86l28 -102z" />
    <glyph glyph-name="Thorn" unicode="&#xde;" horiz-adv-x="580" 
d="M42 0l74 707h127l-12 -111h115q107 0 172.5 -49t65.5 -154q0 -94 -44.5 -156.5t-115 -89t-164.5 -26.5q-40 0 -57 1l12 100h25q106 -1 159.5 36t53.5 126q0 112 -129 112h-103l-52 -496h-127z" />
    <glyph glyph-name="germandbls" unicode="&#xdf;" horiz-adv-x="622" 
d="M20 -220l82 780q12 116 77 165.5t175 49.5q74 0 130 -38.5t56 -116.5q0 -39 -21 -74t-46 -56.5t-46 -44.5t-21 -40q0 -19 19 -38.5t45.5 -39t53.5 -42t46 -57t19 -75.5q0 -59 -35 -97.5t-81.5 -52.5t-102.5 -14q-83 0 -152 26l25 96q79 -21 119 -21q44 0 75 14.5t31 38.5
q0 25 -18.5 47t-44.5 40.5t-52 39t-44.5 51t-18.5 67.5q0 32 20.5 64t44.5 54.5t44.5 51.5t20.5 56q0 28 -23.5 43t-54.5 15q-60 0 -86.5 -29.5t-31.5 -83.5l-82 -779h-122z" />
    <glyph glyph-name="agrave" unicode="&#xe0;" horiz-adv-x="539" 
d="M157 -12q-129 0 -129 173q0 159 97 275t250 116q62 0 120 -10l-56 -542h-123l9 82q-99 -94 -168 -94zM190 97q46 0 145 86l28 265q-4 2 -19 2q-82 0 -137.5 -84t-55.5 -193q0 -76 39 -76zM447 598l-239 121l52 101l231 -137z" />
    <glyph glyph-name="aacute" unicode="&#xe1;" horiz-adv-x="539" 
d="M157 -12q-129 0 -129 173q0 159 97 275t250 116q62 0 120 -10l-56 -542h-123l9 82q-99 -94 -168 -94zM190 97q46 0 145 86l28 265q-4 2 -19 2q-82 0 -137.5 -84t-55.5 -193q0 -76 39 -76zM289 600l-37 84l245 139l45 -99z" />
    <glyph glyph-name="acircumflex" unicode="&#xe2;" horiz-adv-x="539" 
d="M157 -12q-129 0 -129 173q0 159 97 275t250 116q62 0 120 -10l-56 -542h-123l9 82q-99 -94 -168 -94zM190 97q46 0 145 86l28 265q-4 2 -19 2q-82 0 -137.5 -84t-55.5 -193q0 -76 39 -76zM212 606l-51 87l221 123l188 -122l-62 -88l-140 83z" />
    <glyph glyph-name="atilde" unicode="&#xe3;" horiz-adv-x="539" 
d="M157 -12q-129 0 -129 173q0 159 97 275t250 116q62 0 120 -10l-56 -542h-123l9 82q-99 -94 -168 -94zM190 97q46 0 145 86l28 265q-4 2 -19 2q-82 0 -137.5 -84t-55.5 -193q0 -76 39 -76zM435 634q-23 0 -66 20.5t-64 20.5q-45 0 -83 -29l-47 68q60 63 138 63
q29 0 69 -19t61 -19q35 0 89 29l39 -70q-64 -64 -136 -64z" />
    <glyph glyph-name="adieresis" unicode="&#xe4;" horiz-adv-x="539" 
d="M157 -12q-129 0 -129 173q0 159 97 275t250 116q62 0 120 -10l-56 -542h-123l9 82q-99 -94 -168 -94zM190 97q46 0 145 86l28 265q-4 2 -19 2q-82 0 -137.5 -84t-55.5 -193q0 -76 39 -76zM252 632l-71 80l88 79l71 -79zM469 632l-71 80l87 79l72 -79z" />
    <glyph glyph-name="aring" unicode="&#xe5;" horiz-adv-x="539" 
d="M157 -12q-129 0 -129 173q0 159 97 275t250 116q62 0 120 -10l-56 -542h-123l9 82q-99 -94 -168 -94zM190 97q46 0 145 86l28 265q-4 2 -19 2q-82 0 -137.5 -84t-55.5 -193q0 -76 39 -76zM358 597q-52 0 -87.5 25t-35.5 74q0 62 42.5 100t104.5 38q50 0 85.5 -28
t35.5 -76q0 -62 -41 -97.5t-104 -35.5zM365 659q26 0 43 16t17 42q0 23 -14.5 36.5t-37.5 13.5q-27 0 -43.5 -15.5t-16.5 -42.5q0 -23 14.5 -36.5t37.5 -13.5z" />
    <glyph glyph-name="ae" unicode="&#xe6;" horiz-adv-x="776" 
d="M152 -12q-127 0 -127 180q0 168 98.5 277.5t248.5 109.5q51 0 102 -9l-6 -44q66 59 150 59q83 0 121 -37.5t38 -97.5q0 -64 -45.5 -101.5t-121.5 -63.5l-153 -52q0 -2 -0.5 -8t-0.5 -7q0 -102 55 -102q58 0 167 56l43 -83q-123 -77 -237 -77q-116 0 -137 116
q-111 -116 -195 -116zM186 97q42 0 144 85l29 270h-23q-75 2 -131.5 -77.5t-56.5 -188.5q0 -89 38 -89zM468 305l135 53q58 24 58 62q0 20 -13.5 31t-33.5 11q-56 0 -94 -44.5t-52 -112.5z" />
    <glyph glyph-name="ccedilla" unicode="&#xe7;" horiz-adv-x="446" 
d="M184 -12q-155 0 -155 199q0 158 77 266t211 108q87 0 141 -48l-57 -82q-45 30 -85 30q-45 0 -78 -26t-50 -67.5t-24.5 -83t-7.5 -81.5q0 -52 12 -80.5t32 -28.5q60 0 164 52l40 -85q-40 -24 -58.5 -34t-66 -24.5t-95.5 -14.5zM127 -261l-34 72q23 14 35.5 22.5t25 22.5
t14.5 28q2 23 -11 65h102q18 -41 14 -74q-8 -81 -146 -136z" />
    <glyph glyph-name="egrave" unicode="&#xe8;" horiz-adv-x="475" 
d="M180 -12q-151 0 -151 208q0 71 17.5 135t51.5 116t90 83t126 31q81 0 122.5 -40t41.5 -99q0 -63 -46 -100.5t-123 -63.5l-154 -53q-1 -6 -1 -18q0 -50 12.5 -73t41.5 -23q58 0 166 58l43 -84q-123 -77 -237 -77zM165 302l138 52q57 22 57 63q0 22 -14.5 34t-34.5 12
q-57 0 -94 -44t-52 -117zM352 598l-239 121l52 101l231 -137z" />
    <glyph glyph-name="eacute" unicode="&#xe9;" horiz-adv-x="475" 
d="M219 600l-37 84l245 139l45 -99zM180 -12q-151 0 -151 208q0 71 17.5 135t51.5 116t90 83t126 31q81 0 122.5 -40t41.5 -99q0 -63 -46 -100.5t-123 -63.5l-154 -53q-1 -6 -1 -18q0 -50 12.5 -73t41.5 -23q58 0 166 58l43 -84q-123 -77 -237 -77zM165 302l138 52
q57 22 57 63q0 22 -14.5 34t-34.5 12q-57 0 -94 -44t-52 -117z" />
    <glyph glyph-name="ecircumflex" unicode="&#xea;" horiz-adv-x="475" 
d="M156 606l-51 87l221 123l188 -122l-62 -88l-140 83zM180 -12q-151 0 -151 208q0 71 17.5 135t51.5 116t90 83t126 31q81 0 122.5 -40t41.5 -99q0 -63 -46 -100.5t-123 -63.5l-154 -53q-1 -6 -1 -18q0 -50 12.5 -73t41.5 -23q58 0 166 58l43 -84q-123 -77 -237 -77z
M165 302l138 52q57 22 57 63q0 22 -14.5 34t-34.5 12q-57 0 -94 -44t-52 -117z" />
    <glyph glyph-name="edieresis" unicode="&#xeb;" horiz-adv-x="475" 
d="M194 632l-71 80l88 79l71 -79zM411 632l-71 80l87 79l72 -79zM180 -12q-151 0 -151 208q0 71 17.5 135t51.5 116t90 83t126 31q81 0 122.5 -40t41.5 -99q0 -63 -46 -100.5t-123 -63.5l-154 -53q-1 -6 -1 -18q0 -50 12.5 -73t41.5 -23q58 0 166 58l43 -84
q-123 -77 -237 -77zM165 302l138 52q57 22 57 63q0 22 -14.5 34t-34.5 12q-57 0 -94 -44t-52 -117z" />
    <glyph glyph-name="igrave" unicode="&#xec;" horiz-adv-x="264" 
d="M40 0l57 546h123l-58 -546h-122zM233 598l-239 121l52 101l231 -137z" />
    <glyph glyph-name="iacute" unicode="&#xed;" horiz-adv-x="264" 
d="M93 600l-37 84l245 139l45 -99zM40 0l57 546h123l-58 -546h-122z" />
    <glyph glyph-name="icircumflex" unicode="&#xee;" horiz-adv-x="264" 
d="M22 606l-51 87l221 123l188 -122l-62 -88l-140 83zM40 0l57 546h123l-58 -546h-122z" />
    <glyph glyph-name="idieresis" unicode="&#xef;" horiz-adv-x="264" 
d="M57 632l-71 80l88 79l71 -79zM274 632l-71 80l87 79l72 -79zM40 0l57 546h123l-58 -546h-122z" />
    <glyph glyph-name="eth" unicode="&#xf0;" horiz-adv-x="524" 
d="M212 -12q-88 0 -137.5 57.5t-49.5 146.5q0 158 72.5 258t197.5 107q16 1 32 -5q-8 20 -28 56l-71 -36l-29 50l63 31q-18 22 -37 36l83 81q28 -19 52 -49l72 37l29 -50l-63 -31q103 -142 103 -325q0 -59 -14.5 -118t-45.5 -116.5t-90.5 -93.5t-138.5 -36zM237 90
q66 0 103 81.5t37 178.5q0 110 -90 110q-61 0 -98.5 -84.5t-37.5 -174.5q0 -111 86 -111z" />
    <glyph glyph-name="ntilde" unicode="&#xf1;" horiz-adv-x="571" 
d="M44 0l58 546h122l-7 -71q117 85 187 85q72 0 93.5 -35.5t11.5 -130.5l-42 -394h-123l40 371q6 41 1 56.5t-28 15.5q-31 0 -151 -68l-40 -375h-122zM400 634q-23 0 -66 20.5t-64 20.5q-45 0 -83 -29l-47 68q60 63 138 63q29 0 69 -19t61 -19q35 0 89 29l39 -70
q-64 -64 -136 -64z" />
    <glyph glyph-name="ograve" unicode="&#xf2;" horiz-adv-x="533" 
d="M217 -12q-88 0 -138 57t-50 147q0 164 78 265.5t211 101.5q90 0 138.5 -57.5t48.5 -142.5q0 -49 -8 -97.5t-29 -98.5t-53 -88t-83 -62.5t-115 -24.5zM239 90q56 0 99 72t43 191q0 58 -22 82.5t-66 24.5q-55 0 -96.5 -73.5t-41.5 -185.5q0 -111 84 -111zM383 598l-239 121
l52 101l231 -137z" />
    <glyph glyph-name="oacute" unicode="&#xf3;" horiz-adv-x="533" 
d="M232 600l-37 84l245 139l45 -99zM217 -12q-88 0 -138 57t-50 147q0 164 78 265.5t211 101.5q90 0 138.5 -57.5t48.5 -142.5q0 -49 -8 -97.5t-29 -98.5t-53 -88t-83 -62.5t-115 -24.5zM239 90q56 0 99 72t43 191q0 58 -22 82.5t-66 24.5q-55 0 -96.5 -73.5t-41.5 -185.5
q0 -111 84 -111z" />
    <glyph glyph-name="ocircumflex" unicode="&#xf4;" horiz-adv-x="533" 
d="M170 606l-51 87l221 123l188 -122l-62 -88l-140 83zM217 -12q-88 0 -138 57t-50 147q0 164 78 265.5t211 101.5q90 0 138.5 -57.5t48.5 -142.5q0 -49 -8 -97.5t-29 -98.5t-53 -88t-83 -62.5t-115 -24.5zM239 90q56 0 99 72t43 191q0 58 -22 82.5t-66 24.5
q-55 0 -96.5 -73.5t-41.5 -185.5q0 -111 84 -111z" />
    <glyph glyph-name="otilde" unicode="&#xf5;" horiz-adv-x="533" 
d="M217 -12q-88 0 -138 57t-50 147q0 164 78 265.5t211 101.5q90 0 138.5 -57.5t48.5 -142.5q0 -49 -8 -97.5t-29 -98.5t-53 -88t-83 -62.5t-115 -24.5zM239 90q56 0 99 72t43 191q0 58 -22 82.5t-66 24.5q-55 0 -96.5 -73.5t-41.5 -185.5q0 -111 84 -111zM388 634
q-23 0 -66 20.5t-64 20.5q-45 0 -83 -29l-47 68q60 63 138 63q29 0 69 -19t61 -19q35 0 89 29l39 -70q-64 -64 -136 -64z" />
    <glyph glyph-name="odieresis" unicode="&#xf6;" horiz-adv-x="533" 
d="M207 632l-71 80l88 79l71 -79zM424 632l-71 80l87 79l72 -79zM217 -12q-88 0 -138 57t-50 147q0 164 78 265.5t211 101.5q90 0 138.5 -57.5t48.5 -142.5q0 -49 -8 -97.5t-29 -98.5t-53 -88t-83 -62.5t-115 -24.5zM239 90q56 0 99 72t43 191q0 58 -22 82.5t-66 24.5
q-55 0 -96.5 -73.5t-41.5 -185.5q0 -111 84 -111z" />
    <glyph glyph-name="divide" unicode="&#xf7;" horiz-adv-x="600" 
d="M212 54l12 110h116l-12 -110h-116zM36 253l10 103h519l-11 -103h-518zM254 444l11 109h116l-12 -109h-115z" />
    <glyph glyph-name="oslash" unicode="&#xf8;" horiz-adv-x="524" 
d="M29 -29l-41 34l64 75q-27 49 -27 112q0 163 78 265t211 102q70 0 116 -39l52 59l40 -37l-54 -64q33 -52 33 -119q0 -49 -8.5 -97.5t-29.5 -99t-52.5 -88.5t-82.5 -62t-115 -24q-78 0 -127 49zM152 196l204 236q-21 28 -67 28q-52 0 -93.5 -67.5t-44.5 -175.5q0 -17 1 -21
zM234 90q54 0 97 69t45 181q0 22 -2 30l-208 -242q20 -38 68 -38z" />
    <glyph glyph-name="ugrave" unicode="&#xf9;" horiz-adv-x="564" 
d="M171 -12q-73 0 -99 36.5t-16 135.5l41 386h123l-40 -375q-5 -41 2 -57t30 -16q50 0 145 68l41 380h122l-58 -546h-122l8 71q-100 -83 -177 -83zM381 598l-239 121l52 101l231 -137z" />
    <glyph glyph-name="uacute" unicode="&#xfa;" horiz-adv-x="564" 
d="M240 600l-37 84l245 139l45 -99zM171 -12q-73 0 -99 36.5t-16 135.5l41 386h123l-40 -375q-5 -41 2 -57t30 -16q50 0 145 68l41 380h122l-58 -546h-122l8 71q-100 -83 -177 -83z" />
    <glyph glyph-name="ucircumflex" unicode="&#xfb;" horiz-adv-x="564" 
d="M171 606l-51 87l221 123l188 -122l-62 -88l-140 83zM171 -12q-73 0 -99 36.5t-16 135.5l41 386h123l-40 -375q-5 -41 2 -57t30 -16q50 0 145 68l41 380h122l-58 -546h-122l8 71q-100 -83 -177 -83z" />
    <glyph glyph-name="udieresis" unicode="&#xfc;" horiz-adv-x="564" 
d="M205 632l-71 80l88 79l71 -79zM422 632l-71 80l87 79l72 -79zM171 -12q-73 0 -99 36.5t-16 135.5l41 386h123l-40 -375q-5 -41 2 -57t30 -16q50 0 145 68l41 380h122l-58 -546h-122l8 71q-100 -83 -177 -83z" />
    <glyph glyph-name="yacute" unicode="&#xfd;" horiz-adv-x="485" 
d="M38 -220l111 220h-41l-82 546h131l51 -435l119 246q40 80 40 155q0 18 -3 34h131q3 -17 3 -34q0 -74 -49 -174l-282 -558h-129zM224 600l-37 84l245 139l45 -99z" />
    <glyph glyph-name="thorn" unicode="&#xfe;" horiz-adv-x="550" 
d="M15 -220l104 974h123l-28 -266q35 25 81 43t83 18q149 0 149 -172q0 -60 -11 -115.5t-36 -106t-61 -87t-90.5 -58.5t-120.5 -22q-26 0 -48 3l-22 -211h-123zM214 86q52 0 90.5 28t58 73.5t28.5 92t9 95.5q0 72 -49 72q-47 0 -147 -56l-33 -300z" />
    <glyph glyph-name="ydieresis" unicode="&#xff;" horiz-adv-x="485" 
d="M38 -220l111 220h-41l-82 546h131l51 -435l119 246q40 80 40 155q0 18 -3 34h131q3 -17 3 -34q0 -74 -49 -174l-282 -558h-129zM162 632l-71 80l88 79l71 -79zM379 632l-71 80l87 79l72 -79z" />
    <glyph glyph-name="Amacron" unicode="&#x100;" horiz-adv-x="647" 
d="M-54 0l352 707h167l158 -707h-130l-49 236h-256l-113 -236h-129zM235 331h189l-39 204l-14 98l-41 -98zM232 769l10 101h308l-12 -101h-306z" />
    <glyph glyph-name="amacron" unicode="&#x101;" horiz-adv-x="539" 
d="M157 -12q-129 0 -129 173q0 159 97 275t250 116q62 0 120 -10l-56 -542h-123l9 82q-99 -94 -168 -94zM190 97q46 0 145 86l28 265q-4 2 -19 2q-82 0 -137.5 -84t-55.5 -193q0 -76 39 -76zM223 648l11 105h290l-11 -105h-290z" />
    <glyph glyph-name="Abreve" unicode="&#x102;" horiz-adv-x="647" 
d="M-54 0l352 707h167l158 -707h-130l-49 236h-256l-113 -236h-129zM235 331h189l-39 204l-14 98l-41 -98zM382 758q-116 0 -160 89l68 61q46 -53 105 -53q58 0 111 53l55 -63q-13 -16 -23 -26.5t-32 -27t-53.5 -25t-70.5 -8.5z" />
    <glyph glyph-name="abreve" unicode="&#x103;" horiz-adv-x="539" 
d="M157 -12q-129 0 -129 173q0 159 97 275t250 116q62 0 120 -10l-56 -542h-123l9 82q-99 -94 -168 -94zM190 97q46 0 145 86l28 265q-4 2 -19 2q-82 0 -137.5 -84t-55.5 -193q0 -76 39 -76zM349 630q-115 0 -160 89l68 61q46 -53 105 -53q58 0 111 53l55 -63
q-13 -16 -23 -26.5t-32 -27t-53.5 -25t-70.5 -8.5z" />
    <glyph glyph-name="Aogonek" unicode="&#x104;" horiz-adv-x="647" 
d="M524 -243q-65 0 -95 29t-28 75q1 37 26 75.5t64 66.5l-47 233h-256l-113 -236h-129l352 707h167l158 -707q-110 -64 -111 -114q-1 -20 10.5 -27t33.5 -7q36 0 60 8l13 -82q-42 -21 -105 -21zM235 331h189l-53 302z" />
    <glyph glyph-name="aogonek" unicode="&#x105;" horiz-adv-x="539" 
d="M339 -243q-62 0 -92.5 27.5t-30.5 70.5q0 39 29 79.5t72 68.5l8 79q-99 -94 -168 -94q-129 0 -129 173q0 159 97 275t250 116q62 0 120 -10l-57 -542q-107 -64 -111 -115q-1 -19 10.5 -26t33.5 -7q36 0 60 8l14 -82q-44 -21 -106 -21zM190 97q46 0 145 86l28 265
q-4 2 -19 2q-82 0 -137.5 -84t-55.5 -193q0 -76 39 -76z" />
    <glyph glyph-name="Cacute" unicode="&#x106;" horiz-adv-x="607" 
d="M343 737l-22 80l249 86l28 -102zM373 -10q-154 0 -246 80.5t-92 233.5q0 195 108 302.5t303 107.5q101 0 179 -32l-39 -95q-68 22 -152 22q-128 0 -199 -79t-71 -209q0 -109 64.5 -166t173.5 -57q95 0 158 19l21 -98q-88 -29 -208 -29z" />
    <glyph glyph-name="cacute" unicode="&#x107;" horiz-adv-x="446" 
d="M237 600l-37 84l245 139l45 -99zM184 -12q-155 0 -155 199q0 158 77 266t211 108q87 0 141 -48l-57 -82q-45 30 -85 30q-45 0 -78 -26t-50 -67.5t-24.5 -83t-7.5 -81.5q0 -52 12 -80.5t32 -28.5q60 0 164 52l40 -85q-40 -24 -58.5 -34t-66 -24.5t-95.5 -14.5z" />
    <glyph glyph-name="Ccircumflex" unicode="&#x108;" horiz-adv-x="607" 
d="M585 736l-140 57l-151 -54l-34 82l195 83l172 -83zM373 -10q-154 0 -246 80.5t-92 233.5q0 195 108 302.5t303 107.5q101 0 179 -32l-39 -95q-68 22 -152 22q-128 0 -199 -79t-71 -209q0 -109 64.5 -166t173.5 -57q95 0 158 19l21 -98q-88 -29 -208 -29z" />
    <glyph glyph-name="ccircumflex" unicode="&#x109;" horiz-adv-x="446" 
d="M160 606l-51 87l221 123l188 -122l-62 -88l-140 83zM184 -12q-155 0 -155 199q0 158 77 266t211 108q87 0 141 -48l-57 -82q-45 30 -85 30q-45 0 -78 -26t-50 -67.5t-24.5 -83t-7.5 -81.5q0 -52 12 -80.5t32 -28.5q60 0 164 52l40 -85q-40 -24 -58.5 -34t-66 -24.5
t-95.5 -14.5z" />
    <glyph glyph-name="Cdotaccent" unicode="&#x10a;" horiz-adv-x="607" 
d="M373 -10q-154 0 -246 80.5t-92 233.5q0 195 108 302.5t303 107.5q101 0 179 -32l-39 -95q-68 22 -152 22q-128 0 -199 -79t-71 -209q0 -109 64.5 -166t173.5 -57q95 0 158 19l21 -98q-88 -29 -208 -29zM423 757l-82 91l101 90l82 -90z" />
    <glyph glyph-name="cdotaccent" unicode="&#x10b;" horiz-adv-x="446" 
d="M184 -12q-155 0 -155 199q0 158 77 266t211 108q87 0 141 -48l-57 -82q-45 30 -85 30q-45 0 -78 -26t-50 -67.5t-24.5 -83t-7.5 -81.5q0 -52 12 -80.5t32 -28.5q60 0 164 52l40 -85q-40 -24 -58.5 -34t-66 -24.5t-95.5 -14.5zM318 629l-79 87l98 86l79 -86z" />
    <glyph glyph-name="Ccaron" unicode="&#x10c;" horiz-adv-x="607" 
d="M416 743l-171 82l42 85l140 -57l150 54l35 -82zM373 -10q-154 0 -246 80.5t-92 233.5q0 195 108 302.5t303 107.5q101 0 179 -32l-39 -95q-68 22 -152 22q-128 0 -199 -79t-71 -209q0 -109 64.5 -166t173.5 -57q95 0 158 19l21 -98q-88 -29 -208 -29z" />
    <glyph glyph-name="ccaron" unicode="&#x10d;" horiz-adv-x="446" 
d="M304 602l-181 117l59 84l136 -86l151 86l47 -83zM184 -12q-155 0 -155 199q0 158 77 266t211 108q87 0 141 -48l-57 -82q-45 30 -85 30q-45 0 -78 -26t-50 -67.5t-24.5 -83t-7.5 -81.5q0 -52 12 -80.5t32 -28.5q60 0 164 52l40 -85q-40 -24 -58.5 -34t-66 -24.5
t-95.5 -14.5z" />
    <glyph glyph-name="Dcaron" unicode="&#x10e;" horiz-adv-x="736" 
d="M346 743l-171 82l42 85l140 -57l150 54l35 -82zM46 0l75 707h221q77 0 141 -17t115 -53t79.5 -97t28.5 -142q0 -198 -114.5 -298t-316.5 -100h-229zM182 101h113q284 0 284 288q0 217 -251 217h-92z" />
    <glyph glyph-name="dcaron" unicode="&#x10f;" horiz-adv-x="623" 
d="M544 548l36 207h117l-60 -207h-93zM157 -12q-128 0 -128 180q0 166 92.5 272t237.5 111h15l21 204h123l-79 -755h-123l9 82q-99 -94 -168 -94zM190 97q46 0 145 86l28 267h-23q-75 2 -131.5 -76.5t-56.5 -187.5q0 -89 38 -89z" />
    <glyph glyph-name="Dcroat" unicode="&#x110;" horiz-adv-x="736" 
d="M42 0l32 302h-77l11 101h76l32 304h221q78 0 142 -17t115 -53t79.5 -97t28.5 -142q0 -200 -115 -299t-318 -99h-227zM177 100h114q139 0 211 74t72 215q0 218 -250 218h-93l-22 -204h146l-11 -101h-145z" />
    <glyph glyph-name="dcroat" unicode="&#x111;" horiz-adv-x="537" 
d="M157 -12q-128 0 -128 180q0 166 92.5 272t237.5 111h15l5 51h-119l12 86h116l7 67h123l-6 -67h75l-13 -86h-72l-63 -602h-123l9 82q-99 -94 -168 -94zM190 97q46 0 145 86l28 267h-23q-75 2 -131.5 -76.5t-56.5 -187.5q0 -89 38 -89z" />
    <glyph glyph-name="Emacron" unicode="&#x112;" horiz-adv-x="574" 
d="M46 0l75 707h429l-10 -100h-304l-21 -204h281l-10 -96h-281l-22 -207h327l-11 -100h-453zM190 769l10 101h308l-12 -101h-306z" />
    <glyph glyph-name="emacron" unicode="&#x113;" horiz-adv-x="475" 
d="M180 -12q-151 0 -151 208q0 71 17.5 135t51.5 116t90 83t126 31q81 0 122.5 -40t41.5 -99q0 -63 -46 -100.5t-123 -63.5l-154 -53q-1 -6 -1 -18q0 -50 12.5 -73t41.5 -23q58 0 166 58l43 -84q-123 -77 -237 -77zM165 302l138 52q57 22 57 63q0 22 -14.5 34t-34.5 12
q-57 0 -94 -44t-52 -117zM178 648l11 105h290l-11 -105h-290z" />
    <glyph glyph-name="Ebreve" unicode="&#x114;" horiz-adv-x="574" 
d="M46 0l75 707h429l-10 -100h-304l-21 -204h281l-10 -96h-281l-22 -207h327l-11 -100h-453zM347 758q-115 0 -160 89l68 61q46 -53 105 -53q58 0 111 53l55 -63q-13 -16 -23 -26.5t-32 -27t-53.5 -25t-70.5 -8.5z" />
    <glyph glyph-name="ebreve" unicode="&#x115;" horiz-adv-x="475" 
d="M180 -12q-151 0 -151 208q0 71 17.5 135t51.5 116t90 83t126 31q81 0 122.5 -40t41.5 -99q0 -63 -46 -100.5t-123 -63.5l-154 -53q-1 -6 -1 -18q0 -50 12.5 -73t41.5 -23q58 0 166 58l43 -84q-123 -77 -237 -77zM165 302l138 52q57 22 57 63q0 22 -14.5 34t-34.5 12
q-57 0 -94 -44t-52 -117zM311 630q-115 0 -160 89l68 61q46 -53 105 -53q58 0 111 53l55 -63q-13 -16 -23 -26.5t-32 -27t-53.5 -25t-70.5 -8.5z" />
    <glyph glyph-name="Edotaccent" unicode="&#x116;" horiz-adv-x="574" 
d="M46 0l75 707h429l-10 -100h-304l-21 -204h281l-10 -96h-281l-22 -207h327l-11 -100h-453zM342 757l-82 91l101 90l82 -90z" />
    <glyph glyph-name="edotaccent" unicode="&#x117;" horiz-adv-x="475" 
d="M180 -12q-151 0 -151 208q0 71 17.5 135t51.5 116t90 83t126 31q81 0 122.5 -40t41.5 -99q0 -63 -46 -100.5t-123 -63.5l-154 -53q-1 -6 -1 -18q0 -50 12.5 -73t41.5 -23q58 0 166 58l43 -84q-123 -77 -237 -77zM165 302l138 52q57 22 57 63q0 22 -14.5 34t-34.5 12
q-57 0 -94 -44t-52 -117zM300 629l-79 87l98 86l79 -86z" />
    <glyph glyph-name="Eogonek" unicode="&#x118;" horiz-adv-x="574" 
d="M401 -243q-65 0 -94 30.5t-28 84.5q1 32 28 67.5t64 60.5h-325l75 707h429l-10 -100h-304l-21 -204h281l-10 -96h-281l-22 -207h327l-12 -100q-109 -67 -110 -112q-1 -20 11 -28t33 -8q36 0 60 8l14 -82q-44 -21 -105 -21z" />
    <glyph glyph-name="eogonek" unicode="&#x119;" horiz-adv-x="475" 
d="M294 -243q-120 0 -120 107q0 56 56 128q-32 -4 -50 -4q-151 0 -151 208q0 71 17.5 135t51.5 116t90 83t126 31q81 0 122.5 -40t41.5 -99q0 -63 -46 -100.5t-123 -63.5l-154 -53q-1 -3 -1 -18q0 -50 12.5 -73t41.5 -23q58 0 166 58l43 -84q-47 -28 -90.5 -83t-43.5 -98
q0 -33 40 -33q35 0 64 9l14 -82q-54 -21 -107 -21zM165 302l138 52q57 22 57 63q0 22 -14.5 34t-34.5 12q-57 0 -94 -44t-52 -117z" />
    <glyph glyph-name="Ecaron" unicode="&#x11a;" horiz-adv-x="574" 
d="M333 743l-171 82l42 85l140 -57l150 54l35 -82zM46 0l75 707h429l-10 -100h-304l-21 -204h281l-10 -96h-281l-22 -207h327l-11 -100h-453z" />
    <glyph glyph-name="ecaron" unicode="&#x11b;" horiz-adv-x="475" 
d="M302 602l-181 117l59 84l136 -86l151 86l47 -83zM180 -12q-151 0 -151 208q0 71 17.5 135t51.5 116t90 83t126 31q81 0 122.5 -40t41.5 -99q0 -63 -46 -100.5t-123 -63.5l-154 -53q-1 -6 -1 -18q0 -50 12.5 -73t41.5 -23q58 0 166 58l43 -84q-123 -77 -237 -77zM165 302
l138 52q57 22 57 63q0 22 -14.5 34t-34.5 12q-57 0 -94 -44t-52 -117z" />
    <glyph glyph-name="Gcircumflex" unicode="&#x11c;" horiz-adv-x="673" 
d="M596 736l-140 57l-151 -54l-34 82l195 83l172 -83zM373 -10q-153 0 -245 79.5t-92 232.5q0 197 109.5 304.5t306.5 107.5q109 0 187 -34l-44 -94q-78 23 -155 23q-131 0 -202 -77.5t-71 -210.5q0 -108 63 -165.5t172 -57.5q31 0 69 6l25 246h126l-33 -322
q-101 -38 -216 -38z" />
    <glyph glyph-name="gcircumflex" unicode="&#x11d;" horiz-adv-x="539" 
d="M199 606l-51 87l221 123l188 -122l-62 -88l-140 83zM165 -229q-115 0 -192 30l30 100q84 -26 148 -26q78 0 117 22.5t47 93.5l10 90q-98 -93 -168 -93q-69 0 -98.5 43.5t-29.5 130.5q0 165 98.5 277.5t247.5 112.5q62 0 120 -10l-59 -570q-6 -59 -32.5 -100.5t-67 -62
t-82 -29.5t-89.5 -9zM190 97q46 0 145 86l28 265q-5 2 -19 2q-79 0 -135.5 -81.5t-56.5 -193.5q0 -78 38 -78z" />
    <glyph glyph-name="Gbreve" unicode="&#x11e;" horiz-adv-x="673" 
d="M373 -10q-153 0 -245 79.5t-92 232.5q0 197 109.5 304.5t306.5 107.5q109 0 187 -34l-44 -94q-78 23 -155 23q-131 0 -202 -77.5t-71 -210.5q0 -108 63 -165.5t172 -57.5q31 0 69 6l25 246h126l-33 -322q-101 -38 -216 -38zM438 758q-116 0 -160 89l68 61q46 -53 105 -53
q58 0 111 53l55 -63q-13 -16 -23 -26.5t-32 -27t-53.5 -25t-70.5 -8.5z" />
    <glyph glyph-name="gbreve" unicode="&#x11f;" horiz-adv-x="539" 
d="M165 -229q-115 0 -192 30l30 100q84 -26 148 -26q78 0 117 22.5t47 93.5l10 90q-98 -93 -168 -93q-69 0 -98.5 43.5t-29.5 130.5q0 165 98.5 277.5t247.5 112.5q62 0 120 -10l-59 -570q-6 -59 -32.5 -100.5t-67 -62t-82 -29.5t-89.5 -9zM190 97q46 0 145 86l28 265
q-5 2 -19 2q-79 0 -135.5 -81.5t-56.5 -193.5q0 -78 38 -78zM339 630q-115 0 -160 89l68 61q46 -53 105 -53q58 0 111 53l55 -63q-13 -16 -23 -26.5t-32 -27t-53.5 -25t-70.5 -8.5z" />
    <glyph glyph-name="Gdotaccent" unicode="&#x120;" horiz-adv-x="673" 
d="M373 -10q-153 0 -245 79.5t-92 232.5q0 197 109.5 304.5t306.5 107.5q109 0 187 -34l-44 -94q-78 23 -155 23q-131 0 -202 -77.5t-71 -210.5q0 -108 63 -165.5t172 -57.5q31 0 69 6l25 246h126l-33 -322q-101 -38 -216 -38zM449 757l-82 91l101 90l82 -90z" />
    <glyph glyph-name="gdotaccent" unicode="&#x121;" horiz-adv-x="539" 
d="M165 -229q-115 0 -192 30l30 100q84 -26 148 -26q78 0 117 22.5t47 93.5l10 90q-98 -93 -168 -93q-69 0 -98.5 43.5t-29.5 130.5q0 165 98.5 277.5t247.5 112.5q62 0 120 -10l-59 -570q-6 -59 -32.5 -100.5t-67 -62t-82 -29.5t-89.5 -9zM190 97q46 0 145 86l28 265
q-5 2 -19 2q-79 0 -135.5 -81.5t-56.5 -193.5q0 -78 38 -78zM341 629l-79 87l98 86l79 -86z" />
    <glyph glyph-name="Gcommaaccent" unicode="&#x122;" horiz-adv-x="673" 
d="M267 -265l36 207h117l-60 -207h-93zM373 -10q-153 0 -245 79.5t-92 232.5q0 197 109.5 304.5t306.5 107.5q109 0 187 -34l-44 -94q-78 23 -155 23q-131 0 -202 -77.5t-71 -210.5q0 -108 63 -165.5t172 -57.5q31 0 69 6l25 246h126l-33 -322q-101 -38 -216 -38z" />
    <glyph glyph-name="gcommaaccent" unicode="&#x123;" horiz-adv-x="539" 
d="M457 809l-36 -207h-117l60 207h93zM165 -229q-115 0 -192 30l30 100q84 -26 148 -26q78 0 117 22.5t47 93.5l10 90q-98 -93 -168 -93q-69 0 -98.5 43.5t-29.5 130.5q0 165 98.5 277.5t247.5 112.5q62 0 120 -10l-59 -570q-6 -59 -32.5 -100.5t-67 -62t-82 -29.5t-89.5 -9
zM190 97q46 0 145 86l28 265q-5 2 -19 2q-79 0 -135.5 -81.5t-56.5 -193.5q0 -78 38 -78z" />
    <glyph glyph-name="Hcircumflex" unicode="&#x124;" horiz-adv-x="757" 
d="M565 736l-140 57l-151 -54l-34 82l195 83l172 -83zM46 0l75 707h125l-31 -303h338l32 304h127l-74 -708h-127l33 306h-339l-33 -306h-126z" />
    <glyph glyph-name="hcircumflex" unicode="&#x125;" horiz-adv-x="571" 
d="M336 763l-140 57l-151 -54l-34 82l195 83l172 -83zM46 0l79 755h123l-29 -280q117 85 187 85q73 0 94 -35t11 -131l-42 -394h-122l40 371q6 41 1 56.5t-29 15.5q-11 0 -27.5 -5.5t-36 -15t-34.5 -17.5t-32.5 -18t-20.5 -12l-39 -375h-123z" />
    <glyph glyph-name="Hbar" unicode="&#x126;" horiz-adv-x="757" 
d="M46 0l53 501h-63l10 87h62l13 119h125l-13 -119h340l12 119h127l-13 -119h66l-11 -87h-64l-52 -501h-127l33 306h-339l-33 -306h-126zM215 404h338l10 97h-338z" />
    <glyph glyph-name="hbar" unicode="&#x127;" horiz-adv-x="571" 
d="M46 0l63 602h-73l12 86h70l7 67h123l-6 -67h117l-13 -86h-114l-13 -127q117 85 187 85q73 0 94 -35t11 -131l-42 -394h-122l40 371q6 41 1 56.5t-29 15.5q-11 0 -27.5 -5.5t-36 -15t-34.5 -17.5t-32.5 -18t-20.5 -12l-39 -375h-123z" />
    <glyph glyph-name="Itilde" unicode="&#x128;" horiz-adv-x="293" 
d="M46 0l75 707h125l-74 -707h-126zM248 745q-23 0 -63.5 19t-56.5 19q-39 0 -77 -27l-43 63q61 61 126 61q28 0 70 -18.5t55 -18.5q36 0 84 26l37 -65q-59 -59 -132 -59z" />
    <glyph glyph-name="itilde" unicode="&#x129;" horiz-adv-x="264" 
d="M40 0l57 546h123l-58 -546h-122zM233 634q-23 0 -66 20.5t-64 20.5q-45 0 -83 -29l-47 68q60 63 138 63q29 0 69 -19t61 -19q35 0 89 29l39 -70q-64 -64 -136 -64z" />
    <glyph glyph-name="Imacron" unicode="&#x12a;" horiz-adv-x="293" 
d="M46 0l75 707h125l-74 -707h-126zM40 769l10 101h308l-12 -101h-306z" />
    <glyph glyph-name="imacron" unicode="&#x12b;" horiz-adv-x="264" 
d="M40 0l57 546h123l-58 -546h-122zM25 648l11 105h290l-11 -105h-290z" />
    <glyph glyph-name="Ibreve" unicode="&#x12c;" horiz-adv-x="293" 
d="M46 0l75 707h125l-74 -707h-126zM190 758q-116 0 -160 89l68 61q46 -53 105 -53q58 0 111 53l55 -63q-13 -16 -23 -26.5t-32 -27t-53.5 -25t-70.5 -8.5z" />
    <glyph glyph-name="ibreve" unicode="&#x12d;" horiz-adv-x="264" 
d="M40 0l57 546h123l-58 -546h-122zM167 630q-115 0 -160 89l68 61q46 -53 105 -53q58 0 111 53l55 -63q-13 -16 -23 -26.5t-32 -27t-53.5 -25t-70.5 -8.5z" />
    <glyph glyph-name="Iogonek" unicode="&#x12e;" horiz-adv-x="293" 
d="M73 -243q-64 0 -93.5 29.5t-28.5 76.5q1 40 28.5 77.5t68.5 62.5l73 704h125l-75 -707q-105 -63 -110 -114q-4 -34 43 -34q36 0 60 8l14 -82q-44 -21 -105 -21z" />
    <glyph glyph-name="iogonek" unicode="&#x12f;" horiz-adv-x="272" 
d="M166 -140l13 -82q-5 -2 -18.5 -6.5t-38 -9.5t-45.5 -5q-125 0 -125 110q0 36 27.5 74t65.5 66l56 539h123l-57 -546q-39 -23 -71 -55.5t-34 -60.5q-1 -18 11 -25t31 -7q38 0 62 8zM169 629l-79 87l98 86l79 -86z" />
    <glyph glyph-name="Idotaccent" unicode="&#x130;" horiz-adv-x="293" 
d="M46 0l75 707h125l-74 -707h-126zM189 757l-82 91l101 90l82 -90z" />
    <glyph glyph-name="dotlessi" unicode="&#x131;" horiz-adv-x="264" 
d="M40 0l57 546h123l-58 -546h-122z" />
    <glyph glyph-name="IJ" unicode="&#x132;" horiz-adv-x="583" 
d="M46 0l75 707h125l-74 -707h-126zM220 -192l-38 90q92 49 126.5 101.5t44.5 151.5l58 556h127l-58 -554q-7 -63 -19.5 -109t-40 -92.5t-77.5 -82t-123 -61.5z" />
    <glyph glyph-name="ij" unicode="&#x133;" horiz-adv-x="539" 
d="M206 -220q-57 0 -104 20l32 97q45 -12 76 -12q46 0 66.5 25t26.5 84l58 552h123l-58 -553q-13 -122 -68.5 -167.5t-151.5 -45.5zM40 0l57 546h123l-58 -546h-122zM167 629l-79 87l98 86l79 -86zM432 629l-79 87l98 86l79 -86z" />
    <glyph glyph-name="Jcircumflex" unicode="&#x134;" horiz-adv-x="299" 
d="M343 736l-140 57l-151 -54l-34 82l195 83l172 -83zM-64 -192l-38 90q92 49 126.5 101.5t44.5 151.5l58 556h127l-58 -554q-7 -63 -19.5 -109t-40 -92.5t-77.5 -82t-123 -61.5z" />
    <glyph glyph-name="jcircumflex" unicode="&#x135;" horiz-adv-x="272" 
d="M-54 -220q-57 0 -104 20l32 97q45 -12 76 -12q46 0 66.5 25t26.5 84l58 552h123l-58 -553q-13 -122 -68.5 -167.5t-151.5 -45.5zM20 606l-51 87l221 123l188 -122l-62 -88l-140 83z" />
    <glyph glyph-name="Kcommaaccent" unicode="&#x136;" horiz-adv-x="628" 
d="M203 -265l36 207h117l-60 -207h-93zM484 -34l-271 400l2 17l301 324h155l-314 -329l247 -354zM46 0l75 707h125l-74 -707h-126z" />
    <glyph glyph-name="kcommaaccent" unicode="&#x137;" horiz-adv-x="503" 
d="M153 -265l36 207h117l-60 -207h-93zM44 0l79 755h123l-50 -468l191 259h136l-198 -255l167 -286l-132 -12l-165 282l-29 -275h-122z" />
    <glyph glyph-name="Lacute" unicode="&#x139;" horiz-adv-x="509" 
d="M131 737l-22 80l249 86l28 -102zM46 0l75 707h125l-63 -605h307l-11 -102h-433z" />
    <glyph glyph-name="lacute" unicode="&#x13a;" horiz-adv-x="285" 
d="M132 789l-22 80l249 86l28 -102zM44 0l79 755h123l-80 -755h-122z" />
    <glyph glyph-name="Lcommaaccent" unicode="&#x13b;" horiz-adv-x="509" 
d="M174 -265l36 207h117l-60 -207h-93zM46 0l75 707h125l-63 -605h307l-11 -102h-433z" />
    <glyph glyph-name="lcommaaccent" unicode="&#x13c;" horiz-adv-x="285" 
d="M17 -265l36 207h117l-60 -207h-93zM44 0l79 755h123l-80 -755h-122z" />
    <glyph glyph-name="Lcaron" unicode="&#x13d;" horiz-adv-x="509" 
d="M303 550l36 207h117l-60 -207h-93zM46 0l75 707h125l-63 -605h307l-11 -102h-433z" />
    <glyph glyph-name="lcaron" unicode="&#x13e;" horiz-adv-x="350" 
d="M269 547l36 207h117l-60 -207h-93zM44 0l79 755h123l-80 -755h-122z" />
    <glyph glyph-name="Ldot" unicode="&#x13f;" horiz-adv-x="509" 
d="M46 0l75 707h125l-63 -605h307l-11 -102h-433zM398 284l-81 91l100 90l83 -90z" />
    <glyph glyph-name="ldot" unicode="&#x140;" horiz-adv-x="405" 
d="M44 0l79 755h123l-80 -755h-122zM331 287l-81 91l100 90l83 -90z" />
    <glyph glyph-name="Lslash" unicode="&#x141;" horiz-adv-x="503" 
d="M52 0l29 280l-71 -38l9 88l71 39l36 338h126l-28 -265l132 71l-9 -88l-133 -72l-26 -250h307l-10 -103h-433z" />
    <glyph glyph-name="lslash" unicode="&#x142;" horiz-adv-x="285" 
d="M44 0l33 315l-90 -49l10 89l90 48l36 351h123l-30 -280l96 51l-9 -88l-95 -51l-41 -386h-123z" />
    <glyph glyph-name="Nacute" unicode="&#x143;" horiz-adv-x="751" 
d="M338 737l-22 80l249 86l28 -102zM46 0l75 707h158l245 -565l55 565h126l-75 -707h-164l-238 550l-56 -550h-126z" />
    <glyph glyph-name="nacute" unicode="&#x144;" horiz-adv-x="571" 
d="M270 600l-37 84l245 139l45 -99zM44 0l58 546h122l-7 -71q117 85 187 85q72 0 93.5 -35.5t11.5 -130.5l-42 -394h-123l40 371q6 41 1 56.5t-28 15.5q-31 0 -151 -68l-40 -375h-122z" />
    <glyph glyph-name="Ncommaaccent" unicode="&#x145;" horiz-adv-x="751" 
d="M248 -265l36 207h117l-60 -207h-93zM46 0l75 707h158l245 -565l55 565h126l-75 -707h-164l-238 550l-56 -550h-126z" />
    <glyph glyph-name="ncommaaccent" unicode="&#x146;" horiz-adv-x="571" 
d="M159 -265l36 207h117l-60 -207h-93zM44 0l58 546h122l-7 -71q117 85 187 85q72 0 93.5 -35.5t11.5 -130.5l-42 -394h-123l40 371q6 41 1 56.5t-28 15.5q-31 0 -151 -68l-40 -375h-122z" />
    <glyph glyph-name="Ncaron" unicode="&#x147;" horiz-adv-x="751" 
d="M423 743l-171 82l42 85l140 -57l150 54l35 -82zM46 0l75 707h158l245 -565l55 565h126l-75 -707h-164l-238 550l-56 -550h-126z" />
    <glyph glyph-name="ncaron" unicode="&#x148;" horiz-adv-x="571" 
d="M310 602l-181 117l59 84l136 -86l151 86l47 -83zM44 0l58 546h122l-7 -71q117 85 187 85q72 0 93.5 -35.5t11.5 -130.5l-42 -394h-123l40 371q6 41 1 56.5t-28 15.5q-31 0 -151 -68l-40 -375h-122z" />
    <glyph glyph-name="napostrophe" unicode="&#x149;" horiz-adv-x="571" 
d="M-68 520q20 35 32 83.5t14.5 73t7.5 82.5h127q-6 -86 -22.5 -138t-57.5 -101h-101zM44 0l58 546h122l-7 -71q117 85 187 85q72 0 93.5 -35.5t11.5 -130.5l-42 -394h-123l40 371q6 41 1 56.5t-28 15.5q-31 0 -151 -68l-40 -375h-122z" />
    <glyph glyph-name="Eng" unicode="&#x14a;" horiz-adv-x="751" 
d="M410 -220q-59 0 -104 20l31 97q48 -12 77 -12q83 0 91 92l2 23h-41l-238 550l-56 -550h-126l75 707h158l245 -565l55 565h126l-79 -738q-9 -88 -58 -138.5t-158 -50.5z" />
    <glyph glyph-name="eng" unicode="&#x14b;" horiz-adv-x="571" 
d="M247 -220q-59 0 -104 20l31 97q48 -12 77 -12q46 0 66 25t27 84l40 377q6 41 1 56.5t-28 15.5q-31 0 -151 -68l-40 -375h-122l58 546h122l-7 -71q117 85 187 85q72 0 93.5 -35.5t11.5 -130.5l-43 -401q-13 -122 -68.5 -167.5t-150.5 -45.5z" />
    <glyph glyph-name="Omacron" unicode="&#x14c;" horiz-adv-x="797" 
d="M289 769l10 101h308l-12 -101h-306zM352 -12q-149 0 -233 82.5t-84 230.5q0 192 110 304.5t300 112.5q150 0 234 -81t84 -229q0 -194 -109 -307t-302 -113zM366 90q131 0 199 85.5t68 220.5q0 102 -52.5 161t-152.5 59q-128 0 -196.5 -85t-68.5 -218q0 -102 51.5 -162.5
t151.5 -60.5z" />
    <glyph glyph-name="omacron" unicode="&#x14d;" horiz-adv-x="533" 
d="M175 648l11 105h290l-11 -105h-290zM217 -12q-88 0 -138 57t-50 147q0 164 78 265.5t211 101.5q90 0 138.5 -57.5t48.5 -142.5q0 -49 -8 -97.5t-29 -98.5t-53 -88t-83 -62.5t-115 -24.5zM239 90q56 0 99 72t43 191q0 58 -22 82.5t-66 24.5q-55 0 -96.5 -73.5
t-41.5 -185.5q0 -111 84 -111z" />
    <glyph glyph-name="Obreve" unicode="&#x14e;" horiz-adv-x="797" 
d="M352 -12q-149 0 -233 82.5t-84 230.5q0 192 110 304.5t300 112.5q150 0 234 -81t84 -229q0 -194 -109 -307t-302 -113zM366 90q131 0 199 85.5t68 220.5q0 102 -52.5 161t-152.5 59q-128 0 -196.5 -85t-68.5 -218q0 -102 51.5 -162.5t151.5 -60.5zM437 758
q-115 0 -160 89l68 61q46 -53 105 -53q58 0 111 53l55 -63q-13 -16 -23 -26.5t-32 -27t-53.5 -25t-70.5 -8.5z" />
    <glyph glyph-name="obreve" unicode="&#x14f;" horiz-adv-x="533" 
d="M217 -12q-88 0 -138 57t-50 147q0 164 78 265.5t211 101.5q90 0 138.5 -57.5t48.5 -142.5q0 -49 -8 -97.5t-29 -98.5t-53 -88t-83 -62.5t-115 -24.5zM239 90q56 0 99 72t43 191q0 58 -22 82.5t-66 24.5q-55 0 -96.5 -73.5t-41.5 -185.5q0 -111 84 -111zM306 630
q-116 0 -160 89l68 61q46 -53 105 -53q58 0 111 53l55 -63q-13 -16 -23 -26.5t-32 -27t-53.5 -25t-70.5 -8.5z" />
    <glyph glyph-name="Ohungarumlaut" unicode="&#x150;" horiz-adv-x="797" 
d="M310 734l-58 65l190 177l72 -83zM523 734l-24 83l246 86l30 -106zM352 -12q-149 0 -233 82.5t-84 230.5q0 192 110 304.5t300 112.5q150 0 234 -81t84 -229q0 -194 -109 -307t-302 -113zM366 90q131 0 199 85.5t68 220.5q0 102 -52.5 161t-152.5 59q-128 0 -196.5 -85
t-68.5 -218q0 -102 51.5 -162.5t151.5 -60.5z" />
    <glyph glyph-name="ohungarumlaut" unicode="&#x151;" horiz-adv-x="533" 
d="M188 604l-51 71l206 164l61 -83zM422 604l-38 78l228 127l40 -96zM217 -12q-88 0 -138 57t-50 147q0 164 78 265.5t211 101.5q90 0 138.5 -57.5t48.5 -142.5q0 -49 -8 -97.5t-29 -98.5t-53 -88t-83 -62.5t-115 -24.5zM239 90q56 0 99 72t43 191q0 58 -22 82.5t-66 24.5
q-55 0 -96.5 -73.5t-41.5 -185.5q0 -111 84 -111z" />
    <glyph glyph-name="OE" unicode="&#x152;" horiz-adv-x="1086" 
d="M348 -12q-149 0 -233.5 82.5t-84.5 230.5q0 192 110 304.5t301 112.5q118 0 191 -56l4 45h430l-11 -100h-303l-21 -204h281l-10 -96h-281l-22 -207h326l-10 -101l-453 1l5 44q-90 -56 -219 -56zM362 90q154 0 222 122l30 280q-43 123 -191 123q-128 0 -196 -84.5
t-68 -217.5q0 -102 51 -162.5t152 -60.5z" />
    <glyph glyph-name="oe" unicode="&#x153;" horiz-adv-x="803" 
d="M213 -12q-88 0 -138 57t-50 147q0 164 78 265.5t211 101.5q100 0 147 -81q72 83 185 83q81 0 120 -38t39 -97q0 -64 -46 -102t-122 -63l-153 -52v-16q1 -52 13.5 -76.5t41.5 -24.5q58 0 167 56l42 -83q-122 -77 -237 -77q-85 0 -119 77q-70 -77 -179 -77zM234 90
q56 0 99 72t43 191q0 59 -21.5 83t-65.5 24q-54 0 -96 -73t-42 -186q0 -111 83 -111zM496 305l135 53q57 24 57 62q0 20 -13.5 31t-32.5 11q-57 0 -94.5 -44.5t-51.5 -112.5z" />
    <glyph glyph-name="Racute" unicode="&#x154;" horiz-adv-x="649" 
d="M250 737l-22 80l249 86l28 -102zM518 -32l-197 313q-21 -2 -118 -2l-30 -279h-127l75 707h247q100 0 164.5 -46.5t64.5 -137.5q0 -74 -37 -129t-108 -83l183 -284zM213 371h75q178 0 178 144q0 52 -34.5 72t-95.5 20h-99z" />
    <glyph glyph-name="racute" unicode="&#x155;" horiz-adv-x="373" 
d="M198 600l-37 84l245 139l45 -99zM44 0l58 546h122l-7 -69q30 24 46.5 36t50 27.5t61.5 15.5q16 0 32 -3l-22 -118q-17 4 -44 4q-43 0 -134 -72l-41 -367h-122z" />
    <glyph glyph-name="Rcommaaccent" unicode="&#x156;" horiz-adv-x="649" 
d="M222 -265l36 207h117l-60 -207h-93zM518 -32l-197 313q-21 -2 -118 -2l-30 -279h-127l75 707h247q100 0 164.5 -46.5t64.5 -137.5q0 -74 -37 -129t-108 -83l183 -284zM213 371h75q178 0 178 144q0 52 -34.5 72t-95.5 20h-99z" />
    <glyph glyph-name="rcommaaccent" unicode="&#x157;" horiz-adv-x="373" 
d="M15 -265l36 207h117l-60 -207h-93zM44 0l58 546h122l-7 -69q30 24 46.5 36t50 27.5t61.5 15.5q16 0 32 -3l-22 -118q-17 4 -44 4q-43 0 -134 -72l-41 -367h-122z" />
    <glyph glyph-name="Rcaron" unicode="&#x158;" horiz-adv-x="649" 
d="M336 743l-171 82l42 85l140 -57l150 54l35 -82zM518 -32l-197 313q-21 -2 -118 -2l-30 -279h-127l75 707h247q100 0 164.5 -46.5t64.5 -137.5q0 -74 -37 -129t-108 -83l183 -284zM213 371h75q178 0 178 144q0 52 -34.5 72t-95.5 20h-99z" />
    <glyph glyph-name="rcaron" unicode="&#x159;" horiz-adv-x="373" 
d="M253 602l-181 117l59 84l136 -86l151 86l47 -83zM44 0l58 546h122l-7 -69q30 24 46.5 36t50 27.5t61.5 15.5q16 0 32 -3l-22 -118q-17 4 -44 4q-43 0 -134 -72l-41 -367h-122z" />
    <glyph glyph-name="Sacute" unicode="&#x15a;" horiz-adv-x="518" 
d="M217 737l-22 80l249 86l28 -102zM197 -12q-121 0 -216 50l46 98q103 -41 179 -41q63 0 106.5 23.5t43.5 79.5q0 32 -31 58t-75 47.5t-87.5 46.5t-74.5 68t-31 100q0 97 72 147.5t176 50.5q113 0 203 -44l-45 -92q-74 31 -160 31q-122 0 -122 -81q0 -30 31 -56t76 -48.5
t89.5 -49t75.5 -69t31 -95.5q0 -112 -84 -168t-203 -56z" />
    <glyph glyph-name="sacute" unicode="&#x15b;" horiz-adv-x="443" 
d="M185 600l-37 84l245 139l45 -99zM175 -10q-103 0 -171 32l33 97q79 -27 148 -27q37 0 65 13.5t28 44.5q0 17 -15.5 34.5t-39 31.5t-50.5 33t-50.5 38.5t-39 48.5t-15.5 62q0 84 55 122t142 38q43 0 90.5 -9t72.5 -22l-31 -91q-80 23 -131 23q-80 0 -80 -51
q0 -21 22 -42.5t53 -42t62 -43.5t53 -56.5t22 -72.5q0 -49 -21.5 -82.5t-57.5 -49.5t-70.5 -22.5t-73.5 -6.5z" />
    <glyph glyph-name="Scircumflex" unicode="&#x15c;" horiz-adv-x="518" 
d="M462 736l-140 57l-151 -54l-34 82l195 83l172 -83zM197 -12q-121 0 -216 50l46 98q103 -41 179 -41q63 0 106.5 23.5t43.5 79.5q0 32 -31 58t-75 47.5t-87.5 46.5t-74.5 68t-31 100q0 97 72 147.5t176 50.5q113 0 203 -44l-45 -92q-74 31 -160 31q-122 0 -122 -81
q0 -30 31 -56t76 -48.5t89.5 -49t75.5 -69t31 -95.5q0 -112 -84 -168t-203 -56z" />
    <glyph glyph-name="scircumflex" unicode="&#x15d;" horiz-adv-x="443" 
d="M122 606l-51 87l221 123l188 -122l-62 -88l-140 83zM175 -10q-103 0 -171 32l33 97q79 -27 148 -27q37 0 65 13.5t28 44.5q0 17 -15.5 34.5t-39 31.5t-50.5 33t-50.5 38.5t-39 48.5t-15.5 62q0 84 55 122t142 38q43 0 90.5 -9t72.5 -22l-31 -91q-80 23 -131 23
q-80 0 -80 -51q0 -21 22 -42.5t53 -42t62 -43.5t53 -56.5t22 -72.5q0 -49 -21.5 -82.5t-57.5 -49.5t-70.5 -22.5t-73.5 -6.5z" />
    <glyph glyph-name="Scedilla" unicode="&#x15e;" horiz-adv-x="518" 
d="M197 -12q-121 0 -216 50l46 98q103 -41 179 -41q63 0 106.5 23.5t43.5 79.5q0 32 -31 58t-75 47.5t-87.5 46.5t-74.5 68t-31 100q0 97 72 147.5t176 50.5q113 0 203 -44l-45 -92q-74 31 -160 31q-122 0 -122 -81q0 -30 31 -56t76 -48.5t89.5 -49t75.5 -69t31 -95.5
q0 -112 -84 -168t-203 -56zM130 -261l-34 72q23 14 35.5 22.5t25 22.5t14.5 28q2 23 -11 65h102q18 -41 14 -74q-8 -81 -146 -136z" />
    <glyph glyph-name="scedilla" unicode="&#x15f;" horiz-adv-x="443" 
d="M175 -10q-103 0 -171 32l33 97q79 -27 148 -27q37 0 65 13.5t28 44.5q0 17 -15.5 34.5t-39 31.5t-50.5 33t-50.5 38.5t-39 48.5t-15.5 62q0 84 55 122t142 38q43 0 90.5 -9t72.5 -22l-31 -91q-80 23 -131 23q-80 0 -80 -51q0 -21 22 -42.5t53 -42t62 -43.5t53 -56.5
t22 -72.5q0 -49 -21.5 -82.5t-57.5 -49.5t-70.5 -22.5t-73.5 -6.5zM94 -261l-34 72q23 14 35.5 22.5t25 22.5t14.5 28q2 23 -11 65h102q18 -41 14 -74q-8 -81 -146 -136z" />
    <glyph glyph-name="Scaron" unicode="&#x160;" horiz-adv-x="518" 
d="M297 743l-171 82l42 85l140 -57l150 54l35 -82zM197 -12q-121 0 -216 50l46 98q103 -41 179 -41q63 0 106.5 23.5t43.5 79.5q0 32 -31 58t-75 47.5t-87.5 46.5t-74.5 68t-31 100q0 97 72 147.5t176 50.5q113 0 203 -44l-45 -92q-74 31 -160 31q-122 0 -122 -81
q0 -30 31 -56t76 -48.5t89.5 -49t75.5 -69t31 -95.5q0 -112 -84 -168t-203 -56z" />
    <glyph glyph-name="scaron" unicode="&#x161;" horiz-adv-x="443" 
d="M260 602l-181 117l59 84l136 -86l151 86l47 -83zM175 -10q-103 0 -171 32l33 97q79 -27 148 -27q37 0 65 13.5t28 44.5q0 17 -15.5 34.5t-39 31.5t-50.5 33t-50.5 38.5t-39 48.5t-15.5 62q0 84 55 122t142 38q43 0 90.5 -9t72.5 -22l-31 -91q-80 23 -131 23
q-80 0 -80 -51q0 -21 22 -42.5t53 -42t62 -43.5t53 -56.5t22 -72.5q0 -49 -21.5 -82.5t-57.5 -49.5t-70.5 -22.5t-73.5 -6.5z" />
    <glyph glyph-name="Tcommaaccent" unicode="&#x162;" horiz-adv-x="582" 
d="M166 -265l36 207h117l-60 -207h-93zM193 0l63 606h-231l11 101h589l-11 -101h-231l-64 -606h-126z" />
    <glyph glyph-name="tcommaaccent" unicode="&#x163;" horiz-adv-x="393" 
d="M90 -265l36 207h117l-60 -207h-93zM191 -12q-73 0 -103 34.5t-19 132.5l32 297h-80l11 94h81l11 112h122l-12 -112h151l-9 -94h-152l-33 -304q-4 -31 1.5 -42t25.5 -11q49 0 121 26l23 -92q-82 -41 -171 -41z" />
    <glyph glyph-name="Tcaron" unicode="&#x164;" horiz-adv-x="582" 
d="M326 743l-171 82l42 85l140 -57l150 54l35 -82zM193 0l63 606h-231l11 101h589l-11 -101h-231l-64 -606h-126z" />
    <glyph glyph-name="tcaron" unicode="&#x165;" horiz-adv-x="393" 
d="M295 612l36 207h117l-60 -207h-93zM191 -12q-73 0 -103 34.5t-19 132.5l32 297h-80l11 94h81l11 112h122l-12 -112h151l-9 -94h-152l-33 -304q-4 -31 1.5 -42t25.5 -11q49 0 121 26l23 -92q-82 -41 -171 -41z" />
    <glyph glyph-name="Tbar" unicode="&#x166;" horiz-adv-x="582" 
d="M193 0l32 311h-134l12 86h131l22 209h-231l11 101h589l-11 -101h-231l-22 -209h135l-13 -86h-132l-32 -311h-126z" />
    <glyph glyph-name="tbar" unicode="&#x167;" horiz-adv-x="393" 
d="M191 -12q-73 0 -103 34.5t-19 132.5l11 107h-57l8 86h58l12 104h-80l11 94h81l11 112h122l-12 -112h151l-9 -94h-152l-12 -104h121l-9 -86h-121l-12 -114q-4 -31 1.5 -42t25.5 -11q49 0 121 26l23 -92q-82 -41 -171 -41z" />
    <glyph glyph-name="Utilde" unicode="&#x168;" horiz-adv-x="741" 
d="M341 -13q-61 0 -111 13.5t-92 43t-62 85.5t-12 133l47 445h127l-45 -438q-10 -94 30.5 -134.5t124.5 -40.5q86 0 135 46t60 152l44 415h123l-44 -418q-7 -69 -30 -122.5t-54.5 -87t-72.5 -54.5t-82 -29.5t-86 -8.5zM470 745q-23 0 -63.5 19t-56.5 19q-39 0 -77 -27
l-43 63q61 61 126 61q28 0 70 -18.5t55 -18.5q36 0 84 26l37 -65q-59 -59 -132 -59z" />
    <glyph glyph-name="utilde" unicode="&#x169;" horiz-adv-x="564" 
d="M171 -12q-73 0 -99 36.5t-16 135.5l41 386h123l-40 -375q-5 -41 2 -57t30 -16q50 0 145 68l41 380h122l-58 -546h-122l8 71q-100 -83 -177 -83zM393 634q-23 0 -66 20.5t-64 20.5q-45 0 -83 -29l-47 68q60 63 138 63q29 0 69 -19t61 -19q35 0 89 29l39 -70
q-64 -64 -136 -64z" />
    <glyph glyph-name="Umacron" unicode="&#x16a;" horiz-adv-x="741" 
d="M341 -13q-61 0 -111 13.5t-92 43t-62 85.5t-12 133l47 445h127l-45 -438q-10 -94 30.5 -134.5t124.5 -40.5q86 0 135 46t60 152l44 415h123l-44 -418q-7 -69 -30 -122.5t-54.5 -87t-72.5 -54.5t-82 -29.5t-86 -8.5zM264 769l10 101h308l-12 -101h-306z" />
    <glyph glyph-name="umacron" unicode="&#x16b;" horiz-adv-x="564" 
d="M171 -12q-73 0 -99 36.5t-16 135.5l41 386h123l-40 -375q-5 -41 2 -57t30 -16q50 0 145 68l41 380h122l-58 -546h-122l8 71q-100 -83 -177 -83zM173 648l11 105h290l-11 -105h-290z" />
    <glyph glyph-name="Ubreve" unicode="&#x16c;" horiz-adv-x="741" 
d="M341 -13q-61 0 -111 13.5t-92 43t-62 85.5t-12 133l47 445h127l-45 -438q-10 -94 30.5 -134.5t124.5 -40.5q86 0 135 46t60 152l44 415h123l-44 -418q-7 -69 -30 -122.5t-54.5 -87t-72.5 -54.5t-82 -29.5t-86 -8.5zM419 755q-115 0 -160 89l68 61q46 -53 105 -53
q58 0 111 53l55 -63q-13 -16 -23 -26.5t-32 -27t-53.5 -25t-70.5 -8.5z" />
    <glyph glyph-name="ubreve" unicode="&#x16d;" horiz-adv-x="564" 
d="M171 -12q-73 0 -99 36.5t-16 135.5l41 386h123l-40 -375q-5 -41 2 -57t30 -16q50 0 145 68l41 380h122l-58 -546h-122l8 71q-100 -83 -177 -83zM322 630q-116 0 -160 89l68 61q46 -53 105 -53q58 0 111 53l55 -63q-13 -16 -23 -26.5t-32 -27t-53.5 -25t-70.5 -8.5z" />
    <glyph glyph-name="Uring" unicode="&#x16e;" horiz-adv-x="741" 
d="M413 709q-52 0 -87.5 25t-35.5 74q0 62 42.5 100t104.5 38q50 0 85.5 -28t35.5 -76q0 -62 -41 -97.5t-104 -35.5zM420 771q26 0 43 16t17 42q0 23 -14.5 36.5t-37.5 13.5q-27 0 -43.5 -15.5t-16.5 -42.5q0 -23 14.5 -36.5t37.5 -13.5zM341 -13q-61 0 -111 13.5t-92 43
t-62 85.5t-12 133l47 445h127l-45 -438q-10 -94 30.5 -134.5t124.5 -40.5q86 0 135 46t60 152l44 415h123l-44 -418q-7 -69 -30 -122.5t-54.5 -87t-72.5 -54.5t-82 -29.5t-86 -8.5z" />
    <glyph glyph-name="uring" unicode="&#x16f;" horiz-adv-x="564" 
d="M322 597q-52 0 -87.5 25t-35.5 74q0 62 42.5 100t104.5 38q50 0 85.5 -28t35.5 -76q0 -62 -41 -97.5t-104 -35.5zM329 659q26 0 43 16t17 42q0 23 -14.5 36.5t-37.5 13.5q-27 0 -43.5 -15.5t-16.5 -42.5q0 -23 14.5 -36.5t37.5 -13.5zM171 -12q-73 0 -99 36.5t-16 135.5
l41 386h123l-40 -375q-5 -41 2 -57t30 -16q50 0 145 68l41 380h122l-58 -546h-122l8 71q-100 -83 -177 -83z" />
    <glyph glyph-name="Uhungarumlaut" unicode="&#x170;" horiz-adv-x="741" 
d="M341 -13q-61 0 -111 13.5t-92 43t-62 85.5t-12 133l47 445h127l-45 -438q-10 -94 30.5 -134.5t124.5 -40.5q86 0 135 46t60 152l44 415h123l-44 -418q-7 -69 -30 -122.5t-54.5 -87t-72.5 -54.5t-82 -29.5t-86 -8.5zM266 734l-58 65l190 177l72 -83zM479 734l-24 83
l246 86l30 -106z" />
    <glyph glyph-name="uhungarumlaut" unicode="&#x171;" horiz-adv-x="564" 
d="M171 -12q-73 0 -99 36.5t-16 135.5l41 386h123l-40 -375q-5 -41 2 -57t30 -16q50 0 145 68l41 380h122l-58 -546h-122l8 71q-100 -83 -177 -83zM180 604l-51 71l206 164l61 -83zM414 604l-38 78l228 127l40 -96z" />
    <glyph glyph-name="Uogonek" unicode="&#x172;" horiz-adv-x="741" 
d="M350 -243q-133 0 -120 126q5 51 69 106q-263 18 -237 265l49 453h127l-47 -447q-9 -93 31.5 -129.5t125.5 -36.5q87 0 135 42t59 147l45 424h123l-46 -427q-23 -231 -215 -280q-106 -64 -111 -114q-4 -34 44 -34q36 0 60 8l13 -82q-42 -21 -105 -21z" />
    <glyph glyph-name="uogonek" unicode="&#x173;" horiz-adv-x="564" 
d="M364 -243q-67 0 -94.5 27.5t-25.5 81.5q1 35 29.5 74t67.5 66l7 65q-100 -83 -177 -83q-73 0 -99 36.5t-16 135.5l41 386h123l-40 -375q-5 -41 2 -57t30 -16q50 0 145 68l41 380h122l-59 -546q-105 -63 -110 -114q-1 -20 10.5 -27t33.5 -7q36 0 60 8l14 -82
q-44 -21 -105 -21z" />
    <glyph glyph-name="Wcircumflex" unicode="&#x174;" horiz-adv-x="955" 
d="M639 736l-140 57l-151 -54l-34 82l195 83l172 -83zM133 0l-114 707h133l84 -602l202 415l-43 187h132l119 -600l238 600h127l-294 -707h-164l-78 365l-177 -365h-165z" />
    <glyph glyph-name="wcircumflex" unicode="&#x175;" horiz-adv-x="795" 
d="M279 606l-51 87l221 123l188 -122l-62 -88l-140 83zM104 0l-78 546h131l46 -435l156 291l-22 144h130l52 -435l118 246q40 80 40 155q0 18 -3 34h130q3 -17 3 -34q0 -76 -49 -174l-171 -338h-166l-40 256l-140 -256h-137z" />
    <glyph glyph-name="Ycircumflex" unicode="&#x176;" horiz-adv-x="585" 
d="M186 0l26 250l-197 457h143l132 -351l218 351h140l-310 -454l-26 -253h-126zM478 736l-140 57l-151 -54l-34 82l195 83l172 -83z" />
    <glyph glyph-name="ycircumflex" unicode="&#x177;" horiz-adv-x="485" 
d="M38 -220l111 220h-41l-82 546h131l51 -435l119 246q40 80 40 155q0 18 -3 34h131q3 -17 3 -34q0 -74 -49 -174l-282 -558h-129zM125 606l-51 87l221 123l188 -122l-62 -88l-140 83z" />
    <glyph glyph-name="Ydieresis" unicode="&#x178;" horiz-adv-x="585" 
d="M186 0l26 250l-197 457h143l132 -351l218 351h140l-310 -454l-26 -253h-126zM213 748l-67 78l84 76l67 -76zM439 748l-68 78l84 76l68 -76z" />
    <glyph glyph-name="Zacute" unicode="&#x179;" horiz-adv-x="551" 
d="M236 737l-22 80l249 86l28 -102zM-22 0l10 92l401 508h-322l11 107h474l-9 -86l-404 -514h371l-11 -107h-521z" />
    <glyph glyph-name="zacute" unicode="&#x17a;" horiz-adv-x="446" 
d="M189 600l-37 84l245 139l45 -99zM-17 0l11 89l301 356h-240l13 101h385l-10 -87l-298 -359h262l-11 -100h-413z" />
    <glyph glyph-name="Zdotaccent" unicode="&#x17b;" horiz-adv-x="551" 
d="M-22 0l10 92l401 508h-322l11 107h474l-9 -86l-404 -514h371l-11 -107h-521zM326 757l-82 91l101 90l82 -90z" />
    <glyph glyph-name="zdotaccent" unicode="&#x17c;" horiz-adv-x="446" 
d="M-17 0l11 89l301 356h-240l13 101h385l-10 -87l-298 -359h262l-11 -100h-413zM275 629l-79 87l98 86l79 -86z" />
    <glyph glyph-name="Zcaron" unicode="&#x17d;" horiz-adv-x="551" 
d="M309 743l-171 82l42 85l140 -57l150 54l35 -82zM-22 0l10 92l401 508h-322l11 107h474l-9 -86l-404 -514h371l-11 -107h-521z" />
    <glyph glyph-name="zcaron" unicode="&#x17e;" horiz-adv-x="446" 
d="M263 602l-181 117l59 84l136 -86l151 86l47 -83zM-17 0l11 89l301 356h-240l13 101h385l-10 -87l-298 -359h262l-11 -100h-413z" />
    <glyph glyph-name="florin" unicode="&#x192;" horiz-adv-x="499" 
d="M-1 -42l7 101q4 0 25.5 1.5t27 2t23.5 2.5t24.5 5t20 8t19 12.5t14 17.5t12.5 23.5t6 30.5l9 75h-104l10 100h105l6 54q13 113 87 158t198 45l-4 -105q-83 -7 -107 -18q-47 -20 -54 -83l-6 -51h115l-10 -100h-116l-9 -77q-13 -106 -85 -154t-214 -48z" />
    <glyph glyph-name="uni01D4" unicode="&#x1d4;" horiz-adv-x="564" 
d="M171 -12q-63 0 -90.5 26t-27.5 94q0 24 3 52l41 386h123l-40 -375q-2 -22 -2 -30q0 -43 34 -43q50 0 145 68l41 380h122l-58 -546h-122l8 71q-100 -83 -177 -83zM310 602l-181 117l59 84l136 -86l151 86l47 -83z" />
    <glyph glyph-name="AEmacron" unicode="&#x1e2;" horiz-adv-x="925" 
d="M-69 0l455 707h519l-10 -100h-304l-21 -204h282l-11 -96h-281l-22 -207h326l-10 -100h-452l35 307h-179l-188 -307h-139zM314 402h134l23 205h-30zM485 769l10 101h308l-12 -101h-306z" />
    <glyph glyph-name="aemacron" unicode="&#x1e3;" horiz-adv-x="776" 
d="M152 -12q-127 0 -127 180q0 168 98.5 277.5t248.5 109.5q51 0 102 -9l-6 -44q66 59 150 59q83 0 121 -37.5t38 -97.5q0 -64 -45.5 -101.5t-121.5 -63.5l-153 -52q0 -2 -0.5 -8t-0.5 -7q0 -102 55 -102q58 0 167 56l43 -83q-123 -77 -237 -77q-116 0 -137 116
q-111 -116 -195 -116zM186 97q42 0 144 85l29 270h-23q-75 2 -131.5 -77.5t-56.5 -188.5q0 -89 38 -89zM468 305l135 53q58 24 58 62q0 20 -13.5 31t-33.5 11q-56 0 -94 -44.5t-52 -112.5zM341 648l11 105h290l-11 -105h-290z" />
    <glyph glyph-name="AEacute" unicode="&#x1fc;" horiz-adv-x="925" 
d="M566 737l-22 80l249 86l28 -102zM-69 0l455 707h519l-10 -100h-304l-21 -204h282l-11 -96h-281l-22 -207h326l-10 -100h-452l35 307h-179l-188 -307h-139zM314 402h134l23 205h-30z" />
    <glyph glyph-name="aeacute" unicode="&#x1fd;" horiz-adv-x="776" 
d="M394 600l-37 84l245 139l45 -99zM152 -12q-127 0 -127 180q0 168 98.5 277.5t248.5 109.5q51 0 102 -9l-6 -44q66 59 150 59q83 0 121 -37.5t38 -97.5q0 -64 -45.5 -101.5t-121.5 -63.5l-153 -52q0 -2 -0.5 -8t-0.5 -7q0 -102 55 -102q58 0 167 56l43 -83
q-123 -77 -237 -77q-116 0 -137 116q-111 -116 -195 -116zM186 97q42 0 144 85l29 270h-23q-75 2 -131.5 -77.5t-56.5 -188.5q0 -89 38 -89zM468 305l135 53q58 24 58 62q0 20 -13.5 31t-33.5 11q-56 0 -94 -44.5t-52 -112.5z" />
    <glyph glyph-name="Oslashacute" unicode="&#x1fe;" horiz-adv-x="797" 
d="M57 -38l-52 56l84 82q-59 79 -59 201q0 192 110 304.5t301 112.5q132 0 212 -62l88 85l51 -57l-86 -84q53 -78 53 -192q0 -195 -109 -307.5t-302 -112.5q-126 0 -205 59zM183 192l381 378q-52 46 -141 46q-128 0 -196 -85t-68 -218q0 -70 24 -121zM362 90
q130 0 198.5 85.5t68.5 220.5q0 60 -22 109l-376 -374q50 -41 131 -41zM334 737l-22 80l249 86l28 -102z" />
    <glyph glyph-name="oslashacute" unicode="&#x1ff;" horiz-adv-x="524" 
d="M29 -29l-41 34l64 75q-27 49 -27 112q0 163 78 265t211 102q70 0 116 -39l52 59l40 -37l-54 -64q33 -52 33 -119q0 -49 -8.5 -97.5t-29.5 -99t-52.5 -88.5t-82.5 -62t-115 -24q-78 0 -127 49zM152 196l204 236q-21 28 -67 28q-52 0 -93.5 -67.5t-44.5 -175.5q0 -17 1 -21
zM234 90q54 0 97 69t45 181q0 22 -2 30l-208 -242q20 -38 68 -38zM219 600l-37 84l245 139l45 -99z" />
    <glyph glyph-name="Scommaaccent" unicode="&#x218;" horiz-adv-x="518" 
d="M112 -265l36 207h117l-60 -207h-93zM197 -12q-121 0 -216 50l46 98q103 -41 179 -41q63 0 106.5 23.5t43.5 79.5q0 32 -31 58t-75 47.5t-87.5 46.5t-74.5 68t-31 100q0 97 72 147.5t176 50.5q113 0 203 -44l-45 -92q-74 31 -160 31q-122 0 -122 -81q0 -30 31 -56
t76 -48.5t89.5 -49t75.5 -69t31 -95.5q0 -112 -84 -168t-203 -56z" />
    <glyph glyph-name="scommaaccent" unicode="&#x219;" horiz-adv-x="443" 
d="M76 -265l36 207h117l-60 -207h-93zM175 -10q-103 0 -171 32l33 97q79 -27 148 -27q37 0 65 13.5t28 44.5q0 17 -15.5 34.5t-39 31.5t-50.5 33t-50.5 38.5t-39 48.5t-15.5 62q0 84 55 122t142 38q43 0 90.5 -9t72.5 -22l-31 -91q-80 23 -131 23q-80 0 -80 -51
q0 -21 22 -42.5t53 -42t62 -43.5t53 -56.5t22 -72.5q0 -49 -21.5 -82.5t-57.5 -49.5t-70.5 -22.5t-73.5 -6.5z" />
    <glyph glyph-name="uni021A" unicode="&#x21a;" horiz-adv-x="582" 
d="M166 -265l36 207h117l-60 -207h-93zM193 0l63 606h-231l11 101h589l-11 -101h-231l-64 -606h-126z" />
    <glyph glyph-name="uni021B" unicode="&#x21b;" horiz-adv-x="393" 
d="M90 -265l36 207h117l-60 -207h-93zM191 -12q-73 0 -103 34.5t-19 132.5l32 297h-80l11 94h81l11 112h122l-12 -112h151l-9 -94h-152l-33 -304q-4 -31 1.5 -42t25.5 -11q49 0 121 26l23 -92q-82 -41 -171 -41z" />
    <glyph glyph-name="dotlessj" unicode="&#x237;" horiz-adv-x="272" 
d="M-54 -220q-57 0 -104 20l32 97q45 -12 76 -12q46 0 66.5 25t26.5 84l58 552h123l-58 -553q-13 -122 -68.5 -167.5t-151.5 -45.5z" />
    <glyph glyph-name="schwa" unicode="&#x259;" horiz-adv-x="475" 
d="M300 560q151 0 151 -208q0 -71 -17.5 -135t-51.5 -116t-90 -83t-126 -31q-81 0 -122.5 40t-41.5 99q0 63 46 100.5t123 63.5l154 53q1 6 1 18q0 50 -12.5 73t-41.5 23q-58 0 -166 -58l-43 84q123 77 237 77zM315 246l-138 -52q-57 -22 -57 -63q0 -22 14.5 -34t34.5 -12
q57 0 94 44t52 117z" />
    <glyph glyph-name="circumflex" unicode="&#x2c6;" horiz-adv-x="512" 
d="M139 606l-51 87l221 123l188 -122l-62 -88l-140 83z" />
    <glyph glyph-name="caron" unicode="&#x2c7;" horiz-adv-x="512" 
d="M289 602l-181 117l59 84l136 -86l151 86l47 -83z" />
    <glyph glyph-name="breve" unicode="&#x2d8;" horiz-adv-x="496" 
d="M301 630q-115 0 -160 89l68 61q46 -53 105 -53q58 0 111 53l55 -63q-13 -16 -23 -26.5t-32 -27t-53.5 -25t-70.5 -8.5z" />
    <glyph glyph-name="dotaccent" unicode="&#x2d9;" horiz-adv-x="407" 
d="M155 629l-79 87l98 86l79 -86z" />
    <glyph glyph-name="ring" unicode="&#x2da;" horiz-adv-x="510" 
d="M334 597q-52 0 -87.5 25t-35.5 74q0 62 42.5 100t104.5 38q50 0 85.5 -28t35.5 -76q0 -62 -41 -97.5t-104 -35.5zM341 659q26 0 43 16t17 42q0 23 -14.5 36.5t-37.5 13.5q-27 0 -43.5 -15.5t-16.5 -42.5q0 -23 14.5 -36.5t37.5 -13.5z" />
    <glyph glyph-name="ogonek" unicode="&#x2db;" horiz-adv-x="522" 
d="M476 -140l14 -82q-51 -20 -101 -20q-56 0 -91 27t-35 79q0 108 205 210l40 -60q-53 -28 -94.5 -63t-41.5 -67q0 -33 40 -33q35 0 64 9z" />
    <glyph glyph-name="tilde" unicode="&#x2dc;" horiz-adv-x="512" 
d="M381 634q-23 0 -66 20.5t-64 20.5q-45 0 -83 -29l-47 68q60 63 138 63q29 0 69 -19t61 -19q35 0 89 29l39 -70q-64 -64 -136 -64z" />
    <glyph glyph-name="hungarumlaut" unicode="&#x2dd;" horiz-adv-x="517" 
d="M121 604l-51 71l206 164l61 -83zM355 604l-38 78l228 127l40 -96z" />
    <glyph glyph-name="uni0374" unicode="&#x374;" horiz-adv-x="147" 
d="M34 520q20 35 32 83.5t14.5 73t7.5 82.5h127q-6 -86 -22.5 -138t-57.5 -101h-101z" />
    <glyph glyph-name="uni0375" unicode="&#x375;" horiz-adv-x="201" 
d="M0 -122q20 35 32 84t14.5 73t7.5 82h124q-6 -85 -22.5 -137.5t-56.5 -101.5h-99z" />
    <glyph glyph-name="uni037E" unicode="&#x37e;" horiz-adv-x="281" 
d="M6 -132q33 56 44 127q2 10 14 130h131q-6 -68 -13 -102q-18 -91 -71 -155h-105zM88 420l14 126h138l-13 -126h-139z" />
    <glyph glyph-name="tonos" unicode="&#x384;" horiz-adv-x="490" 
d="M200 616l90 158h124l-117 -157z" />
    <glyph glyph-name="dieresistonos" unicode="&#x385;" horiz-adv-x="541" 
d="M76 625l-61 70l77 70l63 -70zM160 623l90 158h124l-116 -157zM417 625l-62 70l77 70l63 -70z" />
    <glyph glyph-name="Alphatonos" unicode="&#x386;" horiz-adv-x="647" 
d="M-39 539l90 158h124l-117 -157zM-54 0l352 707h167l158 -707h-130l-49 236h-256l-113 -236h-129zM235 331h189l-39 204l-14 98l-41 -98z" />
    <glyph glyph-name="anoteleia" unicode="&#x387;" horiz-adv-x="275" 
d="M135 291l-79 87l97 86l80 -86z" />
    <glyph glyph-name="Epsilontonos" unicode="&#x388;" horiz-adv-x="574" 
d="M-148 539l90 158h124l-117 -157zM46 0l75 707h429l-10 -100h-304l-21 -204h281l-10 -96h-281l-22 -207h327l-11 -100h-453z" />
    <glyph glyph-name="Etatonos" unicode="&#x389;" horiz-adv-x="757" 
d="M-147 541l90 158h124l-117 -157zM46 0l75 707h125l-31 -303h338l32 303h127l-74 -707h-127l33 306h-339l-33 -306h-126z" />
    <glyph glyph-name="Iotatonos" unicode="&#x38a;" horiz-adv-x="293" 
d="M-160 539l90 158h124l-117 -157zM46 0l75 707h125l-74 -707h-126z" />
    <glyph glyph-name="Omicrontonos" unicode="&#x38c;" horiz-adv-x="797" 
d="M-114 539l90 158h124l-117 -157zM352 -12q-149 0 -233 82.5t-84 230.5q0 192 110 304.5t300 112.5q150 0 234 -81t84 -229q0 -194 -109 -307t-302 -113zM366 90q131 0 199 85.5t68 220.5q0 102 -52.5 161t-152.5 59q-128 0 -196.5 -85t-68.5 -218q0 -102 51.5 -162.5
t151.5 -60.5z" />
    <glyph glyph-name="Upsilontonos" unicode="&#x38e;" horiz-adv-x="585" 
d="M-234 539l90 158h124l-117 -157zM188 0l26 250l-197 457h143l132 -351l218 351h140l-310 -454l-26 -253h-126z" />
    <glyph glyph-name="Omegatonos" unicode="&#x38f;" horiz-adv-x="816" 
d="M-108 540l90 158h124l-117 -157zM22 0l11 107h132q-45 27 -79.5 89.5t-34.5 137.5q0 172 114 278t290 106q154 0 237.5 -84t83.5 -221q0 -95 -47 -182.5t-118 -123.5h128l-11 -107h-289l11 101q87 41 141 124t54 176q0 96 -51 155.5t-156 59.5q-121 0 -191 -78.5
t-70 -196.5q0 -76 40.5 -139t101.5 -101l-11 -101h-286z" />
    <glyph glyph-name="iotadieresistonos" unicode="&#x390;" horiz-adv-x="272" 
d="M28 633l-61 70l77 70l63 -70zM112 631l90 158h124l-116 -157zM369 633l-62 70l77 70l63 -70zM44 0l57 546h123l-57 -546h-123z" />
    <glyph glyph-name="Alpha" unicode="&#x391;" horiz-adv-x="647" 
d="M-54 0l352 707h167l158 -707h-130l-49 236h-256l-113 -236h-129zM235 331h189l-39 204l-14 98l-41 -98z" />
    <glyph glyph-name="Beta" unicode="&#x392;" horiz-adv-x="624" 
d="M46 0l75 707h220q224 0 224 -162q0 -54 -26 -98.5t-74 -64.5l-1 -3q53 -12 85.5 -52.5t32.5 -95.5q0 -118 -80 -174.5t-205 -56.5h-251zM184 101h104q79 0 122 25t43 98q0 27 -11.5 45.5t-26.5 28t-41 14.5t-43.5 6t-44.5 1h-79zM216 409h80q70 0 104 26.5t34 92.5
q0 27 -10.5 45t-31 25.5t-38.5 9.5t-46 2h-71z" />
    <glyph glyph-name="Gamma" unicode="&#x393;" horiz-adv-x="495" 
d="M46 0l75 707h410l-11 -101h-284l-64 -606h-126z" />
    <glyph glyph-name="Delta" unicode="&#x394;" horiz-adv-x="662" 
d="M122 106h370l-95 428l-17 102l-44 -101zM-60 0l366 707h168l172 -707h-706z" />
    <glyph glyph-name="Epsilon" unicode="&#x395;" horiz-adv-x="574" 
d="M46 0l75 707h429l-10 -100h-304l-21 -204h281l-10 -96h-281l-22 -207h327l-11 -100h-453z" />
    <glyph glyph-name="Zeta" unicode="&#x396;" horiz-adv-x="551" 
d="M-22 0l10 92l401 508h-322l11 107h474l-9 -86l-404 -514h371l-11 -107h-521z" />
    <glyph glyph-name="Eta" unicode="&#x397;" horiz-adv-x="757" 
d="M46 0l75 707h125l-31 -303h338l32 303h127l-74 -707h-127l33 306h-339l-33 -306h-126z" />
    <glyph glyph-name="Theta" unicode="&#x398;" horiz-adv-x="797" 
d="M352 -12q-149 0 -233 82.5t-84 230.5q0 192 110 304.5t300 112.5q150 0 234 -81t84 -229q0 -194 -109 -307t-302 -113zM366 90q131 0 199 85.5t68 220.5q0 102 -52.5 161t-152.5 59q-128 0 -196.5 -85t-68.5 -218q0 -102 51.5 -162.5t151.5 -60.5zM256 307l10 96h279
l-10 -96h-279z" />
    <glyph glyph-name="Iota" unicode="&#x399;" horiz-adv-x="293" 
d="M46 0l75 707h125l-74 -707h-126z" />
    <glyph glyph-name="Kappa" unicode="&#x39a;" horiz-adv-x="628" 
d="M484 -34l-271 400l2 17l301 324h155l-314 -329l247 -354zM46 0l75 707h125l-74 -707h-126z" />
    <glyph glyph-name="Lambda" unicode="&#x39b;" horiz-adv-x="631" 
d="M-50 0l337 707h168l145 -707h-129l-99 536l-12 94l-38 -95l-244 -535h-128z" />
    <glyph glyph-name="Mu" unicode="&#x39c;" horiz-adv-x="898" 
d="M-45 0l244 707h151l44 -611l262 611h149l16 -707h-122l-4 533l-229 -533h-175l-39 536l-173 -536h-124z" />
    <glyph glyph-name="Nu" unicode="&#x39d;" horiz-adv-x="751" 
d="M46 0l75 707h158l245 -565l55 565h126l-75 -707h-164l-238 550l-56 -550h-126z" />
    <glyph glyph-name="Xi" unicode="&#x39e;" horiz-adv-x="608" 
d="M11 0l12 108h505l-12 -108h-505zM76 304l11 104h440l-11 -104h-440zM85 600l12 107h484l-12 -107h-484z" />
    <glyph glyph-name="Omicron" unicode="&#x39f;" horiz-adv-x="797" 
d="M352 -12q-149 0 -233 82.5t-84 230.5q0 192 110 304.5t300 112.5q150 0 234 -81t84 -229q0 -194 -109 -307t-302 -113zM366 90q131 0 199 85.5t68 220.5q0 102 -52.5 161t-152.5 59q-128 0 -196.5 -85t-68.5 -218q0 -102 51.5 -162.5t151.5 -60.5z" />
    <glyph glyph-name="Pi" unicode="&#x3a0;" horiz-adv-x="738" 
d="M46 0l75 707l571 -1l-74 -706h-126l63 602h-320l-63 -602h-126z" />
    <glyph glyph-name="Rho" unicode="&#x3a1;" horiz-adv-x="580" 
d="M42 0l74 707h253q102 0 165.5 -52.5t63.5 -152.5q0 -58 -19.5 -105.5t-53 -78t-79 -51.5t-94.5 -29.5t-103 -8.5h-39l14 100q42 0 73 3t65 13t55 26.5t35 46t14 70.5q0 61 -34.5 90.5t-94.5 29.5h-104l-64 -608h-127z" />
    <glyph glyph-name="Sigma" unicode="&#x3a3;" horiz-adv-x="585" 
d="M-6 0l10 93l225 263l-167 246l11 105h502l-11 -100h-360l165 -243l-220 -257h368l-12 -107h-511z" />
    <glyph glyph-name="Tau" unicode="&#x3a4;" horiz-adv-x="582" 
d="M193 0l63 606h-231l11 101h589l-11 -101h-231l-64 -606h-126z" />
    <glyph glyph-name="Upsilon" unicode="&#x3a5;" horiz-adv-x="585" 
d="M186 0l26 250l-197 457h143l132 -351l218 351h140l-310 -454l-26 -253h-126z" />
    <glyph glyph-name="Phi" unicode="&#x3a6;" horiz-adv-x="815" 
d="M307 0l9 85q-135 0 -214.5 71t-69.5 207q10 144 105.5 221t236.5 77l8 76h126l-8 -76q135 0 214 -71t69 -207q-10 -144 -105.5 -221t-235.5 -77l-9 -85h-126zM326 186l38 374q-86 0 -142.5 -51t-62.5 -143q-5 -86 41 -133t126 -47zM452 186q85 0 142 52t62 143
q7 86 -39.5 132.5t-127.5 46.5z" />
    <glyph glyph-name="Chi" unicode="&#x3a7;" horiz-adv-x="598" 
d="M-56 0l289 368l-175 339h143l116 -244l181 244h140l-265 -337l191 -370h-143l-132 273l-202 -273h-143z" />
    <glyph glyph-name="Psi" unicode="&#x3a8;" horiz-adv-x="752" 
d="M276 0l16 149q-265 28 -240 268l30 290h127l-30 -291q-13 -133 124 -160l47 451h126l-47 -450q145 30 160 181l28 269h122l-26 -265q-27 -261 -296 -293l-15 -149h-126z" />
    <glyph glyph-name="Omega" unicode="&#x3a9;" horiz-adv-x="816" 
d="M22 0l11 107h132q-45 27 -79.5 89.5t-34.5 137.5q0 172 114 278t290 106q154 0 237.5 -84t83.5 -221q0 -95 -47 -182.5t-118 -123.5h128l-11 -107h-289l11 101q87 41 141 124t54 176q0 96 -51 155.5t-156 59.5q-121 0 -191 -78.5t-70 -196.5q0 -76 40.5 -139t101.5 -101
l-11 -101h-286z" />
    <glyph glyph-name="Iotadieresis" unicode="&#x3aa;" horiz-adv-x="293" 
d="M75 748l-67 78l84 76l67 -76zM301 748l-68 78l84 76l68 -76zM46 0l75 707h125l-74 -707h-126z" />
    <glyph glyph-name="Upsilondieresis" unicode="&#x3ab;" horiz-adv-x="585" 
d="M217 748l-67 78l84 76l67 -76zM443 748l-68 78l84 76l68 -76zM186 0l26 250l-197 457h143l132 -351l218 351h140l-310 -454l-26 -253h-126z" />
    <glyph glyph-name="alphatonos" unicode="&#x3ac;" horiz-adv-x="539" 
d="M287 626l90 158h124l-117 -157zM157 -12q-129 0 -129 173q0 69 17 137t49 125.5t84 93t116 35.5q42 0 84 -34l3 27h114l-56 -545h-123l9 82q-99 -94 -168 -94zM190 97q46 0 145 86l26 240q-36 26 -72 26q-41 0 -73.5 -43t-48.5 -105.5t-16 -127.5q0 -76 39 -76z" />
    <glyph glyph-name="epsilontonos" unicode="&#x3ad;" horiz-adv-x="452" 
d="M225 624l90 158h124l-117 -157zM216 -12q-91 0 -142.5 39t-51.5 106q0 56 31.5 101t90.5 64q-34 11 -54.5 38t-20.5 62q0 68 58 115t161 47q88 0 152 -41l-36 -83q-56 26 -117 26q-98 0 -98 -70q0 -29 21 -41t47 -12h80l-10 -92h-76q-43 0 -72 -23.5t-29 -64.5
q0 -68 98 -68q63 0 142 38l38 -91q-96 -50 -212 -50z" />
    <glyph glyph-name="etatonos" unicode="&#x3ae;" horiz-adv-x="571" 
d="M292 626l90 158h124l-117 -157zM321 -220l63 591q3 23 3 38q0 19 -6 26.5t-24 7.5q-31 0 -151 -68l-40 -375h-122l58 546h122l-7 -71q117 85 187 85q60 0 84.5 -23t24.5 -81q0 -16 -4 -62l-65 -614h-123z" />
    <glyph glyph-name="iotatonos" unicode="&#x3af;" horiz-adv-x="272" 
d="M122 623l90 158h124l-117 -157zM44 0l57 546h123l-57 -546h-123z" />
    <glyph glyph-name="upsilondieresistonos" unicode="&#x3b0;" horiz-adv-x="552" 
d="M148 625l-61 70l77 70l63 -70zM232 623l90 158h124l-116 -157zM489 625l-62 70l77 70l63 -70zM236 -12q-187 0 -187 165q0 15 3 38l37 355h122l-36 -346q-2 -22 -2 -31q0 -41 17.5 -59t54.5 -18q97 0 110 121l35 333h122l-36 -334q-23 -224 -240 -224z" />
    <glyph glyph-name="alpha" unicode="&#x3b1;" horiz-adv-x="539" 
d="M157 -12q-129 0 -129 173q0 69 17 137t49 125.5t84 93t116 35.5q42 0 84 -34l3 27h114l-56 -545h-123l9 82q-99 -94 -168 -94zM190 97q46 0 145 86l26 240q-36 26 -72 26q-41 0 -73.5 -43t-48.5 -105.5t-16 -127.5q0 -76 39 -76z" />
    <glyph glyph-name="beta" unicode="&#x3b2;" horiz-adv-x="553" 
d="M17 -220l76 725q13 127 82 198.5t167 71.5q85 0 133 -37.5t48 -106.5q0 -77 -35.5 -132t-90.5 -79q128 -11 128 -137t-70.5 -210t-200.5 -84q-50 0 -92 17l-23 -226h-122zM260 87q64 0 102.5 52t38.5 128q0 54 -30.5 72.5t-85.5 19.5l-1 81q46 4 82.5 55.5t36.5 113.5
q0 65 -74 65q-49 0 -76.5 -41.5t-38.5 -138.5l-42 -391q46 -16 88 -16z" />
    <glyph glyph-name="gamma" unicode="&#x3b3;" horiz-adv-x="462" 
d="M109 -220l24 220l-111 546h132l46 -282l11 -120l48 119l46 94q39 81 39 155q0 12 -2 34h129q4 -15 4 -34q0 -76 -50 -174l-170 -339l-25 -219h-121z" />
    <glyph glyph-name="delta" unicode="&#x3b4;" horiz-adv-x="532" 
d="M221 -12q-87 0 -139.5 53.5t-52.5 150.5q0 110 54 189t138 108q-86 54 -86 122q0 81 59.5 122.5t141.5 41.5q94 0 182 -34l-33 -91q-17 6 -62.5 15t-87.5 9q-86 0 -86 -60q0 -18 15 -36.5t29 -27.5t42.5 -24.5t31.5 -17.5q25 -15 39.5 -25t40 -34.5t38.5 -59.5t13 -80
q0 -146 -78 -233.5t-199 -87.5zM240 90q60 0 97 68t37 142q0 57 -19.5 86.5t-59.5 54.5q-72 -30 -106 -96t-34 -146q0 -109 85 -109z" />
    <glyph glyph-name="epsilon" unicode="&#x3b5;" horiz-adv-x="452" 
d="M216 -12q-91 0 -142.5 39t-51.5 106q0 56 31.5 101t90.5 64q-34 11 -54.5 38t-20.5 62q0 68 58 115t161 47q88 0 152 -41l-36 -83q-56 26 -117 26q-98 0 -98 -70q0 -29 21 -41t47 -12h80l-10 -92h-76q-43 0 -72 -23.5t-29 -64.5q0 -68 98 -68q63 0 142 38l38 -91
q-96 -50 -212 -50z" />
    <glyph glyph-name="zeta" unicode="&#x3b6;" horiz-adv-x="452" 
d="M354 -159l-86 9q54 92 54 131q0 18 -13 18q-20 0 -65 -5t-65 -5q-74 0 -113 43.5t-39 114.5q0 79 30 157t81.5 142.5t104 114.5t111.5 93h-229l10 101h381l-10 -93q-62 -44 -118 -93.5t-111.5 -113.5t-89 -137t-33.5 -142q0 -45 17.5 -62t48.5 -17q22 0 73.5 6.5
t72.5 6.5q33 0 48 -21.5t15 -50.5q0 -42 -25.5 -102t-49.5 -95z" />
    <glyph glyph-name="eta" unicode="&#x3b7;" horiz-adv-x="571" 
d="M321 -220l63 591q3 23 3 38q0 19 -6 26.5t-24 7.5q-31 0 -151 -68l-40 -375h-122l58 546h122l-7 -71q117 85 187 85q60 0 84.5 -23t24.5 -81q0 -16 -4 -62l-65 -614h-123z" />
    <glyph glyph-name="theta" unicode="&#x3b8;" horiz-adv-x="526" 
d="M220 -12q-86 0 -132 65t-46 179q0 99 14 188.5t44.5 172.5t89.5 132.5t139 49.5q92 0 134 -66.5t42 -169.5q0 -72 -6.5 -140t-25.5 -145.5t-49 -134t-82.5 -94t-121.5 -37.5zM238 89q102 0 130 259h-197q-6 -53 -6 -137q0 -122 73 -122zM182 437h195q6 57 6 122
q0 117 -70 117q-98 0 -131 -239z" />
    <glyph glyph-name="iota" unicode="&#x3b9;" horiz-adv-x="272" 
d="M44 0l57 546h123l-57 -546h-123z" />
    <glyph glyph-name="kappa" unicode="&#x3ba;" horiz-adv-x="505" 
d="M44 0l57 546h123l-27 -254l195 254h136l-203 -255l167 -286l-132 -12l-164 285l-29 -278h-123z" />
    <glyph glyph-name="lambda" unicode="&#x3bb;" horiz-adv-x="501" 
d="M462 -15q-144 -3 -158 131l-24 188l-10 124l-48 -126l-127 -302h-135l250 546h39l-7 48q-6 40 -21.5 60t-55.5 20q-30 0 -78 -16l-12 89q68 28 124 28q83 0 116.5 -38.5t44.5 -124.5l65 -465q4 -24 15.5 -39t20.5 -18.5t23 -6.5z" />
    <glyph glyph-name="mugreek" unicode="&#x3bc;" horiz-adv-x="568" 
d="M20 -220l81 766h123l-40 -374q-5 -40 2.5 -55t30.5 -15q17 0 40.5 9t40 18.5t38 23.5t26.5 17l39 376h123l-58 -546h-122l8 71q-2 -1 -15.5 -11.5t-17.5 -14t-17.5 -13t-20 -13l-19.5 -10.5t-22.5 -10.5t-22 -6.5t-24.5 -4q-16 0 -28 3l-22 -211h-123z" />
    <glyph glyph-name="nu" unicode="&#x3bd;" horiz-adv-x="485" 
d="M111 0l-85 546h131l52 -435l118 246q40 83 40 155q0 18 -3 34h130q3 -11 3 -34q0 -78 -49 -174l-170 -338h-167z" />
    <glyph glyph-name="xi" unicode="&#x3be;" horiz-adv-x="460" 
d="M350 -159l-86 9q54 92 54 132q0 18 -14 18q-140 1 -209.5 41.5t-69.5 145.5q0 76 52.5 142t144.5 88q-115 50 -115 154q0 93 74 147t184 54q76 0 142 -25l-21 -100q-57 19 -119 19q-59 0 -98 -24t-39 -76q0 -45 43.5 -76t108.5 -34l-19 -89q-212 -32 -212 -163
q0 -60 46 -81.5t165 -21.5q34 0 48.5 -20t14.5 -48q0 -42 -25 -98.5t-50 -93.5z" />
    <glyph glyph-name="omicron" unicode="&#x3bf;" horiz-adv-x="533" 
d="M217 -12q-88 0 -138 57t-50 147q0 164 78 265.5t211 101.5q90 0 138.5 -57.5t48.5 -142.5q0 -49 -8 -97.5t-29 -98.5t-53 -88t-83 -62.5t-115 -24.5zM239 90q56 0 99 72t43 191q0 58 -22 82.5t-66 24.5q-55 0 -96.5 -73.5t-41.5 -185.5q0 -111 84 -111z" />
    <glyph glyph-name="pi" unicode="&#x3c0;" horiz-adv-x="569" 
d="M55 0l45 445h-65l11 101h528l-10 -101h-62l-45 -445h-124l45 445h-153l-46 -445h-124z" />
    <glyph glyph-name="rho" unicode="&#x3c1;" horiz-adv-x="544" 
d="M13 -220l46 442q35 338 268 338q84 0 131 -49t47 -146q0 -164 -70 -270t-204 -106q-38 0 -73 14l-22 -223h-123zM234 87q38 0 68.5 26.5t47 69.5t25 89.5t8.5 92.5q0 96 -71 96q-104 0 -129 -234l-14 -126q37 -14 65 -14z" />
    <glyph glyph-name="sigma1" unicode="&#x3c2;" horiz-adv-x="452" 
d="M356 -159l-86 9q54 92 54 131q0 18 -13 18q-21 0 -68 -5t-69 -5q-145 0 -145 204q0 99 32.5 181t99 134.5t155.5 52.5t141 -48l-57 -82q-43 30 -85 30q-45 0 -78.5 -26.5t-49.5 -68.5t-23.5 -83.5t-7.5 -83.5q0 -60 16 -81t44 -21q22 0 76.5 6.5t75.5 6.5q33 0 48 -21.5
t15 -50.5q0 -42 -25.5 -102t-49.5 -95z" />
    <glyph glyph-name="sigma" unicode="&#x3c3;" horiz-adv-x="573" 
d="M218 -12q-86 0 -137.5 55.5t-51.5 152.5q0 155 80.5 261t224.5 100l244 -11l-11 -98l-89 4q29 -44 29 -102q0 -51 -9.5 -100t-31.5 -97t-54.5 -84.5t-82.5 -58.5t-111 -22zM239 90q61 0 102.5 76t41.5 182q0 72 -34 109l-33 2q-52 3 -89.5 -36.5t-54.5 -96.5t-17 -120
q0 -116 84 -116z" />
    <glyph glyph-name="tau" unicode="&#x3c4;" horiz-adv-x="429" 
d="M123 0l47 446h-146l10 100h414l-10 -100h-146l-47 -446h-122z" />
    <glyph glyph-name="upsilon" unicode="&#x3c5;" horiz-adv-x="552" 
d="M236 -12q-187 0 -187 165q0 15 3 38l37 355h122l-36 -346q-2 -22 -2 -31q0 -41 17.5 -59t54.5 -18q97 0 110 121l35 333h122l-36 -334q-23 -224 -240 -224z" />
    <glyph glyph-name="phi" unicode="&#x3c6;" horiz-adv-x="667" 
d="M220 -220l22 213q-97 1 -155 59.5t-58 150.5q0 154 73.5 243t198.5 105l12 107h122l-12 -105q92 -2 153.5 -56t61.5 -147q0 -147 -72 -245.5t-202 -110.5l-22 -214h-122zM252 88l39 367q-46 -10 -78 -49.5t-45 -89t-13 -105.5q0 -51 24 -85t73 -38zM375 91
q67 18 103 90.5t36 161.5q0 51 -25.5 81t-75.5 33z" />
    <glyph glyph-name="chi" unicode="&#x3c7;" horiz-adv-x="479" 
d="M395 -231q-71 13 -99 45.5t-49 108.5l-37 133l-157 -276h-134l249 404l-70 219q-17 52 -66 60l27 102q71 -8 103 -39t49 -92l36 -123l130 235h134l-222 -365l70 -226q22 -72 69 -83z" />
    <glyph glyph-name="psi" unicode="&#x3c8;" horiz-adv-x="691" 
d="M226 -220l22 215q-106 10 -157 63t-39 172l34 316h120l-33 -309q-8 -72 14 -104.5t72 -38.5l60 564h122l-60 -563q50 8 79.5 44t38.5 118l31 289h121l-30 -288q-14 -133 -73 -193t-177 -70l-23 -215h-122z" />
    <glyph glyph-name="omega" unicode="&#x3c9;" horiz-adv-x="708" 
d="M183 -11q-69 0 -111.5 52t-42.5 144q0 105 36 193.5t129 167.5h123q-79 -66 -121.5 -158.5t-42.5 -191.5q0 -100 58 -100q30 0 50.5 33.5t26.5 91.5l15 139h120l-12 -134q-3 -33 -3 -48q0 -82 53 -82q29 0 49 24.5t28 63.5t11 68.5t3 59.5q0 141 -81 234h129
q77 -99 77 -222q0 -61 -11 -116t-35 -106.5t-69.5 -82t-107.5 -30.5q-42 0 -77.5 22.5t-44.5 70.5q-22 -47 -62.5 -70t-86.5 -23z" />
    <glyph glyph-name="iotadieresis" unicode="&#x3ca;" horiz-adv-x="272" 
d="M60 632l-71 80l88 79l71 -79zM277 632l-71 80l87 79l72 -79zM44 0l57 546h123l-57 -546h-123z" />
    <glyph glyph-name="upsilondieresis" unicode="&#x3cb;" horiz-adv-x="552" 
d="M196 632l-71 80l88 79l71 -79zM413 632l-71 80l87 79l72 -79zM236 -12q-187 0 -187 165q0 15 3 38l37 355h122l-36 -346q-2 -22 -2 -31q0 -41 17.5 -59t54.5 -18q97 0 110 121l35 333h122l-36 -334q-23 -224 -240 -224z" />
    <glyph glyph-name="omicrontonos" unicode="&#x3cc;" horiz-adv-x="533" 
d="M264 624l90 158h124l-117 -157zM217 -12q-88 0 -138 57t-50 147q0 164 78 265.5t211 101.5q90 0 138.5 -57.5t48.5 -142.5q0 -49 -8 -97.5t-29 -98.5t-53 -88t-83 -62.5t-115 -24.5zM239 90q56 0 99 72t43 191q0 58 -22 82.5t-66 24.5q-55 0 -96.5 -73.5t-41.5 -185.5
q0 -111 84 -111z" />
    <glyph glyph-name="upsilontonos" unicode="&#x3cd;" horiz-adv-x="552" 
d="M265 623l90 158h124l-117 -157zM236 -12q-187 0 -187 165q0 15 3 38l37 355h122l-36 -346q-2 -22 -2 -31q0 -41 17.5 -59t54.5 -18q97 0 110 121l35 333h122l-36 -334q-23 -224 -240 -224z" />
    <glyph glyph-name="omegatonos" unicode="&#x3ce;" horiz-adv-x="708" 
d="M344 623l90 158h124l-117 -157zM183 -11q-69 0 -111.5 52t-42.5 144q0 105 36 193.5t129 167.5h123q-79 -66 -121.5 -158.5t-42.5 -191.5q0 -100 58 -100q30 0 50.5 33.5t26.5 91.5l15 139h120l-12 -134q-3 -33 -3 -48q0 -82 53 -82q29 0 49 24.5t28 63.5t11 68.5t3 59.5
q0 141 -81 234h129q77 -99 77 -222q0 -61 -11 -116t-35 -106.5t-69.5 -82t-107.5 -30.5q-42 0 -77.5 22.5t-44.5 70.5q-22 -47 -62.5 -70t-86.5 -23z" />
    <glyph glyph-name="beta1" unicode="&#x3d0;" horiz-adv-x="531" 
d="M239 -12q-113 0 -157 78t-31 238l14 157q12 147 84.5 230.5t172.5 83.5q84 0 132 -38.5t48 -108.5q0 -106 -97 -178q48 -15 73 -58t25 -102q0 -125 -71 -213.5t-193 -88.5zM245 86q57 0 96 59.5t39 135.5q0 53 -17.5 75.5t-63.5 22.5q-39 0 -125 -37l-5 -57
q-21 -199 76 -199zM181 419q34 14 53 20q148 56 148 167q0 34 -20.5 51t-53.5 17q-102 0 -121 -200z" />
    <glyph glyph-name="uni03D8" unicode="&#x3d8;" horiz-adv-x="774" 
d="M266 -166l19 159q-223 48 -223 288q0 105 30.5 191t83 140.5t120 84t144.5 29.5q130 0 207 -72.5t77 -217.5q0 -179 -90 -297t-225 -142l-20 -163h-123zM360 102q104 0 168.5 91.5t64.5 231.5q0 91 -41 143t-126 52q-114 0 -175 -94.5t-61 -229.5q0 -95 44.5 -144.5
t125.5 -49.5z" />
    <glyph glyph-name="uni03D9" unicode="&#x3d9;" horiz-adv-x="582" 
d="M182 -209l23 231q-80 14 -123 68t-43 140q0 133 79 215.5t202 82.5q110 0 167 -56t57 -157q0 -111 -59.5 -192t-153.5 -97l-25 -235h-124zM277 118q71 0 105 53.5t34 135.5q0 121 -109 121q-74 0 -108 -55.5t-34 -134.5q0 -120 112 -120z" />
    <glyph glyph-name="uni03DA" unicode="&#x3da;" horiz-adv-x="545" 
d="M589 658l-53 -102q-75 45 -164 45q-93 0 -139 -60t-46 -162q0 -52 17 -87.5t44.5 -53t60 -28.5t64.5 -19.5t57.5 -21t39 -39t9.5 -67.5q-5 -53 -37 -95.5t-80 -69t-100.5 -41.5t-109.5 -21l-16 89q101 21 156.5 48t59.5 68q2 20 -13 32t-41.5 19.5t-58.5 15.5t-64 24
t-59 40.5t-44 70t-17 107.5q0 164 87.5 264t230.5 100q127 0 216 -56z" />
    <glyph glyph-name="uni03DB" unicode="&#x3db;" horiz-adv-x="528" 
d="M531 513l-53 -101q-69 33 -143 33q-81 0 -119.5 -55.5t-38.5 -148.5q0 -107 101 -120q77 -10 114.5 -40.5t31.5 -95.5q-8 -76 -86 -123t-200 -48l11 102q76 1 111.5 17t38.5 39q2 16 -12.5 23.5t-50.5 12.5q-187 16 -187 208q0 154 78 247t209 93q107 0 195 -43z" />
    <glyph glyph-name="uni03DC" unicode="&#x3dc;" horiz-adv-x="546" 
d="M46 0l75 707h425l-11 -100h-299l-23 -223h277l-10 -96h-277l-31 -288h-126z" />
    <glyph glyph-name="uni03DD" unicode="&#x3dd;" horiz-adv-x="446" 
d="M46 -220l51 501h-80l11 93h79l22 203q4 48 18 84t33.5 57.5t48 34.5t57 17.5t64.5 4.5q74 0 148 -28l-33 -96q-73 17 -116 17q-48 0 -71 -20.5t-27 -68.5l-22 -205h120l-10 -93h-119l-53 -501h-121z" />
    <glyph glyph-name="uni03DE" unicode="&#x3de;" horiz-adv-x="592" 
d="M199 -141l173 388h-362l232 486l146 16l-183 -389h355l-216 -467z" />
    <glyph glyph-name="uni03DF" unicode="&#x3df;" horiz-adv-x="611" 
d="M205 -116l165 370h-357l222 457l147 16l-174 -357h351l-207 -454z" />
    <glyph glyph-name="uni03E0" unicode="&#x3e0;" horiz-adv-x="740" 
d="M501 -77l-62 79q140 104 154 238v1l-390 -245l-47 83l423 268q-12 40 -39 76q-137 -88 -452 -289l-51 84l412 258q-50 24 -108 24q-88 0 -190 -56l-45 81q62 43 122 62t137 19q148 0 243 -96.5t95 -234.5q0 -111 -63.5 -206.5t-138.5 -145.5z" />
    <glyph glyph-name="uni03E1" unicode="&#x3e1;" horiz-adv-x="740" 
d="M501 -77l-62 79q140 104 154 238v1l-390 -245l-47 83l423 268q-12 40 -39 76q-137 -88 -452 -289l-51 84l412 258q-50 24 -108 24q-88 0 -190 -56l-45 81q62 43 122 62t137 19q148 0 243 -96.5t95 -234.5q0 -111 -63.5 -206.5t-138.5 -145.5z" />
    <glyph glyph-name="uni0400" unicode="&#x400;" horiz-adv-x="574" 
d="M46 0l75 707h429l-10 -100h-304l-21 -204h281l-10 -96h-281l-22 -207h327l-11 -100h-453zM430 735l-249 65l32 102l240 -86z" />
    <glyph glyph-name="afii10023" unicode="&#x401;" horiz-adv-x="574" 
d="M227 748l-67 78l84 76l67 -76zM453 748l-68 78l84 76l68 -76zM46 0l75 707h429l-10 -100h-304l-21 -204h281l-10 -96h-281l-22 -207h327l-11 -100h-453z" />
    <glyph glyph-name="afii10051" unicode="&#x402;" horiz-adv-x="759" 
d="M416 -220l-58 80q63 50 93 80q136 140 136 295q0 111 -118 111q-72 0 -154 -40l-32 -306h-125l62 606h-194l11 101h575l-11 -101h-256l-19 -197q100 35 184 35q106 0 155.5 -56.5t49.5 -153.5q0 -255 -299 -454z" />
    <glyph glyph-name="afii10052" unicode="&#x403;" horiz-adv-x="538" 
d="M248 737l-22 80l249 86l28 -102zM46 0l75 707h445l-11 -101h-319l-64 -606h-126z" />
    <glyph glyph-name="afii10053" unicode="&#x404;" horiz-adv-x="607" 
d="M373 -10q-154 0 -246 80.5t-92 233.5q0 195 108 302.5t303 107.5q101 0 179 -32l-39 -95q-68 22 -152 22q-105 0 -172 -55t-89 -150h349l-10 -98h-347q2 -20 5 -31q13 -87 74.5 -132t157.5 -45q95 0 158 19l21 -98q-88 -29 -208 -29z" />
    <glyph glyph-name="afii10054" unicode="&#x405;" horiz-adv-x="518" 
d="M197 -12q-121 0 -216 50l46 98q103 -41 179 -41q63 0 106.5 23.5t43.5 79.5q0 32 -31 58t-75 47.5t-87.5 46.5t-74.5 68t-31 100q0 97 72 147.5t176 50.5q113 0 203 -44l-45 -92q-74 31 -160 31q-122 0 -122 -81q0 -30 31 -56t76 -48.5t89.5 -49t75.5 -69t31 -95.5
q0 -112 -84 -168t-203 -56z" />
    <glyph glyph-name="afii10055" unicode="&#x406;" horiz-adv-x="293" 
d="M46 0l75 707h125l-74 -707h-126z" />
    <glyph glyph-name="afii10056" unicode="&#x407;" horiz-adv-x="293" 
d="M46 0l75 707h125l-74 -707h-126zM78 748l-67 78l84 76l67 -76zM304 748l-68 78l84 76l68 -76z" />
    <glyph glyph-name="afii10057" unicode="&#x408;" horiz-adv-x="299" 
d="M-64 -192l-38 90q92 49 126.5 101.5t44.5 151.5l58 556h127l-58 -554q-7 -63 -19.5 -109t-40 -92.5t-77.5 -82t-123 -61.5z" />
    <glyph glyph-name="afii10058" unicode="&#x409;" horiz-adv-x="990" 
d="M11 -22l-45 116q115 48 151 108q57 94 115 505h417l-63 -606q7 -1 70 -1q184 0 188 145q3 59 -33 86.5t-101 27.5h-89l9 100h106q111 0 177 -53.5t63 -153.5q-1 -72 -30.5 -123t-80 -78t-107.5 -39t-126 -12h-183l63 609h-178q-57 -294 -76 -363q-23 -80 -53 -126
q-56 -86 -194 -142z" />
    <glyph glyph-name="afii10059" unicode="&#x40a;" horiz-adv-x="994" 
d="M46 0l75 707h125l-29 -281h296l30 281h125l-62 -606q6 -1 66 -1q169 0 173 126q3 53 -30 76.5t-94 23.5h-87l10 100h103q108 0 172 -49.5t60 -142.5q-1 -66 -29 -113.5t-76 -72.5t-103 -36.5t-120 -11.5h-182l34 328h-296l-35 -328h-126z" />
    <glyph glyph-name="afii10060" unicode="&#x40b;" horiz-adv-x="770" 
d="M155 0l64 606h-194l11 101h575l-11 -101h-255l-20 -197q106 39 189 39q225 0 202 -217l-25 -231h-126l23 220q8 72 -26 99t-97 27q-74 0 -151 -40l-32 -306h-127z" />
    <glyph glyph-name="afii10061" unicode="&#x40c;" horiz-adv-x="628" 
d="M295 737l-22 80l249 86l28 -102zM484 -34l-271 400l2 17l301 324h155l-314 -329l247 -354zM46 0l75 707h125l-74 -707h-126z" />
    <glyph glyph-name="uni040D" unicode="&#x40d;" horiz-adv-x="773" 
d="M46 0l75 707h127l-45 -421l-14 -98l74 102l337 417h126l-74 -707h-127l44 421l14 99l-65 -90l-345 -430h-127zM524 735l-249 65l32 102l240 -86z" />
    <glyph glyph-name="afii10062" unicode="&#x40e;" horiz-adv-x="592" 
d="M327 746q-125 0 -186 97l67 65q48 -60 130 -60q79 0 143 60l61 -65q-79 -97 -215 -97zM133 -9l-37 108q60 18 92.5 38t56.5 62l16 26h-45l-194 482h140l149 -395l184 395h147l-272 -504q-27 -50 -51.5 -84t-42.5 -54t-45.5 -35t-44 -21t-53.5 -18z" />
    <glyph glyph-name="afii10145" unicode="&#x40f;" horiz-adv-x="749" 
d="M260 -153l16 153h-230l74 707h127l-63 -609h317l62 609h127l-73 -707h-221l-15 -153h-121z" />
    <glyph glyph-name="afii10017" unicode="&#x410;" horiz-adv-x="647" 
d="M-54 0l352 707h167l158 -707h-130l-49 236h-256l-113 -236h-129zM235 331h189l-39 204l-14 98l-41 -98z" />
    <glyph glyph-name="afii10018" unicode="&#x411;" horiz-adv-x="630" 
d="M46 0l74 707h456l-10 -108h-331l-52 -498q7 -1 73 -1q191 0 195 138q3 58 -36 82.5t-107 24.5h-93l10 100h109q114 0 183.5 -50.5t65.5 -149.5q-5 -245 -352 -245h-185z" />
    <glyph glyph-name="afii10019" unicode="&#x412;" horiz-adv-x="624" 
d="M46 0l75 707h220q224 0 224 -162q0 -54 -26 -98.5t-74 -64.5l-1 -3q53 -12 85.5 -52.5t32.5 -95.5q0 -118 -80 -174.5t-205 -56.5h-251zM184 101h104q79 0 122 25t43 98q0 27 -11.5 45.5t-26.5 28t-41 14.5t-43.5 6t-44.5 1h-79zM216 409h80q70 0 104 26.5t34 92.5
q0 27 -10.5 45t-31 25.5t-38.5 9.5t-46 2h-71z" />
    <glyph glyph-name="afii10020" unicode="&#x413;" horiz-adv-x="538" 
d="M46 0l75 707h445l-11 -101h-319l-64 -606h-126z" />
    <glyph glyph-name="afii10021" unicode="&#x414;" horiz-adv-x="750" 
d="M-38 -153l26 251h64q59 89 95 179q44 112 96 430h420l-63 -609h96l-26 -251h-120l15 153h-468l-15 -153h-120zM192 98h281l52 508h-183q-44 -242 -78 -347q-24 -68 -72 -161z" />
    <glyph glyph-name="afii10022" unicode="&#x415;" horiz-adv-x="574" 
d="M46 0l75 707h429l-10 -100h-304l-21 -204h281l-10 -96h-281l-22 -207h327l-11 -100h-453z" />
    <glyph glyph-name="afii10024" unicode="&#x416;" horiz-adv-x="885" 
d="M67 -34l-121 59l293 362l-198 320h142l190 -325l-3 -23zM741 -34l-235 393l3 20l261 328h155l-278 -333l215 -349zM338 0l74 707h125l-73 -707h-126z" />
    <glyph glyph-name="afii10025" unicode="&#x417;" horiz-adv-x="533" 
d="M201 -12q-127 0 -218 56l46 98q90 -46 179 -46q62 0 103.5 28t44.5 83q4 101 -150 101h-78l11 98h78q62 0 103 29.5t43 80.5q2 46 -28 71t-85 25q-56 0 -150 -34l-33 90q100 48 207 48q110 0 164 -50t52 -127q-3 -67 -38.5 -110t-77.5 -64v-2q114 -42 110 -159
q-3 -88 -73 -152t-210 -64z" />
    <glyph glyph-name="afii10026" unicode="&#x418;" horiz-adv-x="773" 
d="M46 0l75 707h127l-45 -421l-14 -98l74 102l337 417h126l-74 -707h-127l44 421l14 99l-65 -90l-345 -430h-127z" />
    <glyph glyph-name="afii10027" unicode="&#x419;" horiz-adv-x="773" 
d="M46 0l75 707h127l-45 -421l-14 -98l74 102l337 417h126l-74 -707h-127l44 421l14 99l-65 -90l-345 -430h-127zM430 746q-125 0 -186 97l67 65q48 -60 130 -60q79 0 143 60l61 -65q-79 -97 -215 -97z" />
    <glyph glyph-name="afii10028" unicode="&#x41a;" horiz-adv-x="628" 
d="M484 -34l-271 400l2 17l301 324h155l-314 -329l247 -354zM46 0l75 707h125l-74 -707h-126z" />
    <glyph glyph-name="afii10029" unicode="&#x41b;" horiz-adv-x="695" 
d="M11 -22l-45 116q115 48 151 108q57 94 115 505h417l-74 -707h-126l63 609h-178q-57 -294 -76 -363q-23 -80 -53 -126q-56 -86 -194 -142z" />
    <glyph glyph-name="afii10030" unicode="&#x41c;" horiz-adv-x="898" 
d="M-45 0l244 707h151l44 -611l262 611h149l16 -707h-122l-4 533l-229 -533h-175l-39 536l-173 -536h-124z" />
    <glyph glyph-name="afii10031" unicode="&#x41d;" horiz-adv-x="757" 
d="M46 0l75 707h125l-31 -303h338l32 304h127l-74 -708h-127l33 306h-339l-33 -306h-126z" />
    <glyph glyph-name="afii10032" unicode="&#x41e;" horiz-adv-x="797" 
d="M352 -12q-149 0 -233 82.5t-84 230.5q0 192 110 304.5t300 112.5q150 0 234 -81t84 -229q0 -194 -109 -307t-302 -113zM366 90q131 0 199 85.5t68 220.5q0 102 -52.5 161t-152.5 59q-128 0 -196.5 -85t-68.5 -218q0 -102 51.5 -162.5t151.5 -60.5z" />
    <glyph glyph-name="afii10033" unicode="&#x41f;" horiz-adv-x="747" 
d="M46 0l74 707h580l-73 -707h-126l63 601h-329l-63 -601h-126z" />
    <glyph glyph-name="afii10034" unicode="&#x420;" horiz-adv-x="580" 
d="M42 0l74 707h253q102 0 165.5 -52.5t63.5 -152.5q0 -58 -19.5 -105.5t-53 -78t-79 -51.5t-94.5 -29.5t-103 -8.5h-39l14 100q42 0 73 3t65 13t55 26.5t35 46t14 70.5q0 61 -34.5 90.5t-94.5 29.5h-104l-64 -608h-127z" />
    <glyph glyph-name="afii10035" unicode="&#x421;" horiz-adv-x="607" 
d="M373 -10q-154 0 -246 80.5t-92 233.5q0 195 108 302.5t303 107.5q101 0 179 -32l-39 -95q-68 22 -152 22q-128 0 -199 -79t-71 -209q0 -109 64.5 -166t173.5 -57q95 0 158 19l21 -98q-88 -29 -208 -29z" />
    <glyph glyph-name="afii10036" unicode="&#x422;" horiz-adv-x="582" 
d="M193 0l63 606h-231l11 101h589l-11 -101h-231l-64 -606h-126z" />
    <glyph glyph-name="afii10037" unicode="&#x423;" horiz-adv-x="592" 
d="M133 -9l-37 108q60 18 92.5 38t56.5 62l16 26h-45l-194 482h140l149 -395l184 395h147l-272 -504q-27 -50 -51.5 -84t-42.5 -54t-45.5 -35t-44 -21t-53.5 -18z" />
    <glyph glyph-name="afii10038" unicode="&#x424;" horiz-adv-x="815" 
d="M307 0l9 85q-135 0 -214.5 71t-69.5 207q10 144 105.5 221t236.5 77l8 76h126l-8 -76q135 0 214 -71t69 -207q-10 -144 -105.5 -221t-235.5 -77l-9 -85h-126zM326 186l38 374q-86 0 -142.5 -51t-62.5 -143q-5 -86 41 -133t126 -47zM452 186q85 0 142 52t62 143
q7 86 -39.5 132.5t-127.5 46.5z" />
    <glyph glyph-name="afii10039" unicode="&#x425;" horiz-adv-x="598" 
d="M-56 0l289 368l-175 339h143l116 -244l181 244h140l-265 -337l191 -370h-143l-132 273l-202 -273h-143z" />
    <glyph glyph-name="afii10040" unicode="&#x426;" horiz-adv-x="776" 
d="M577 -153l16 153h-547l74 707h127l-63 -609h317l62 609h127l-64 -609h97l-26 -251h-120z" />
    <glyph glyph-name="afii10041" unicode="&#x427;" horiz-adv-x="668" 
d="M422 0l32 301q-91 -35 -188 -35q-228 0 -204 213l24 228h126l-23 -217q-4 -38 4 -63.5t26.5 -38.5t40 -18.5t50.5 -5.5q76 0 153 40l32 303h127l-73 -707h-127z" />
    <glyph glyph-name="afii10042" unicode="&#x428;" horiz-adv-x="997" 
d="M46 0l74 707h127l-63 -609h225l63 609h127l-63 -609h225l63 609h127l-73 -707h-832z" />
    <glyph glyph-name="afii10043" unicode="&#x429;" horiz-adv-x="1037" 
d="M838 -153l16 153h-808l74 707h127l-63 -609h225l63 609h127l-63 -609h225l63 609h127l-63 -609h96l-26 -251h-120z" />
    <glyph glyph-name="afii10044" unicode="&#x42a;" horiz-adv-x="687" 
d="M146 0l64 606h-196l11 101h321l-63 -606q7 -1 70 -1q184 0 188 145q3 59 -33 86.5t-101 27.5h-92l10 100h107q112 0 178 -53.5t63 -153.5q-1 -72 -30.5 -123t-80 -78t-108 -39t-126.5 -12h-182z" />
    <glyph glyph-name="afii10045" unicode="&#x42b;" horiz-adv-x="883" 
d="M46 0l74 707h126l-63 -606q7 -1 70 -1q184 0 188 145q3 59 -33 86.5t-101 27.5h-92l10 100h107q112 0 178 -53.5t63 -153.5q-1 -72 -30.5 -123t-80 -78t-108 -39t-126.5 -12h-182zM637 0l74 707h125l-74 -707h-125z" />
    <glyph glyph-name="afii10046" unicode="&#x42c;" horiz-adv-x="587" 
d="M46 0l74 707h126l-63 -606q7 -1 70 -1q184 0 188 145q3 59 -33 86.5t-101 27.5h-92l10 100h107q112 0 178 -53.5t63 -153.5q-1 -72 -30.5 -123t-80 -78t-108 -39t-126.5 -12h-182z" />
    <glyph glyph-name="afii10047" unicode="&#x42d;" horiz-adv-x="633" 
d="M189 -10q-126 0 -199 44l41 93q86 -36 168 -36q104 0 175.5 56t87.5 159h-336l11 98h334q-1 75 -31.5 124t-77 68t-108.5 19q-90 0 -162 -35l-36 91q100 45 212 45q169 0 254 -82.5t80 -237.5q-5 -186 -112.5 -296t-300.5 -110z" />
    <glyph glyph-name="afii10048" unicode="&#x42e;" horiz-adv-x="1082" 
d="M637 -12q-134 0 -216 69t-97 193q-4 20 -4 56h-115l-33 -306h-126l75 707h125l-31 -303h114q28 147 133 230.5t268 83.5q150 0 234 -81t84 -229q0 -194 -109 -307t-302 -113zM651 90q131 0 199 85.5t68 220.5q0 103 -52 161.5t-153 58.5q-128 0 -196.5 -85t-68.5 -218
q0 -102 51.5 -162.5t151.5 -60.5z" />
    <glyph glyph-name="afii10049" unicode="&#x42f;" horiz-adv-x="650" 
d="M96 -33l-117 57l217 278q-116 43 -116 166q0 112 78.5 175.5t193.5 63.5h252l-72 -707h-128l28 273h-74q-21 0 -32 1zM358 365h84l25 242h-101q-72 0 -112.5 -36t-40.5 -96q0 -110 145 -110z" />
    <glyph glyph-name="afii10065" unicode="&#x430;" horiz-adv-x="539" 
d="M157 -12q-129 0 -129 173q0 159 97 275t250 116q62 0 120 -10l-56 -542h-123l9 82q-99 -94 -168 -94zM190 97q46 0 145 86l28 265q-4 2 -19 2q-82 0 -137.5 -84t-55.5 -193q0 -76 39 -76z" />
    <glyph glyph-name="afii10066" unicode="&#x431;" horiz-adv-x="532" 
d="M211 -11q-82 0 -131 50.5t-49 131.5q0 142 37.5 278.5t97.5 209.5q48 58 331 112l22 -109q-17 -4 -84 -15.5t-115 -24.5t-72 -32q-27 -22 -57 -131q99 64 178 64q68 0 101 -42t33 -135q0 -144 -84.5 -250.5t-207.5 -106.5zM232 91q48 0 82.5 39t49 92t14.5 112
q0 51 -14 69t-42 18q-30 0 -74 -21.5t-79 -47.5q-13 -81 -13 -153q0 -108 76 -108z" />
    <glyph glyph-name="afii10067" unicode="&#x432;" horiz-adv-x="506" 
d="M225 -12q-103 0 -149 53.5t-46 134.5q0 69 19.5 136.5t56 123.5t94.5 90.5t129 34.5q76 0 110.5 -37t34.5 -90q0 -83 -90 -129q32 -13 54 -43.5t22 -75.5q0 -89 -69 -143.5t-166 -54.5zM230 85q51 0 82 29.5t31 71.5q0 52 -55 74l-136 -45q0 -1 -0.5 -12.5t-0.5 -13.5
q0 -104 79 -104zM163 305l120 44q72 26 72 71q0 20 -12.5 31.5t-33.5 11.5q-54 0 -93 -45.5t-53 -112.5z" />
    <glyph glyph-name="afii10068" unicode="&#x433;" horiz-adv-x="431" 
d="M167 -10q-65 0 -107 30t-42 93q0 56 41 101.5t112 95.5q84 57 101.5 75.5t17.5 33.5q0 39 -44 39q-52 0 -138 -50l-40 90q92 60 210 60q54 0 93 -31t39 -90q0 -33 -13 -62t-40 -56t-48.5 -43.5t-58.5 -41.5q-81 -54 -97 -74q-14 -16 -14 -29q0 -39 45 -39q57 0 165 65
l44 -93q-46 -32 -108.5 -53t-117.5 -21z" />
    <glyph glyph-name="afii10069" unicode="&#x434;" horiz-adv-x="530" 
d="M222 -12q-84 0 -138.5 54t-54.5 147q0 83 22 148.5t57.5 103.5t77.5 57t86 19q49 0 107 -34q-10 160 -127 160q-34 0 -104 -19l-14 100q77 25 161 25q91 0 149 -72.5t58 -232.5q0 -41 -5 -85.5t-16 -98t-32.5 -100.5t-50.5 -86.5t-74.5 -62.5t-101.5 -23zM231 89
q56 0 98.5 84t43.5 202q-17 19 -47.5 30.5t-51.5 11.5q-56 0 -88 -51t-32 -152q0 -125 77 -125z" />
    <glyph glyph-name="afii10070" unicode="&#x435;" horiz-adv-x="475" 
d="M180 -12q-151 0 -151 208q0 71 17.5 135t51.5 116t90 83t126 31q81 0 122.5 -40t41.5 -99q0 -63 -46 -100.5t-123 -63.5l-154 -53q-1 -6 -1 -18q0 -50 12.5 -73t41.5 -23q58 0 166 58l43 -84q-123 -77 -237 -77zM165 302l138 52q57 22 57 63q0 22 -14.5 34t-34.5 12
q-57 0 -94 -44t-52 -117z" />
    <glyph glyph-name="afii10072" unicode="&#x436;" horiz-adv-x="743" 
d="M101 -7l-138 12l227 292l-156 249h132l147 -260l27 260h122l-28 -262l198 262h136l-204 -256l164 -285l-133 -12l-162 281l-28 -274h-122l28 271z" />
    <glyph glyph-name="afii10073" unicode="&#x437;" horiz-adv-x="437" 
d="M161 -10q-97 0 -165 28l32 97q64 -21 119 -21q62 0 91 20t29 50q0 65 -134 72l-10 79q153 34 153 94q0 46 -79 46q-61 0 -117 -16l-26 90q65 30 160 30q83 0 134 -30t51 -95q0 -90 -111 -140q102 -27 102 -126q0 -82 -63.5 -130t-165.5 -48z" />
    <glyph glyph-name="afii10074" unicode="&#x438;" horiz-adv-x="564" 
d="M171 -12q-73 0 -99 36.5t-16 135.5l41 386h123l-40 -375q-5 -41 2 -57t30 -16q50 0 145 68l41 380h122l-58 -546h-122l8 71q-100 -83 -177 -83z" />
    <glyph glyph-name="afii10075" unicode="&#x439;" horiz-adv-x="564" 
d="M171 -12q-73 0 -99 36.5t-16 135.5l41 386h123l-40 -375q-5 -41 2 -57t30 -16q50 0 145 68l41 380h122l-58 -546h-122l8 71q-100 -83 -177 -83z" />
    <glyph glyph-name="afii10076" unicode="&#x43a;" horiz-adv-x="505" 
d="M44 0l57 546h123l-28 -258l197 258h136l-204 -256l164 -285l-133 -12l-161 283l-29 -276h-122z" />
    <glyph glyph-name="afii10077" unicode="&#x43b;" horiz-adv-x="458" 
d="M-7 0q-4 13 -4 33q0 77 50 175l168 338h181l36 -546h-131l-11 429h-14l-111 -240q-39 -85 -39 -156q0 -23 2 -33h-127z" />
    <glyph glyph-name="afii10078" unicode="&#x43c;" horiz-adv-x="753" 
d="M4 0q-4 13 -4 33q0 72 38 175l128 338h168l33 -363l160 363h184l-57 -546h-123l45 435l-192 -435h-124l-25 435l-76 -246q-28 -93 -28 -156q0 -13 2 -33h-129z" />
    <glyph glyph-name="afii10079" unicode="&#x43d;" horiz-adv-x="568" 
d="M44 0l58 546h123l-24 -216l180 14l21 202h123l-59 -546h-122l25 236l-179 -14l-24 -222h-122z" />
    <glyph glyph-name="afii10080" unicode="&#x43e;" horiz-adv-x="533" 
d="M217 -12q-88 0 -138 57t-50 147q0 164 78 265.5t211 101.5q90 0 138.5 -57.5t48.5 -142.5q0 -49 -8 -97.5t-29 -98.5t-53 -88t-83 -62.5t-115 -24.5zM239 90q56 0 99 72t43 191q0 58 -22 82.5t-66 24.5q-55 0 -96.5 -73.5t-41.5 -185.5q0 -111 84 -111z" />
    <glyph glyph-name="afii10081" unicode="&#x43f;" horiz-adv-x="571" 
d="M44 0l58 546h122l-7 -71q117 85 187 85q72 0 93.5 -35.5t11.5 -130.5l-42 -394h-123l40 371q6 41 1 56.5t-28 15.5q-31 0 -151 -68l-40 -375h-122z" />
    <glyph glyph-name="afii10082" unicode="&#x440;" horiz-adv-x="542" 
d="M21 -220l80 766h123l-6 -53q79 59 155 59q139 0 139 -170q0 -68 -16.5 -134t-50 -125.5t-94 -96t-138.5 -36.5q-26 0 -47 3l-23 -213h-122zM219 88q46 0 81 30.5t53.5 77.5t27.5 94.5t9 90.5q0 69 -49 69q-43 0 -133 -51l-32 -306q27 -5 43 -5z" />
    <glyph glyph-name="afii10083" unicode="&#x441;" horiz-adv-x="446" 
d="M184 -12q-155 0 -155 199q0 158 77 266t211 108q87 0 141 -48l-57 -82q-45 30 -85 30q-45 0 -78 -26t-50 -67.5t-24.5 -83t-7.5 -81.5q0 -52 12 -80.5t32 -28.5q60 0 164 52l40 -85q-40 -24 -58.5 -34t-66 -24.5t-95.5 -14.5z" />
    <glyph glyph-name="afii10084" unicode="&#x442;" horiz-adv-x="850" 
d="M44 0l58 546h122l-7 -70l16 11q16 11 20 14t20 13.5t24 14.5l23 11.5t26 10.5t24 6t25 3q53 0 76.5 -18.5t28.5 -62.5q115 81 184 81q72 0 93 -35t11 -131l-42 -394h-122l40 371q5 41 0.5 56.5t-27.5 15.5q-12 0 -34 -8.5t-40 -18.5t-40 -22t-26 -14l-40 -380h-123
l40 371q6 41 1.5 56t-28.5 15q-12 0 -34 -9t-40 -19t-40.5 -23.5t-26.5 -15.5l-40 -375h-122z" />
    <glyph glyph-name="afii10085" unicode="&#x443;" horiz-adv-x="485" 
d="M38 -220l111 220h-41l-82 546h131l51 -435l119 246q40 80 40 155q0 18 -3 34h131q3 -17 3 -34q0 -74 -49 -174l-282 -558h-129z" />
    <glyph glyph-name="afii10086" unicode="&#x444;" horiz-adv-x="731" 
d="M253 -220l22 208q-110 2 -178 60.5t-68 160.5q0 158 80 251.5t225 97.5l21 197h123l-21 -197q109 -1 177 -59.5t68 -160.5q0 -158 -80.5 -251.5t-224.5 -97.5l-22 -209h-122zM285 90l39 370q-73 0 -121 -63.5t-48 -171.5q0 -131 130 -135zM407 87q73 0 121 63.5t48 171.5
q0 132 -130 135z" />
    <glyph glyph-name="afii10087" unicode="&#x445;" horiz-adv-x="481" 
d="M-48 0l222 284l-125 262h132l74 -162l124 162h129l-203 -263l132 -283h-133l-81 182l-138 -182h-133z" />
    <glyph glyph-name="afii10088" unicode="&#x446;" horiz-adv-x="602" 
d="M424 -137l14 137q-49 1 -67 16.5t-23 54.5q-100 -83 -177 -83q-73 0 -99 36.5t-16 135.5l41 386h123l-40 -375q-5 -41 2 -57t30 -16q50 0 145 68l41 380h122l-42 -394q-4 -35 6 -46.5t39 -12.5h41l-24 -230h-116z" />
    <glyph glyph-name="afii10089" unicode="&#x447;" horiz-adv-x="536" 
d="M313 0l26 248q-96 -77 -175 -77q-74 0 -97.5 36t-12.5 138l21 201h123l-21 -192q-5 -42 1.5 -57t30.5 -15q35 0 140 61l21 203h122l-57 -546h-122z" />
    <glyph glyph-name="afii10090" unicode="&#x448;" horiz-adv-x="819" 
d="M157 -14q-67 0 -89 36.5t-11 129.5l55 394h123l-54 -370q-4 -43 1 -57.5t27 -14.5q37 0 127 62l45 380h123l-46 -370q-5 -43 0 -57.5t27 -14.5q33 0 128 67l40 375h122l-57 -546h-123l7 70q-2 -1 -17.5 -13.5t-21.5 -16.5t-21.5 -15t-25.5 -16t-25 -11.5t-29 -9t-28 -2.5
q-51 0 -74 18.5t-28 62.5q-108 -81 -175 -81z" />
    <glyph glyph-name="afii10091" unicode="&#x449;" horiz-adv-x="858" 
d="M680 -137l14 137q-49 1 -67.5 16.5t-23.5 53.5q-2 -1 -21 -16t-26 -20t-26 -17t-31.5 -16.5t-30.5 -9.5t-34 -5q-51 0 -74 18.5t-28 62.5q-108 -81 -175 -81t-89 36.5t-11 129.5l55 394h123l-54 -370q-4 -43 1 -57.5t27 -14.5q37 0 127 62l45 380h123l-46 -370
q-5 -43 0 -57.5t27 -14.5q33 0 128 67l40 375h122l-41 -394q-4 -35 6 -46.5t39 -12.5h41l-24 -230h-116z" />
    <glyph glyph-name="afii10092" unicode="&#x44a;" horiz-adv-x="541" 
d="M241 -12q-67 0 -112 36.5t-45 113.5q0 144 130 307h-197l13 101h331l17 -43q-66 -70 -102 -138q63 38 116 38q60 0 90 -38t30 -103q0 -119 -79.5 -196.5t-191.5 -77.5zM270 84q47 0 83.5 43.5t36.5 115.5q0 28 -13.5 43t-35.5 15q-44 0 -112 -45q-20 -67 -20 -104
q0 -68 61 -68z" />
    <glyph glyph-name="afii10093" unicode="&#x44b;" horiz-adv-x="743" 
d="M207 -12q-90 0 -166 31l76 527h123l-28 -200q88 57 151 57q60 0 91 -36.5t31 -104.5q0 -114 -78 -194t-200 -80zM225 86q54 0 96 42.5t42 113.5q0 59 -51 59q-36 0 -114 -47l-24 -161q19 -7 51 -7zM520 0l57 546h123l-57 -546h-123z" />
    <glyph glyph-name="afii10094" unicode="&#x44c;" horiz-adv-x="514" 
d="M207 -12q-90 0 -166 31l76 527h123l-28 -200q88 57 151 57q60 0 91 -36.5t31 -104.5q0 -114 -78 -194t-200 -80zM225 86q54 0 96 42.5t42 113.5q0 59 -51 59q-36 0 -114 -47l-24 -161q19 -7 51 -7z" />
    <glyph glyph-name="afii10095" unicode="&#x44d;" horiz-adv-x="458" 
d="M142 -12q-87 0 -139 50l53 85q54 -34 95 -34q51 0 86.5 41t52.5 108h-154l6 84h160q1 5 1 26q0 55 -17 81.5t-60 26.5q-53 0 -133 -26l-29 90q92 41 178 41q92 0 140 -52.5t48 -142.5q0 -74 -18.5 -141t-53 -120.5t-90.5 -85t-126 -31.5z" />
    <glyph glyph-name="afii10096" unicode="&#x44e;" horiz-adv-x="785" 
d="M469 -12q-89 0 -139 57t-50 147q0 4 0.5 19t0.5 18l-91 -7l-24 -222h-122l58 546h123l-24 -216l99 8q29 103 99.5 162t169.5 59q91 0 139 -57.5t48 -142.5q0 -49 -8 -97.5t-29 -98.5t-52.5 -88t-82.5 -62.5t-115 -24.5zM490 90q56 0 99 72t43 191q0 58 -22 82.5t-65 24.5
q-55 0 -97 -73.5t-42 -185.5q0 -111 84 -111z" />
    <glyph glyph-name="afii10097" unicode="&#x44f;" horiz-adv-x="529" 
d="M118 -7l-135 12l170 210q-83 43 -83 128q0 24 5 48.5t22.5 55.5t45.5 54.5t79 39.5t118 16q85 0 146 -24l-55 -533h-122l48 459q-24 3 -37 3q-53 0 -89.5 -28t-36.5 -83q0 -26 12 -45.5t33.5 -31t36 -16.5t36.5 -10z" />
    <glyph glyph-name="uni0450" unicode="&#x450;" horiz-adv-x="475" 
d="M180 -12q-151 0 -151 208q0 71 17.5 135t51.5 116t90 83t126 31q81 0 122.5 -40t41.5 -99q0 -63 -46 -100.5t-123 -63.5l-154 -53q-1 -6 -1 -18q0 -50 12.5 -73t41.5 -23q58 0 166 58l43 -84q-123 -77 -237 -77zM165 302l138 52q57 22 57 63q0 22 -14.5 34t-34.5 12
q-57 0 -94 -44t-52 -117zM368 598l-239 121l52 101l231 -137z" />
    <glyph glyph-name="afii10071" unicode="&#x451;" horiz-adv-x="475" 
d="M200 632l-71 80l88 79l71 -79zM417 632l-71 80l87 79l72 -79zM180 -12q-151 0 -151 208q0 71 17.5 135t51.5 116t90 83t126 31q81 0 122.5 -40t41.5 -99q0 -63 -46 -100.5t-123 -63.5l-154 -53q-1 -6 -1 -18q0 -50 12.5 -73t41.5 -23q58 0 166 58l43 -84
q-123 -77 -237 -77zM165 302l138 52q57 22 57 63q0 22 -14.5 34t-34.5 12q-57 0 -94 -44t-52 -117z" />
    <glyph glyph-name="afii10099" unicode="&#x452;" horiz-adv-x="578" 
d="M321 -220l-80 62q73 88 118.5 210t45.5 230q0 49 -11 70.5t-41 21.5q-15 0 -36.5 -8.5t-38 -17.5t-39.5 -23.5t-29 -17.5l-32 -307h-123l59 561h-95l10 94h94l11 100h124l-11 -100h185l-9 -94h-186l-16 -154q121 85 200 85q116 0 116 -172q0 -142 -60.5 -286t-155.5 -254
z" />
    <glyph glyph-name="afii10100" unicode="&#x453;" horiz-adv-x="431" 
d="M197 600l-37 84l245 139l45 -99zM167 -10q-65 0 -107 30t-42 93q0 56 41 101.5t112 95.5q84 57 101.5 75.5t17.5 33.5q0 39 -44 39q-52 0 -138 -50l-40 90q92 60 210 60q54 0 93 -31t39 -90q0 -33 -13 -62t-40 -56t-48.5 -43.5t-58.5 -41.5q-81 -54 -97 -74
q-14 -16 -14 -29q0 -39 45 -39q57 0 165 65l44 -93q-46 -32 -108.5 -53t-117.5 -21z" />
    <glyph glyph-name="afii10101" unicode="&#x454;" horiz-adv-x="446" 
d="M184 -12q-155 0 -155 199q0 158 77 266t211 108q87 0 141 -48l-57 -82q-45 30 -85 30q-54 0 -88.5 -36t-52.5 -93h167l-12 -90h-172q-2 -14 -2 -39q0 -52 12 -80.5t32 -28.5q60 0 164 52l40 -85q-40 -24 -58.5 -34t-66 -24.5t-95.5 -14.5z" />
    <glyph glyph-name="afii10102" unicode="&#x455;" horiz-adv-x="443" 
d="M175 -10q-103 0 -171 32l33 97q79 -27 148 -27q37 0 65 13.5t28 44.5q0 17 -15.5 34.5t-39 31.5t-50.5 33t-50.5 38.5t-39 48.5t-15.5 62q0 84 55 122t142 38q43 0 90.5 -9t72.5 -22l-31 -91q-80 23 -131 23q-80 0 -80 -51q0 -21 22 -42.5t53 -42t62 -43.5t53 -56.5
t22 -72.5q0 -49 -21.5 -82.5t-57.5 -49.5t-70.5 -22.5t-73.5 -6.5z" />
    <glyph glyph-name="afii10103" unicode="&#x456;" horiz-adv-x="272" 
d="M40 0l57 546h123l-58 -546h-122zM167 629l-79 87l98 86l79 -86z" />
    <glyph glyph-name="afii10104" unicode="&#x457;" horiz-adv-x="272" 
d="M61 632l-71 80l88 79l71 -79zM278 632l-71 80l87 79l72 -79zM40 0l57 546h123l-58 -546h-122z" />
    <glyph glyph-name="afii10105" unicode="&#x458;" horiz-adv-x="272" 
d="M-54 -220q-57 0 -104 20l32 97q45 -12 76 -12q46 0 66.5 25t26.5 84l58 552h123l-58 -553q-13 -122 -68.5 -167.5t-151.5 -45.5zM165 629l-79 87l98 86l79 -86z" />
    <glyph glyph-name="afii10106" unicode="&#x459;" horiz-adv-x="717" 
d="M436 -12q-68 0 -143 26l-20 417h-6l-108 -242q-39 -89 -39 -156q0 -23 2 -33h-129q-4 13 -4 33q0 77 50 175l164 338h167l22 -223q108 80 185 80q60 0 91 -36.5t31 -104.5q0 -113 -75.5 -193.5t-187.5 -80.5zM446 86q53 0 92 42t39 114q0 59 -51 59q-42 0 -126 -58
l15 -156q8 -1 31 -1z" />
    <glyph glyph-name="afii10107" unicode="&#x45a;" horiz-adv-x="813" 
d="M506 -12q-38 6 -67 12.5t-45.5 11t-25 7.5t-14.5 6.5t-7 3.5l22 207l-179 -14l-24 -222h-122l58 546h123l-24 -216l180 14l21 202h123l-22 -205q86 62 159 62q60 0 91 -36.5t31 -104.5q0 -114 -78 -194t-200 -80zM524 86q54 0 96 42.5t42 113.5q0 59 -51 59
q-37 0 -118 -49l-17 -160q17 -6 48 -6z" />
    <glyph glyph-name="afii10108" unicode="&#x45b;" horiz-adv-x="576" 
d="M55 0l59 561h-95l10 94h94l11 100h124l-11 -100h185l-9 -94h-186l-16 -154q117 85 187 85q73 0 94 -35t11 -131l-35 -326h-122l32 302q6 42 1.5 57t-28.5 15q-11 0 -27.5 -5.5t-36 -15t-34 -17t-33 -18t-20.5 -11.5l-32 -307h-123z" />
    <glyph glyph-name="afii10109" unicode="&#x45c;" horiz-adv-x="505" 
d="M230 600l-37 84l245 139l45 -99zM44 0l57 546h123l-28 -258l197 258h136l-204 -256l164 -285l-133 -12l-161 283l-29 -276h-122z" />
    <glyph glyph-name="uni045D" unicode="&#x45d;" horiz-adv-x="564" 
d="M171 -12q-73 0 -99 36.5t-16 135.5l41 386h123l-40 -375q-5 -41 2 -57t30 -16q50 0 145 68l41 380h122l-58 -546h-122l8 71q-100 -83 -177 -83zM375 598l-239 121l52 101l231 -137z" />
    <glyph glyph-name="afii10110" unicode="&#x45e;" horiz-adv-x="485" 
d="M38 -220l111 220h-41l-82 546h131l51 -435l119 246q40 80 40 155q0 18 -3 34h131q3 -17 3 -34q0 -74 -49 -174l-282 -558h-129zM250 616q-35 0 -76 32.5t-67 82.5l95 61q49 -78 83 -78q52 0 145 76l42 -48q-54 -56 -115.5 -91t-106.5 -35z" />
    <glyph glyph-name="afii10193" unicode="&#x45f;" horiz-adv-x="564" 
d="M171 -12q-73 0 -99 36.5t-16 135.5l41 386h123l-40 -375q-5 -41 2 -57t30 -16q50 0 145 68l41 380h122l-58 -546h-122l8 71q-100 -83 -177 -83zM186 -220l54 182h91l-19 -182h-126z" />
    <glyph glyph-name="afii10146" unicode="&#x462;" horiz-adv-x="640" 
d="M97 0l54 511h-173l11 106h172l10 89l127 1l-10 -90h206l-11 -105h-206l-43 -406h84q80 0 122 30t42 82q0 51 -35.5 72.5t-116.5 21.5h-70l12 104h72q268 0 268 -190q0 -111 -79.5 -168.5t-223.5 -57.5h-212z" />
    <glyph glyph-name="afii10194" unicode="&#x463;" horiz-adv-x="528" 
d="M222 -12q-90 0 -166 31l63 426h-139l11 101h142l24 160h123l-23 -160h166l-11 -101h-169l-15 -106q78 52 150 52q60 0 91.5 -34.5t31.5 -101.5q0 -114 -78 -190.5t-201 -76.5zM240 86q55 0 96.5 39t41.5 109q0 55 -51 55q-44 0 -113 -43l-23 -153q19 -7 49 -7z" />
    <glyph glyph-name="afii10147" unicode="&#x472;" horiz-adv-x="797" 
d="M352 -12q-149 0 -233 82.5t-84 230.5q0 192 110 304.5t300 112.5q150 0 234 -81t84 -229q0 -194 -109 -307t-302 -113zM366 90q109 0 174 60.5t84 162.5h-461q0 -23 2 -30q7 -89 58 -141t143 -52zM171 397h462q0 14 -2 32q-8 87 -59.5 137t-143.5 50q-106 0 -171.5 -59.5
t-85.5 -159.5z" />
    <glyph glyph-name="afii10195" unicode="&#x473;" horiz-adv-x="533" 
d="M217 -12q-88 0 -138 57t-50 147q0 164 78 265.5t211 101.5q90 0 138.5 -57.5t48.5 -142.5q0 -49 -8 -97.5t-29 -98.5t-53 -88t-83 -62.5t-115 -24.5zM239 90q39 0 74.5 39.5t53.5 108.5h-210q-2 -13 -2 -37q0 -111 84 -111zM171 321h208q0 5 1 15.5t1 16.5q0 58 -22 82.5
t-66 24.5q-38 0 -71.5 -37.5t-50.5 -101.5z" />
    <glyph glyph-name="afii10148" unicode="&#x474;" horiz-adv-x="671" 
d="M192 0l-170 707h133l133 -607l215 439q66 142 162 192l79 -80q-40 -23 -71.5 -57.5t-64.5 -97.5l-249 -496h-167z" />
    <glyph glyph-name="afii10196" unicode="&#x475;" horiz-adv-x="505" 
d="M111 0l-85 546h131l52 -435q123 256 124 258q67 146 164 202l85 -77q-81 -52 -142 -172l-162 -322h-167z" />
    <glyph glyph-name="afii10050" unicode="&#x490;" horiz-adv-x="538" 
d="M46 0l75 707h327l17 161h118l-28 -262h-319l-64 -606h-126z" />
    <glyph glyph-name="afii10098" unicode="&#x491;" horiz-adv-x="452" 
d="M44 0l57 546h240l12 114h113l-21 -214h-232l-46 -446h-123z" />
    <glyph glyph-name="afii10798" unicode="&#x4d8;" horiz-adv-x="768" 
d="M339 -12q-300 0 -300 299q0 21 9 116h560q-2 96 -53.5 153.5t-156.5 57.5q-135 0 -253 -59l-38 84q138 79 307 79q155 -1 238 -85.5t83 -224.5q0 -187 -104.5 -303.5t-291.5 -116.5zM353 90q105 0 164.5 59t79.5 158h-432v-32q9 -185 188 -185z" />
    <glyph glyph-name="afii10846" unicode="&#x4d9;" horiz-adv-x="475" 
d="M295 558q151 0 151 -208q0 -71 -17.5 -135t-51.5 -116t-90 -83t-126 -31q-81 0 -122.5 40t-41.5 99q0 63 46 100.5t123 63.5l154 53q1 6 1 18q0 50 -12.5 73t-41.5 23q-58 0 -166 -58l-43 84q122 77 237 77zM310 244l-138 -52q-57 -22 -57 -63q0 -22 14.5 -34t34.5 -12
q57 0 94 44t52 117z" />
    <glyph glyph-name="uni1E47" unicode="&#x1e47;" horiz-adv-x="571" 
d="M44 0l58 546h122l-7 -71q117 85 187 85q61 0 85 -24t24 -84q0 -14 -4 -58l-42 -394h-123l40 371q3 24 3 40q0 18 -6.5 25t-23.5 7q-31 0 -151 -68l-40 -375h-122zM218 -256l-79 87l98 86l79 -86z" />
    <glyph glyph-name="uni1E63" unicode="&#x1e63;" horiz-adv-x="443" 
d="M175 -10q-103 0 -171 32l33 97q79 -27 148 -27q37 0 65 13.5t28 44.5q0 17 -15.5 34.5t-39 31.5t-50.5 33t-50.5 38.5t-39 48.5t-15.5 62q0 84 55 122t142 38q43 0 90.5 -9t72.5 -22l-31 -91q-80 23 -131 23q-80 0 -80 -51q0 -21 22 -42.5t53 -42t62 -43.5t53 -56.5
t22 -72.5q0 -49 -21.5 -82.5t-57.5 -49.5t-70.5 -22.5t-73.5 -6.5zM155 -256l-79 87l98 86l79 -86z" />
    <glyph glyph-name="Wgrave" unicode="&#x1e80;" horiz-adv-x="955" 
d="M133 0l-114 707h133l84 -602l202 415l-43 187h132l119 -600l238 600h127l-294 -707h-164l-78 365l-177 -365h-165zM562 735l-249 65l32 102l240 -86z" />
    <glyph glyph-name="wgrave" unicode="&#x1e81;" horiz-adv-x="795" 
d="M104 0l-78 546h131l46 -435l156 291l-22 144h130l52 -435l118 246q40 80 40 155q0 18 -3 34h130q3 -17 3 -34q0 -76 -49 -174l-171 -338h-166l-40 256l-140 -256h-137zM488 598l-239 121l52 101l231 -137z" />
    <glyph glyph-name="Wacute" unicode="&#x1e82;" horiz-adv-x="955" 
d="M393 737l-22 80l249 86l28 -102zM133 0l-114 707h133l84 -602l202 415l-43 187h132l119 -600l238 600h127l-294 -707h-164l-78 365l-177 -365h-165z" />
    <glyph glyph-name="wacute" unicode="&#x1e83;" horiz-adv-x="795" 
d="M342 600l-37 84l245 139l45 -99zM104 0l-78 546h131l46 -435l156 291l-22 144h130l52 -435l118 246q40 80 40 155q0 18 -3 34h130q3 -17 3 -34q0 -76 -49 -174l-171 -338h-166l-40 256l-140 -256h-137z" />
    <glyph glyph-name="Wdieresis" unicode="&#x1e84;" horiz-adv-x="955" 
d="M395 740l-71 80l88 79l71 -79zM612 740l-71 80l87 79l72 -79zM133 0l-114 707h133l84 -602l202 415l-43 187h132l119 -600l238 600h127l-294 -707h-164l-78 365l-177 -365h-165z" />
    <glyph glyph-name="wdieresis" unicode="&#x1e85;" horiz-adv-x="795" 
d="M308 632l-71 80l88 79l71 -79zM525 632l-71 80l87 79l72 -79zM104 0l-78 546h131l46 -435l156 291l-22 144h130l52 -435l118 246q40 80 40 155q0 18 -3 34h130q3 -17 3 -34q0 -76 -49 -174l-171 -338h-166l-40 256l-140 -256h-137z" />
    <glyph glyph-name="uni1EBD" unicode="&#x1ebd;" horiz-adv-x="475" 
d="M180 -12q-151 0 -151 208q0 71 17.5 135t51.5 116t90 83t126 31q81 0 122.5 -40t41.5 -99q0 -63 -46 -100.5t-123 -63.5l-154 -53q-1 -6 -1 -18q0 -50 12.5 -73t41.5 -23q58 0 166 58l43 -84q-123 -77 -237 -77zM165 302l138 52q57 22 57 63q0 22 -14.5 34t-34.5 12
q-57 0 -94 -44t-52 -117zM381 634q-23 0 -66 20.5t-64 20.5q-45 0 -83 -29l-47 68q60 63 138 63q29 0 69 -19t61 -19q35 0 89 29l39 -70q-64 -64 -136 -64z" />
    <glyph glyph-name="Ygrave" unicode="&#x1ef2;" horiz-adv-x="585" 
d="M186 0l26 250l-197 457h143l132 -351l218 351h140l-310 -454l-26 -253h-126zM395 735l-249 65l32 102l240 -86z" />
    <glyph glyph-name="ygrave" unicode="&#x1ef3;" horiz-adv-x="485" 
d="M38 -220l111 220h-41l-82 546h131l51 -435l119 246q40 80 40 155q0 18 -3 34h131q3 -17 3 -34q0 -74 -49 -174l-282 -558h-129zM357 598l-239 121l52 101l231 -137z" />
    <glyph glyph-name="uni1F00" unicode="&#x1f00;" horiz-adv-x="539" 
d="M278 623q40 43 40 92q0 41 -22 70h108q25 -35 25 -70q0 -50 -46 -92h-105zM157 -12q-129 0 -129 173q0 69 17 137t49 125.5t84 93t116 35.5q42 0 84 -34l3 27h114l-56 -545h-123l9 82q-99 -94 -168 -94zM190 97q46 0 145 86l26 240q-36 26 -72 26q-41 0 -73.5 -43
t-48.5 -105.5t-16 -127.5q0 -76 39 -76z" />
    <glyph glyph-name="uni1F01" unicode="&#x1f01;" horiz-adv-x="539" 
d="M157 -12q-129 0 -129 173q0 69 17 137t49 125.5t84 93t116 35.5q42 0 84 -34l3 27h114l-56 -545h-123l9 82q-99 -94 -168 -94zM190 97q46 0 145 86l26 240q-36 26 -72 26q-41 0 -73.5 -43t-48.5 -105.5t-16 -127.5q0 -76 39 -76zM313 623q-45 43 -45 92q0 35 24 70h108
q-21 -29 -21 -70q0 -22 9.5 -45t19.5 -35l10 -12h-105z" />
    <glyph glyph-name="uni1F02" unicode="&#x1f02;" horiz-adv-x="539" 
d="M157 -12q-129 0 -129 173q0 69 17 137t49 125.5t84 93t116 35.5q42 0 84 -34l3 27h114l-56 -545h-123l9 82q-99 -94 -168 -94zM190 97q46 0 145 86l26 240q-36 26 -72 26q-41 0 -73.5 -43t-48.5 -105.5t-16 -127.5q0 -76 39 -76zM159 622q40 43 40 92q0 40 -22 70h108
q25 -35 25 -71q0 -50 -46 -91h-105zM416 623l-94 161h128l72 -161h-106z" />
    <glyph glyph-name="uni1F03" unicode="&#x1f03;" horiz-adv-x="539" 
d="M157 -12q-129 0 -129 173q0 69 17 137t49 125.5t84 93t116 35.5q42 0 84 -34l3 27h114l-56 -545h-123l9 82q-99 -94 -168 -94zM190 97q46 0 145 86l26 240q-36 26 -72 26q-41 0 -73.5 -43t-48.5 -105.5t-16 -127.5q0 -76 39 -76zM210 622q-46 41 -46 91q0 36 25 71h108
q-22 -30 -22 -70q0 -22 10 -45t20 -35l10 -12h-105zM407 623l-94 161h128l72 -161h-106z" />
    <glyph glyph-name="uni1F04" unicode="&#x1f04;" horiz-adv-x="539" 
d="M157 -12q-129 0 -129 173q0 69 17 137t49 125.5t84 93t116 35.5q42 0 84 -34l3 27h114l-56 -545h-123l9 82q-99 -94 -168 -94zM190 97q46 0 145 86l26 240q-36 26 -72 26q-41 0 -73.5 -43t-48.5 -105.5t-16 -127.5q0 -76 39 -76zM205 614q40 43 40 92q0 40 -22 70h108
q25 -35 25 -71q0 -50 -46 -91h-105zM355 615l72 161h127l-94 -161h-105z" />
    <glyph glyph-name="uni1F05" unicode="&#x1f05;" horiz-adv-x="539" 
d="M157 -12q-129 0 -129 173q0 69 17 137t49 125.5t84 93t116 35.5q42 0 84 -34l3 27h114l-56 -545h-123l9 82q-99 -94 -168 -94zM190 97q46 0 145 86l26 240q-36 26 -72 26q-41 0 -73.5 -43t-48.5 -105.5t-16 -127.5q0 -76 39 -76zM246 614q-46 41 -46 91q0 36 25 71h108
q-22 -30 -22 -70q0 -22 10 -45t20 -35l10 -12h-105zM371 615l72 161h128l-94 -161h-106z" />
    <glyph glyph-name="uni1F06" unicode="&#x1f06;" horiz-adv-x="539" 
d="M157 -12q-129 0 -129 173q0 69 17 137t49 125.5t84 93t116 35.5q42 0 84 -34l3 27h114l-56 -545h-123l9 82q-99 -94 -168 -94zM190 97q46 0 145 86l26 240q-36 26 -72 26q-41 0 -73.5 -43t-48.5 -105.5t-16 -127.5q0 -76 39 -76zM440 814q-27 0 -69.5 18.5t-55.5 18.5
q-35 0 -76 -28l-44 71q67 67 142 67q29 0 63 -18.5t48 -18.5q35 0 85 26l39 -69q-54 -67 -132 -67zM292 618q42 43 45 92q4 38 -16 70h108q22 -34 20 -71q-4 -48 -52 -91h-105z" />
    <glyph glyph-name="uni1F07" unicode="&#x1f07;" horiz-adv-x="539" 
d="M157 -12q-129 0 -129 173q0 69 17 137t49 125.5t84 93t116 35.5q42 0 84 -34l3 27h114l-56 -545h-123l9 82q-99 -94 -168 -94zM190 97q46 0 145 86l26 240q-36 26 -72 26q-41 0 -73.5 -43t-48.5 -105.5t-16 -127.5q0 -76 39 -76zM423 814q-27 0 -69.5 18.5t-55.5 18.5
q-35 0 -76 -28l-44 71q67 67 142 67q28 0 63 -18.5t48 -18.5q35 0 85 26l39 -69q-54 -67 -132 -67zM325 618q-43 41 -39 91q2 36 30 71h108q-23 -29 -28 -70q-1 -22 7.5 -45t17.5 -35l9 -12h-105z" />
    <glyph glyph-name="uni1F08" unicode="&#x1f08;" horiz-adv-x="647" 
d="M23 546q40 43 40 92q0 41 -22 70h108q25 -35 25 -70q0 -50 -46 -92h-105zM-54 0l352 707h167l158 -707h-130l-49 236h-256l-113 -236h-129zM235 331h189l-39 204l-14 98l-41 -98z" />
    <glyph glyph-name="uni1F09" unicode="&#x1f09;" horiz-adv-x="647" 
d="M-54 0l352 707h167l158 -707h-130l-49 236h-256l-113 -236h-129zM235 331h189l-39 204l-14 98l-41 -98zM62 546q-45 43 -45 92q0 35 24 70h108q-21 -29 -21 -70q0 -22 10 -45t20 -35l9 -12h-105z" />
    <glyph glyph-name="uni1F0A" unicode="&#x1f0a;" horiz-adv-x="647" 
d="M-54 0l352 707h167l158 -707h-130l-49 236h-256l-113 -236h-129zM235 331h189l-39 204l-14 98l-41 -98zM-198 545q40 43 40 92q0 40 -22 70h108q25 -35 25 -71q0 -50 -46 -91h-105zM59 546l-94 161h128l72 -161h-106z" />
    <glyph glyph-name="uni1F0B" unicode="&#x1f0b;" horiz-adv-x="647" 
d="M-54 0l352 707h167l158 -707h-130l-49 236h-256l-113 -236h-129zM235 331h189l-39 204l-14 98l-41 -98zM-144 545q-46 41 -46 91q0 36 25 71h108q-22 -30 -22 -70q0 -22 10 -45t20 -35l10 -12h-105zM53 546l-94 161h128l72 -161h-106z" />
    <glyph glyph-name="uni1F0C" unicode="&#x1f0c;" horiz-adv-x="647" 
d="M-54 0l352 707h167l158 -707h-130l-49 236h-256l-113 -236h-129zM235 331h189l-39 204l-14 98l-41 -98zM-154 545q40 43 40 92q0 40 -22 70h108q25 -35 25 -71q0 -50 -46 -91h-105zM-4 546l72 161h127l-94 -161h-105z" />
    <glyph glyph-name="uni1F0D" unicode="&#x1f0d;" horiz-adv-x="647" 
d="M-54 0l352 707h167l158 -707h-130l-49 236h-256l-113 -236h-129zM235 331h189l-39 204l-14 98l-41 -98zM-112 545q-46 41 -46 91q0 36 25 71h108q-22 -30 -22 -70q0 -22 10 -45t20 -35l10 -12h-105zM13 546l72 161h128l-94 -161h-106z" />
    <glyph glyph-name="uni1F0E" unicode="&#x1f0e;" horiz-adv-x="647" 
d="M-54 0l352 707h167l158 -707h-130l-49 236h-256l-113 -236h-129zM235 331h189l-39 204l-14 98l-41 -98zM53 578q-27 0 -69.5 18.5t-55.5 18.5q-35 0 -76 -28l-44 71q67 67 142 67q29 0 63.5 -18.5t47.5 -18.5q35 0 85 26l39 -69q-54 -67 -132 -67zM-95 382q42 43 45 92
q4 38 -16 70h108q22 -34 20 -71q-4 -48 -52 -91h-105z" />
    <glyph glyph-name="uni1F0F" unicode="&#x1f0f;" horiz-adv-x="647" 
d="M-54 0l352 707h167l158 -707h-130l-49 236h-256l-113 -236h-129zM235 331h189l-39 204l-14 98l-41 -98zM41 582q-27 0 -69.5 18.5t-55.5 18.5q-35 0 -76 -28l-44 71q67 67 142 67q29 0 63.5 -18.5t47.5 -18.5q35 0 85 26l39 -69q-54 -67 -132 -67zM-57 386q-43 41 -39 91
q2 36 30 71h108q-23 -29 -28 -70q-1 -22 7.5 -45t17.5 -35l9 -12h-105z" />
    <glyph glyph-name="uni1F10" unicode="&#x1f10;" horiz-adv-x="452" 
d="M236 623q40 43 40 92q0 41 -22 70h108q25 -35 25 -70q0 -50 -46 -92h-105zM216 -12q-91 0 -142.5 39t-51.5 106q0 56 31.5 101t90.5 64q-34 11 -54.5 38t-20.5 62q0 68 58 115t161 47q88 0 152 -41l-36 -83q-56 26 -117 26q-98 0 -98 -70q0 -29 21 -41t47 -12h80l-10 -92
h-76q-43 0 -72 -23.5t-29 -64.5q0 -68 98 -68q63 0 142 38l38 -91q-96 -50 -212 -50z" />
    <glyph glyph-name="uni1F11" unicode="&#x1f11;" horiz-adv-x="452" 
d="M216 -12q-91 0 -142.5 39t-51.5 106q0 56 31.5 101t90.5 64q-34 11 -54.5 38t-20.5 62q0 68 58 115t161 47q88 0 152 -41l-36 -83q-56 26 -117 26q-98 0 -98 -70q0 -29 21 -41t47 -12h80l-10 -92h-76q-43 0 -72 -23.5t-29 -64.5q0 -68 98 -68q63 0 142 38l38 -91
q-96 -50 -212 -50zM255 623q-45 43 -45 92q0 35 24 70h108q-21 -29 -21 -70q0 -22 9.5 -45t19.5 -35l10 -12h-105z" />
    <glyph glyph-name="uni1F12" unicode="&#x1f12;" horiz-adv-x="452" 
d="M216 -12q-91 0 -142.5 39t-51.5 106q0 56 31.5 101t90.5 64q-34 11 -54.5 38t-20.5 62q0 68 58 115t161 47q88 0 152 -41l-36 -83q-56 26 -117 26q-98 0 -98 -70q0 -29 21 -41t47 -12h80l-10 -92h-76q-43 0 -72 -23.5t-29 -64.5q0 -68 98 -68q63 0 142 38l38 -91
q-96 -50 -212 -50zM108 622q40 43 40 92q0 40 -22 70h108q25 -35 25 -71q0 -50 -46 -91h-105zM365 623l-94 161h128l72 -161h-106z" />
    <glyph glyph-name="uni1F13" unicode="&#x1f13;" horiz-adv-x="452" 
d="M216 -12q-91 0 -142.5 39t-51.5 106q0 56 31.5 101t90.5 64q-34 11 -54.5 38t-20.5 62q0 68 58 115t161 47q88 0 152 -41l-36 -83q-56 26 -117 26q-98 0 -98 -70q0 -29 21 -41t47 -12h80l-10 -92h-76q-43 0 -72 -23.5t-29 -64.5q0 -68 98 -68q63 0 142 38l38 -91
q-96 -50 -212 -50zM150 622q-46 41 -46 91q0 36 25 71h108q-22 -30 -22 -70q0 -22 10 -45t20 -35l10 -12h-105zM347 623l-94 161h128l72 -161h-106z" />
    <glyph glyph-name="uni1F14" unicode="&#x1f14;" horiz-adv-x="452" 
d="M216 -12q-91 0 -142.5 39t-51.5 106q0 56 31.5 101t90.5 64q-34 11 -54.5 38t-20.5 62q0 68 58 115t161 47q88 0 152 -41l-36 -83q-56 26 -117 26q-98 0 -98 -70q0 -29 21 -41t47 -12h80l-10 -92h-76q-43 0 -72 -23.5t-29 -64.5q0 -68 98 -68q63 0 142 38l38 -91
q-96 -50 -212 -50zM157 622q40 43 40 92q0 40 -22 70h108q25 -35 25 -71q0 -50 -46 -91h-105zM307 623l72 161h127l-94 -161h-105z" />
    <glyph glyph-name="uni1F15" unicode="&#x1f15;" horiz-adv-x="452" 
d="M216 -12q-91 0 -142.5 39t-51.5 106q0 56 31.5 101t90.5 64q-34 11 -54.5 38t-20.5 62q0 68 58 115t161 47q88 0 152 -41l-36 -83q-56 26 -117 26q-98 0 -98 -70q0 -29 21 -41t47 -12h80l-10 -92h-76q-43 0 -72 -23.5t-29 -64.5q0 -68 98 -68q63 0 142 38l38 -91
q-96 -50 -212 -50zM182 622q-46 41 -46 91q0 36 25 71h108q-22 -30 -22 -70q0 -22 10 -45t20 -35l10 -12h-105zM307 623l72 161h128l-94 -161h-106z" />
    <glyph glyph-name="uni1F18" unicode="&#x1f18;" horiz-adv-x="574" 
d="M-109 546q40 43 40 92q0 41 -22 70h108q25 -35 25 -70q0 -50 -46 -92h-105zM46 0l75 707h429l-10 -100h-304l-21 -204h281l-10 -96h-281l-22 -207h327l-11 -100h-453z" />
    <glyph glyph-name="uni1F19" unicode="&#x1f19;" horiz-adv-x="574" 
d="M46 0l75 707h429l-10 -100h-304l-21 -204h281l-10 -96h-281l-22 -207h327l-11 -100h-453zM-67 545q-45 43 -45 92q0 35 24 70h108q-21 -29 -21 -70q0 -22 9.5 -45t19.5 -35l10 -12h-105z" />
    <glyph glyph-name="uni1F1A" unicode="&#x1f1a;" horiz-adv-x="574" 
d="M46 0l75 707h429l-10 -100h-304l-21 -204h281l-10 -96h-281l-22 -207h327l-11 -100h-453zM-308 545q40 43 40 92q0 40 -22 70h108q25 -35 25 -71q0 -50 -46 -91h-105zM-51 546l-94 161h128l72 -161h-106z" />
    <glyph glyph-name="uni1F1B" unicode="&#x1f1b;" horiz-adv-x="574" 
d="M46 0l75 707h429l-10 -100h-304l-21 -204h281l-10 -96h-281l-22 -207h327l-11 -100h-453zM-258 545q-46 41 -46 91q0 36 25 71h108q-22 -30 -22 -70q0 -22 10 -45t20 -35l10 -12h-105zM-61 546l-94 161h128l72 -161h-106z" />
    <glyph glyph-name="uni1F1C" unicode="&#x1f1c;" horiz-adv-x="574" 
d="M46 0l75 707h429l-10 -100h-304l-21 -204h281l-10 -96h-281l-22 -207h327l-11 -100h-453zM-299 545q40 43 40 92q0 40 -22 70h108q25 -35 25 -71q0 -50 -46 -91h-105zM-149 546l72 161h127l-94 -161h-105z" />
    <glyph glyph-name="uni1F1D" unicode="&#x1f1d;" horiz-adv-x="574" 
d="M46 0l75 707h429l-10 -100h-304l-21 -204h281l-10 -96h-281l-22 -207h327l-11 -100h-453zM-276 545q-46 41 -46 91q0 36 25 71h108q-22 -30 -22 -70q0 -22 10 -45t20 -35l10 -12h-105zM-151 546l72 161h128l-94 -161h-106z" />
    <glyph glyph-name="uni1F20" unicode="&#x1f20;" horiz-adv-x="571" 
d="M277 623q40 43 40 92q0 41 -22 70h108q25 -35 25 -70q0 -50 -46 -92h-105zM321 -220l63 591q3 23 3 38q0 19 -6 26.5t-24 7.5q-31 0 -151 -68l-40 -375h-122l58 546h122l-7 -71q117 85 187 85q60 0 84.5 -23t24.5 -81q0 -16 -4 -62l-65 -614h-123z" />
    <glyph glyph-name="uni1F21" unicode="&#x1f21;" horiz-adv-x="571" 
d="M321 -220l63 591q3 23 3 38q0 19 -6 26.5t-24 7.5q-31 0 -151 -68l-40 -375h-122l58 546h122l-7 -71q117 85 187 85q60 0 84.5 -23t24.5 -81q0 -16 -4 -62l-65 -614h-123zM316 623q-45 43 -45 92q0 35 24 70h108q-21 -29 -21 -70q0 -22 10 -45t20 -35l9 -12h-105z" />
    <glyph glyph-name="uni1F22" unicode="&#x1f22;" horiz-adv-x="571" 
d="M321 -220l63 591q3 23 3 38q0 19 -6 26.5t-24 7.5q-31 0 -151 -68l-40 -375h-122l58 546h122l-7 -71q117 85 187 85q60 0 84.5 -23t24.5 -81q0 -16 -4 -62l-65 -614h-123zM168 622q40 43 40 92q0 40 -22 70h108q25 -35 25 -71q0 -50 -46 -91h-105zM425 623l-94 161h128
l72 -161h-106z" />
    <glyph glyph-name="uni1F23" unicode="&#x1f23;" horiz-adv-x="571" 
d="M321 -220l63 591q3 23 3 38q0 19 -6 26.5t-24 7.5q-31 0 -151 -68l-40 -375h-122l58 546h122l-7 -71q117 85 187 85q60 0 84.5 -23t24.5 -81q0 -16 -4 -62l-65 -614h-123zM200 622q-46 41 -46 91q0 36 25 71h108q-22 -30 -22 -70q0 -22 10 -45t20 -35l10 -12h-105z
M397 623l-94 161h128l72 -161h-106z" />
    <glyph glyph-name="uni1F24" unicode="&#x1f24;" horiz-adv-x="571" 
d="M321 -220l63 591q3 23 3 38q0 19 -6 26.5t-24 7.5q-31 0 -151 -68l-40 -375h-122l58 546h122l-7 -71q117 85 187 85q60 0 84.5 -23t24.5 -81q0 -16 -4 -62l-65 -614h-123zM188 622q40 43 40 92q0 40 -22 70h108q25 -35 25 -71q0 -50 -46 -91h-105zM338 623l72 161h127
l-94 -161h-105z" />
    <glyph glyph-name="uni1F25" unicode="&#x1f25;" horiz-adv-x="571" 
d="M321 -220l63 591q3 23 3 38q0 19 -6 26.5t-24 7.5q-31 0 -151 -68l-40 -375h-122l58 546h122l-7 -71q117 85 187 85q60 0 84.5 -23t24.5 -81q0 -16 -4 -62l-65 -614h-123zM218 622q-46 41 -46 91q0 36 25 71h108q-22 -30 -22 -70q0 -22 10 -45t20 -35l10 -12h-105z
M343 623l72 161h128l-94 -161h-106z" />
    <glyph glyph-name="uni1F26" unicode="&#x1f26;" horiz-adv-x="571" 
d="M321 -220l63 591q3 23 3 38q0 19 -6 26.5t-24 7.5q-31 0 -151 -68l-40 -375h-122l58 546h122l-7 -71q117 85 187 85q60 0 84.5 -23t24.5 -81q0 -16 -4 -62l-65 -614h-123zM420 814q-27 0 -69.5 18.5t-55.5 18.5q-35 0 -76 -28l-44 71q67 67 142 67q29 0 63 -18.5
t48 -18.5q35 0 85 26l39 -69q-54 -67 -132 -67zM272 618q42 43 45 92q4 38 -16 70h108q22 -34 20 -71q-4 -48 -52 -91h-105z" />
    <glyph glyph-name="uni1F27" unicode="&#x1f27;" horiz-adv-x="571" 
d="M321 -220l63 591q3 23 3 38q0 19 -6 26.5t-24 7.5q-31 0 -151 -68l-40 -375h-122l58 546h122l-7 -71q117 85 187 85q60 0 84.5 -23t24.5 -81q0 -16 -4 -62l-65 -614h-123zM405 814q-27 0 -69.5 18.5t-55.5 18.5q-35 0 -76 -28l-44 71q67 67 142 67q28 0 63 -18.5
t48 -18.5q35 0 85 26l39 -69q-54 -67 -132 -67zM307 618q-43 41 -39 91q2 36 30 71h108q-23 -29 -28 -70q-1 -22 7.5 -45t17.5 -35l9 -12h-105z" />
    <glyph glyph-name="uni1F28" unicode="&#x1f28;" horiz-adv-x="757" 
d="M-107 545q40 43 40 92q0 41 -22 70h108q25 -35 25 -70q0 -50 -46 -92h-105zM46 0l75 707h125l-31 -303h338l32 303h127l-74 -707h-127l33 306h-339l-33 -306h-126z" />
    <glyph glyph-name="uni1F29" unicode="&#x1f29;" horiz-adv-x="757" 
d="M46 0l75 707h125l-31 -303h338l32 303h127l-74 -707h-127l33 306h-339l-33 -306h-126zM-46 546q-45 43 -45 92q0 35 24 70h108q-21 -29 -21 -70q0 -22 10 -45t20 -35l9 -12h-105z" />
    <glyph glyph-name="uni1F2A" unicode="&#x1f2a;" horiz-adv-x="757" 
d="M46 0l75 707h125l-31 -303h338l32 303h127l-74 -707h-127l33 306h-339l-33 -306h-126zM-312 545q40 43 40 92q0 40 -22 70h108q25 -35 25 -71q0 -50 -46 -91h-105zM-55 546l-94 161h128l72 -161h-106z" />
    <glyph glyph-name="uni1F2B" unicode="&#x1f2b;" horiz-adv-x="757" 
d="M46 0l75 707h125l-31 -303h338l32 303h127l-74 -707h-127l33 306h-339l-33 -306h-126zM-235 545q-46 41 -46 91q0 36 25 71h108q-22 -30 -22 -70q0 -22 10 -45t20 -35l10 -12h-105zM-38 546l-94 161h128l72 -161h-106z" />
    <glyph glyph-name="uni1F2C" unicode="&#x1f2c;" horiz-adv-x="757" 
d="M46 0l75 707h125l-31 -303h338l32 303h127l-74 -707h-127l33 306h-339l-33 -306h-126zM-283 545q40 43 40 92q0 40 -22 70h108q25 -35 25 -71q0 -50 -46 -91h-105zM-133 546l72 161h127l-94 -161h-105z" />
    <glyph glyph-name="uni1F2D" unicode="&#x1f2d;" horiz-adv-x="757" 
d="M46 0l75 707h125l-31 -303h338l32 303h127l-74 -707h-127l33 306h-339l-33 -306h-126zM-272 545q-46 41 -46 91q0 36 25 71h108q-22 -30 -22 -70q0 -22 10 -45t20 -35l10 -12h-105zM-147 546l72 161h128l-94 -161h-106z" />
    <glyph glyph-name="uni1F2E" unicode="&#x1f2e;" horiz-adv-x="757" 
d="M46 0l75 707h125l-31 -303h338l32 303h127l-74 -707h-127l33 306h-339l-33 -306h-126zM-63 577q-27 0 -69.5 18.5t-55.5 18.5q-35 0 -76 -28l-44 71q67 67 142 67q28 0 62.5 -18.5t48.5 -18.5q35 0 85 26l39 -69q-54 -67 -132 -67zM-211 381q42 43 45 92q4 38 -16 70h108
q22 -34 20 -71q-4 -48 -52 -91h-105z" />
    <glyph glyph-name="uni1F2F" unicode="&#x1f2f;" horiz-adv-x="757" 
d="M46 0l75 707h125l-31 -303h338l32 303h127l-74 -707h-127l33 306h-339l-33 -306h-126zM-63 581q-27 0 -69.5 18.5t-55.5 18.5q-35 0 -76 -28l-44 71q67 67 142 67q28 0 62.5 -18.5t48.5 -18.5q35 0 85 26l39 -69q-54 -67 -132 -67zM-161 385q-43 41 -39 91q2 36 30 71
h108q-23 -29 -28 -70q-1 -22 7.5 -45t17.5 -35l9 -12h-105z" />
    <glyph glyph-name="uni1F30" unicode="&#x1f30;" horiz-adv-x="272" 
d="M116 623q40 43 40 92q0 41 -22 70h108q25 -35 25 -70q0 -50 -46 -92h-105zM44 0l57 546h123l-57 -546h-123z" />
    <glyph glyph-name="uni1F31" unicode="&#x1f31;" horiz-adv-x="272" 
d="M44 0l57 546h123l-57 -546h-123zM134 623q-45 43 -45 92q0 35 24 70h108q-21 -29 -21 -70q0 -22 10 -45t20 -35l9 -12h-105z" />
    <glyph glyph-name="uni1F32" unicode="&#x1f32;" horiz-adv-x="272" 
d="M44 0l57 546h123l-57 -546h-123zM4 622q40 43 40 92q0 40 -22 70h108q25 -35 25 -71q0 -50 -46 -91h-105zM261 623l-94 161h128l72 -161h-106z" />
    <glyph glyph-name="uni1F33" unicode="&#x1f33;" horiz-adv-x="272" 
d="M37 622q-46 41 -46 91q0 36 25 71h108q-22 -30 -22 -70q0 -22 10 -45t20 -35l10 -12h-105zM234 623l-94 161h128l72 -161h-106zM44 0l57 546h123l-57 -546h-123z" />
    <glyph glyph-name="uni1F34" unicode="&#x1f34;" horiz-adv-x="272" 
d="M34 620q40 43 40 92q0 40 -22 70h108q25 -35 25 -71q0 -50 -46 -91h-105zM184 621l72 161h127l-94 -161h-105zM44 0l57 546h123l-57 -546h-123z" />
    <glyph glyph-name="uni1F35" unicode="&#x1f35;" horiz-adv-x="272" 
d="M44 0l57 546h123l-57 -546h-123zM64 620q-46 41 -46 91q0 36 25 71h108q-22 -30 -22 -70q0 -22 10 -45t20 -35l10 -12h-105zM189 621l72 161h128l-94 -161h-106z" />
    <glyph glyph-name="uni1F36" unicode="&#x1f36;" horiz-adv-x="272" 
d="M44 0l57 546h123l-57 -546h-123zM242 814q-27 0 -69.5 18.5t-55.5 18.5q-35 0 -76 -28l-44 71q67 67 142 67q29 0 63 -18.5t48 -18.5q35 0 85 26l39 -69q-54 -67 -132 -67zM94 618q42 43 45 92q4 38 -16 70h108q22 -34 20 -71q-4 -48 -52 -91h-105z" />
    <glyph glyph-name="uni1F37" unicode="&#x1f37;" horiz-adv-x="272" 
d="M44 0l57 546h123l-57 -546h-123zM221 810q-27 0 -69.5 18.5t-55.5 18.5q-35 0 -76 -28l-44 71q67 67 142 67q28 0 63 -18.5t48 -18.5q35 0 85 26l39 -69q-54 -67 -132 -67zM123 614q-43 41 -39 91q2 36 30 71h108q-23 -29 -28 -70q-1 -22 7.5 -45t17.5 -35l9 -12h-105z
" />
    <glyph glyph-name="uni1F38" unicode="&#x1f38;" horiz-adv-x="293" 
d="M-85 545q40 43 40 92q0 41 -22 70h108q25 -35 25 -70q0 -50 -46 -92h-105zM46 0l75 707h125l-74 -707h-126z" />
    <glyph glyph-name="uni1F39" unicode="&#x1f39;" horiz-adv-x="293" 
d="M46 0l75 707h125l-74 -707h-126zM-39 545q-45 43 -45 92q0 35 24 70h108q-21 -29 -21 -70q0 -22 9.5 -45t19.5 -35l10 -12h-105z" />
    <glyph glyph-name="uni1F3A" unicode="&#x1f3a;" horiz-adv-x="293" 
d="M46 0l75 707h125l-74 -707h-126zM-291 545q40 43 40 92q0 40 -22 70h108q25 -35 25 -71q0 -50 -46 -91h-105zM-34 546l-94 161h128l72 -161h-106z" />
    <glyph glyph-name="uni1F3B" unicode="&#x1f3b;" horiz-adv-x="293" 
d="M-241 545q-46 41 -46 91q0 36 25 71h108q-22 -30 -22 -70q0 -22 10 -45t20 -35l10 -12h-105zM-44 546l-94 161h128l72 -161h-106zM46 0l75 707h125l-74 -707h-126z" />
    <glyph glyph-name="uni1F3C" unicode="&#x1f3c;" horiz-adv-x="293" 
d="M-272 545q40 43 40 92q0 40 -22 70h108q25 -35 25 -71q0 -50 -46 -91h-105zM-122 546l72 161h127l-94 -161h-105zM46 0l75 707h125l-74 -707h-126z" />
    <glyph glyph-name="uni1F3D" unicode="&#x1f3d;" horiz-adv-x="293" 
d="M46 0l75 707h125l-74 -707h-126zM-252 544q-46 41 -46 91q0 36 25 71h108q-22 -30 -22 -70q0 -22 10 -45t20 -35l10 -12h-105zM-127 545l72 161h128l-94 -161h-106z" />
    <glyph glyph-name="uni1F3E" unicode="&#x1f3e;" horiz-adv-x="293" 
d="M46 0l75 707h125l-74 -707h-126zM-56 582q-27 0 -69.5 18.5t-55.5 18.5q-35 0 -76 -28l-44 71q67 67 142 67q29 0 63 -18.5t48 -18.5q35 0 85 26l39 -69q-54 -67 -132 -67zM-204 386q42 43 45 92q4 38 -16 70h108q22 -34 20 -71q-4 -48 -52 -91h-105z" />
    <glyph glyph-name="uni1F3F" unicode="&#x1f3f;" horiz-adv-x="293" 
d="M46 0l75 707h125l-74 -707h-126zM-66 578q-27 0 -69.5 18.5t-55.5 18.5q-35 0 -76 -28l-44 71q67 67 142 67q29 0 63 -18.5t48 -18.5q35 0 85 26l39 -69q-54 -67 -132 -67zM-164 382q-43 41 -39 91q2 36 30 71h108q-23 -29 -28 -70q-1 -22 7.5 -45t17.5 -35l9 -12h-105z
" />
    <glyph glyph-name="uni1F40" unicode="&#x1f40;" horiz-adv-x="533" 
d="M268 623q40 43 40 92q0 41 -22 70h108q25 -35 25 -70q0 -50 -46 -92h-105zM217 -12q-88 0 -138 57t-50 147q0 164 78 265.5t211 101.5q90 0 138.5 -57.5t48.5 -142.5q0 -49 -8 -97.5t-29 -98.5t-53 -88t-83 -62.5t-115 -24.5zM239 90q56 0 99 72t43 191q0 58 -22 82.5
t-66 24.5q-55 0 -96.5 -73.5t-41.5 -185.5q0 -111 84 -111z" />
    <glyph glyph-name="uni1F41" unicode="&#x1f41;" horiz-adv-x="533" 
d="M217 -12q-88 0 -138 57t-50 147q0 164 78 265.5t211 101.5q90 0 138.5 -57.5t48.5 -142.5q0 -49 -8 -97.5t-29 -98.5t-53 -88t-83 -62.5t-115 -24.5zM239 90q56 0 99 72t43 191q0 58 -22 82.5t-66 24.5q-55 0 -96.5 -73.5t-41.5 -185.5q0 -111 84 -111zM287 623
q-45 43 -45 92q0 35 24 70h108q-21 -29 -21 -70q0 -22 9.5 -45t19.5 -35l10 -12h-105z" />
    <glyph glyph-name="uni1F42" unicode="&#x1f42;" horiz-adv-x="533" 
d="M217 -12q-88 0 -138 57t-50 147q0 164 78 265.5t211 101.5q90 0 138.5 -57.5t48.5 -142.5q0 -49 -8 -97.5t-29 -98.5t-53 -88t-83 -62.5t-115 -24.5zM239 90q56 0 99 72t43 191q0 58 -22 82.5t-66 24.5q-55 0 -96.5 -73.5t-41.5 -185.5q0 -111 84 -111zM161 622
q40 43 40 92q0 40 -22 70h108q25 -35 25 -71q0 -50 -46 -91h-105zM418 623l-94 161h128l72 -161h-106z" />
    <glyph glyph-name="uni1F43" unicode="&#x1f43;" horiz-adv-x="533" 
d="M217 -12q-88 0 -138 57t-50 147q0 164 78 265.5t211 101.5q90 0 138.5 -57.5t48.5 -142.5q0 -49 -8 -97.5t-29 -98.5t-53 -88t-83 -62.5t-115 -24.5zM239 90q56 0 99 72t43 191q0 58 -22 82.5t-66 24.5q-55 0 -96.5 -73.5t-41.5 -185.5q0 -111 84 -111zM201 618
q-46 41 -46 91q0 36 25 71h108q-22 -30 -22 -70q0 -22 10 -45t20 -35l10 -12h-105zM398 619l-94 161h128l72 -161h-106z" />
    <glyph glyph-name="uni1F44" unicode="&#x1f44;" horiz-adv-x="533" 
d="M217 -12q-88 0 -138 57t-50 147q0 164 78 265.5t211 101.5q90 0 138.5 -57.5t48.5 -142.5q0 -49 -8 -97.5t-29 -98.5t-53 -88t-83 -62.5t-115 -24.5zM239 90q56 0 99 72t43 191q0 58 -22 82.5t-66 24.5q-55 0 -96.5 -73.5t-41.5 -185.5q0 -111 84 -111zM197 616
q40 43 40 92q0 40 -22 70h108q25 -35 25 -71q0 -50 -46 -91h-105zM347 617l72 161h127l-94 -161h-105z" />
    <glyph glyph-name="uni1F45" unicode="&#x1f45;" horiz-adv-x="533" 
d="M217 -12q-88 0 -138 57t-50 147q0 164 78 265.5t211 101.5q90 0 138.5 -57.5t48.5 -142.5q0 -49 -8 -97.5t-29 -98.5t-53 -88t-83 -62.5t-115 -24.5zM239 90q56 0 99 72t43 191q0 58 -22 82.5t-66 24.5q-55 0 -96.5 -73.5t-41.5 -185.5q0 -111 84 -111zM222 622
q-46 41 -46 91q0 36 25 71h108q-22 -30 -22 -70q0 -22 10 -45t20 -35l10 -12h-105zM347 623l72 161h128l-94 -161h-106z" />
    <glyph glyph-name="uni1F48" unicode="&#x1f48;" horiz-adv-x="797" 
d="M-110 545q40 43 40 92q0 41 -22 70h108q25 -35 25 -70q0 -50 -46 -92h-105zM352 -12q-149 0 -233 82.5t-84 230.5q0 192 110 304.5t300 112.5q150 0 234 -81t84 -229q0 -194 -109 -307t-302 -113zM366 90q131 0 199 85.5t68 220.5q0 102 -52.5 161t-152.5 59
q-128 0 -196.5 -85t-68.5 -218q0 -102 51.5 -162.5t151.5 -60.5z" />
    <glyph glyph-name="uni1F49" unicode="&#x1f49;" horiz-adv-x="797" 
d="M352 -12q-149 0 -233 82.5t-84 230.5q0 192 110 304.5t300 112.5q150 0 234 -81t84 -229q0 -194 -109 -307t-302 -113zM366 90q131 0 199 85.5t68 220.5q0 102 -52.5 161t-152.5 59q-128 0 -196.5 -85t-68.5 -218q0 -102 51.5 -162.5t151.5 -60.5zM-73 545q-45 43 -45 92
q0 35 24 70h108q-21 -29 -21 -70q0 -22 9.5 -45t19.5 -35l10 -12h-105z" />
    <glyph glyph-name="uni1F4A" unicode="&#x1f4a;" horiz-adv-x="797" 
d="M352 -12q-149 0 -233 82.5t-84 230.5q0 192 110 304.5t300 112.5q150 0 234 -81t84 -229q0 -194 -109 -307t-302 -113zM366 90q131 0 199 85.5t68 220.5q0 102 -52.5 161t-152.5 59q-128 0 -196.5 -85t-68.5 -218q0 -102 51.5 -162.5t151.5 -60.5zM-329 545q40 43 40 92
q0 40 -22 70h108q25 -35 25 -71q0 -50 -46 -91h-105zM-72 546l-94 161h128l72 -161h-106z" />
    <glyph glyph-name="uni1F4B" unicode="&#x1f4b;" horiz-adv-x="797" 
d="M352 -12q-149 0 -233 82.5t-84 230.5q0 192 110 304.5t300 112.5q150 0 234 -81t84 -229q0 -194 -109 -307t-302 -113zM366 90q131 0 199 85.5t68 220.5q0 102 -52.5 161t-152.5 59q-128 0 -196.5 -85t-68.5 -218q0 -102 51.5 -162.5t151.5 -60.5zM-280 545
q-46 41 -46 91q0 36 25 71h108q-22 -30 -22 -70q0 -22 10 -45t20 -35l10 -12h-105zM-83 546l-94 161h128l72 -161h-106z" />
    <glyph glyph-name="uni1F4C" unicode="&#x1f4c;" horiz-adv-x="797" 
d="M352 -12q-149 0 -233 82.5t-84 230.5q0 192 110 304.5t300 112.5q150 0 234 -81t84 -229q0 -194 -109 -307t-302 -113zM366 90q131 0 199 85.5t68 220.5q0 102 -52.5 161t-152.5 59q-128 0 -196.5 -85t-68.5 -218q0 -102 51.5 -162.5t151.5 -60.5zM-241 545q40 43 40 92
q0 40 -22 70h108q25 -35 25 -71q0 -50 -46 -91h-105zM-91 546l72 161h127l-94 -161h-105z" />
    <glyph glyph-name="uni1F4D" unicode="&#x1f4d;" horiz-adv-x="797" 
d="M352 -12q-149 0 -233 82.5t-84 230.5q0 192 110 304.5t300 112.5q150 0 234 -81t84 -229q0 -194 -109 -307t-302 -113zM366 90q131 0 199 85.5t68 220.5q0 102 -52.5 161t-152.5 59q-128 0 -196.5 -85t-68.5 -218q0 -102 51.5 -162.5t151.5 -60.5zM-218 545
q-46 41 -46 91q0 36 25 71h108q-22 -30 -22 -70q0 -22 10 -45t20 -35l10 -12h-105zM-93 546l72 161h128l-94 -161h-106z" />
    <glyph glyph-name="uni1F50" unicode="&#x1f50;" horiz-adv-x="552" 
d="M239 623q40 43 40 92q0 41 -22 70h108q25 -35 25 -70q0 -50 -46 -92h-105zM236 -12q-187 0 -187 165q0 15 3 38l37 355h122l-36 -346q-2 -22 -2 -31q0 -41 17.5 -59t54.5 -18q97 0 110 121l35 333h122l-36 -334q-23 -224 -240 -224z" />
    <glyph glyph-name="uni1F51" unicode="&#x1f51;" horiz-adv-x="552" 
d="M236 -12q-187 0 -187 165q0 15 3 38l37 355h122l-36 -346q-2 -22 -2 -31q0 -41 17.5 -59t54.5 -18q97 0 110 121l35 333h122l-36 -334q-23 -224 -240 -224zM272 623q-45 43 -45 92q0 35 24 70h108q-21 -29 -21 -70q0 -22 10 -45t20 -35l9 -12h-105z" />
    <glyph glyph-name="uni1F52" unicode="&#x1f52;" horiz-adv-x="552" 
d="M236 -12q-187 0 -187 165q0 15 3 38l37 355h122l-36 -346q-2 -22 -2 -31q0 -41 17.5 -59t54.5 -18q97 0 110 121l35 333h122l-36 -334q-23 -224 -240 -224zM131 618q40 43 40 92q0 40 -22 70h108q25 -35 25 -71q0 -50 -46 -91h-105zM388 619l-94 161h128l72 -161h-106z
" />
    <glyph glyph-name="uni1F53" unicode="&#x1f53;" horiz-adv-x="552" 
d="M236 -12q-187 0 -187 165q0 15 3 38l37 355h122l-36 -346q-2 -22 -2 -31q0 -41 17.5 -59t54.5 -18q97 0 110 121l35 333h122l-36 -334q-23 -224 -240 -224zM189 622q-46 41 -46 91q0 36 25 71h108q-22 -30 -22 -70q0 -22 10 -45t20 -35l10 -12h-105zM386 623l-94 161h128
l72 -161h-106z" />
    <glyph glyph-name="uni1F54" unicode="&#x1f54;" horiz-adv-x="552" 
d="M236 -12q-187 0 -187 165q0 15 3 38l37 355h122l-36 -346q-2 -22 -2 -31q0 -41 17.5 -59t54.5 -18q97 0 110 121l35 333h122l-36 -334q-23 -224 -240 -224zM180 616q40 43 40 92q0 40 -22 70h108q25 -35 25 -71q0 -50 -46 -91h-105zM330 617l72 161h127l-94 -161h-105z
" />
    <glyph glyph-name="uni1F55" unicode="&#x1f55;" horiz-adv-x="552" 
d="M236 -12q-187 0 -187 165q0 15 3 38l37 355h122l-36 -346q-2 -22 -2 -31q0 -41 17.5 -59t54.5 -18q97 0 110 121l35 333h122l-36 -334q-23 -224 -240 -224zM198 622q-46 41 -46 91q0 36 25 71h108q-22 -30 -22 -70q0 -22 10 -45t20 -35l10 -12h-105zM323 623l72 161h128
l-94 -161h-106z" />
    <glyph glyph-name="uni1F56" unicode="&#x1f56;" horiz-adv-x="552" 
d="M236 -12q-187 0 -187 165q0 15 3 38l37 355h122l-36 -346q-2 -22 -2 -31q0 -41 17.5 -59t54.5 -18q97 0 110 121l35 333h122l-36 -334q-23 -224 -240 -224zM384 814q-27 0 -69.5 18.5t-55.5 18.5q-35 0 -76 -28l-44 71q67 67 142 67q29 0 63 -18.5t48 -18.5q35 0 85 26
l39 -69q-54 -67 -132 -67zM236 618q42 43 45 92q4 38 -16 70h108q22 -34 20 -71q-4 -48 -52 -91h-105z" />
    <glyph glyph-name="uni1F57" unicode="&#x1f57;" horiz-adv-x="552" 
d="M236 -12q-187 0 -187 165q0 15 3 38l37 355h122l-36 -346q-2 -22 -2 -31q0 -41 17.5 -59t54.5 -18q97 0 110 121l35 333h122l-36 -334q-23 -224 -240 -224zM366 814q-27 0 -69.5 18.5t-55.5 18.5q-35 0 -76 -28l-44 71q67 67 142 67q29 0 63 -18.5t48 -18.5q35 0 85 26
l39 -69q-54 -67 -132 -67zM268 618q-43 41 -39 91q2 36 30 71h108q-23 -29 -28 -70q-1 -22 7.5 -45t17.5 -35l9 -12h-105z" />
    <glyph glyph-name="uni1F59" unicode="&#x1f59;" horiz-adv-x="596" 
d="M186 0l26 250l-197 457h143l132 -351l218 351h140l-310 -454l-26 -253h-126zM-134 546q-45 43 -45 92q0 35 24 70h108q-21 -29 -21 -70q0 -22 10 -45t20 -35l9 -12h-105z" />
    <glyph glyph-name="uni1F5B" unicode="&#x1f5b;" horiz-adv-x="596" 
d="M186 0l26 250l-197 457h143l132 -351l218 351h140l-310 -454l-26 -253h-126zM-290 545q-46 41 -46 91q0 36 25 71h108q-22 -30 -22 -70q0 -22 10 -45t20 -35l10 -12h-105zM-93 546l-94 161h128l72 -161h-106z" />
    <glyph glyph-name="uni1F5D" unicode="&#x1f5d;" horiz-adv-x="596" 
d="M186 0l26 250l-197 457h143l132 -351l218 351h140l-310 -454l-26 -253h-126zM-366 545q-46 41 -46 91q0 36 25 71h108q-22 -30 -22 -70q0 -22 10 -45t20 -35l10 -12h-105zM-241 546l72 161h128l-94 -161h-106z" />
    <glyph glyph-name="uni1F5F" unicode="&#x1f5f;" horiz-adv-x="596" 
d="M186 0l26 250l-197 457h143l132 -351l218 351h140l-310 -454l-26 -253h-126zM-149 577q-27 0 -69.5 18.5t-55.5 18.5q-35 0 -76 -28l-44 71q67 67 142 67q28 0 63 -18.5t48 -18.5q35 0 85 26l39 -69q-54 -67 -132 -67zM-247 381q-43 41 -39 91q2 36 30 71h108
q-23 -29 -28 -70q-1 -22 7.5 -45t17.5 -35l9 -12h-105z" />
    <glyph glyph-name="uni1F60" unicode="&#x1f60;" horiz-adv-x="708" 
d="M341 623q40 43 40 92q0 41 -22 70h108q25 -35 25 -70q0 -50 -46 -92h-105zM183 -11q-69 0 -111.5 52t-42.5 144q0 105 36 193.5t129 167.5h123q-79 -66 -121.5 -158.5t-42.5 -191.5q0 -100 58 -100q30 0 50.5 33.5t26.5 91.5l15 139h120l-12 -134q-3 -33 -3 -48
q0 -82 53 -82q29 0 49 24.5t28 63.5t11 68.5t3 59.5q0 141 -81 234h129q77 -99 77 -222q0 -61 -11 -116t-35 -106.5t-69.5 -82t-107.5 -30.5q-42 0 -77.5 22.5t-44.5 70.5q-22 -47 -62.5 -70t-86.5 -23z" />
    <glyph glyph-name="uni1F61" unicode="&#x1f61;" horiz-adv-x="708" 
d="M183 -11q-69 0 -111.5 52t-42.5 144q0 105 36 193.5t129 167.5h123q-79 -66 -121.5 -158.5t-42.5 -191.5q0 -100 58 -100q30 0 50.5 33.5t26.5 91.5l15 139h120l-12 -134q-3 -33 -3 -48q0 -82 53 -82q29 0 49 24.5t28 63.5t11 68.5t3 59.5q0 141 -81 234h129
q77 -99 77 -222q0 -61 -11 -116t-35 -106.5t-69.5 -82t-107.5 -30.5q-42 0 -77.5 22.5t-44.5 70.5q-22 -47 -62.5 -70t-86.5 -23zM348 623q-45 43 -45 92q0 35 24 70h108q-21 -29 -21 -70q0 -22 10 -45t20 -35l9 -12h-105z" />
    <glyph glyph-name="uni1F62" unicode="&#x1f62;" horiz-adv-x="708" 
d="M183 -11q-69 0 -111.5 52t-42.5 144q0 105 36 193.5t129 167.5h123q-79 -66 -121.5 -158.5t-42.5 -191.5q0 -100 58 -100q30 0 50.5 33.5t26.5 91.5l15 139h120l-12 -134q-3 -33 -3 -48q0 -82 53 -82q29 0 49 24.5t28 63.5t11 68.5t3 59.5q0 141 -81 234h129
q77 -99 77 -222q0 -61 -11 -116t-35 -106.5t-69.5 -82t-107.5 -30.5q-42 0 -77.5 22.5t-44.5 70.5q-22 -47 -62.5 -70t-86.5 -23zM232 622q40 43 40 92q0 40 -22 70h108q25 -35 25 -71q0 -50 -46 -91h-105zM489 623l-94 161h128l72 -161h-106z" />
    <glyph glyph-name="uni1F63" unicode="&#x1f63;" horiz-adv-x="708" 
d="M183 -11q-69 0 -111.5 52t-42.5 144q0 105 36 193.5t129 167.5h123q-79 -66 -121.5 -158.5t-42.5 -191.5q0 -100 58 -100q30 0 50.5 33.5t26.5 91.5l15 139h120l-12 -134q-3 -33 -3 -48q0 -82 53 -82q29 0 49 24.5t28 63.5t11 68.5t3 59.5q0 141 -81 234h129
q77 -99 77 -222q0 -61 -11 -116t-35 -106.5t-69.5 -82t-107.5 -30.5q-42 0 -77.5 22.5t-44.5 70.5q-22 -47 -62.5 -70t-86.5 -23zM279 622q-46 41 -46 91q0 36 25 71h108q-22 -30 -22 -70q0 -22 10 -45t20 -35l10 -12h-105zM476 623l-94 161h128l72 -161h-106z" />
    <glyph glyph-name="uni1F64" unicode="&#x1f64;" horiz-adv-x="708" 
d="M183 -11q-69 0 -111.5 52t-42.5 144q0 105 36 193.5t129 167.5h123q-79 -66 -121.5 -158.5t-42.5 -191.5q0 -100 58 -100q30 0 50.5 33.5t26.5 91.5l15 139h120l-12 -134q-3 -33 -3 -48q0 -82 53 -82q29 0 49 24.5t28 63.5t11 68.5t3 59.5q0 141 -81 234h129
q77 -99 77 -222q0 -61 -11 -116t-35 -106.5t-69.5 -82t-107.5 -30.5q-42 0 -77.5 22.5t-44.5 70.5q-22 -47 -62.5 -70t-86.5 -23zM278 622q40 43 40 92q0 40 -22 70h108q25 -35 25 -71q0 -50 -46 -91h-105zM428 623l72 161h127l-94 -161h-105z" />
    <glyph glyph-name="uni1F65" unicode="&#x1f65;" horiz-adv-x="708" 
d="M183 -11q-69 0 -111.5 52t-42.5 144q0 105 36 193.5t129 167.5h123q-79 -66 -121.5 -158.5t-42.5 -191.5q0 -100 58 -100q30 0 50.5 33.5t26.5 91.5l15 139h120l-12 -134q-3 -33 -3 -48q0 -82 53 -82q29 0 49 24.5t28 63.5t11 68.5t3 59.5q0 141 -81 234h129
q77 -99 77 -222q0 -61 -11 -116t-35 -106.5t-69.5 -82t-107.5 -30.5q-42 0 -77.5 22.5t-44.5 70.5q-22 -47 -62.5 -70t-86.5 -23zM301 622q-46 41 -46 91q0 36 25 71h108q-22 -30 -22 -70q0 -22 10 -45t20 -35l10 -12h-105zM426 623l72 161h128l-94 -161h-106z" />
    <glyph glyph-name="uni1F66" unicode="&#x1f66;" horiz-adv-x="708" 
d="M183 -11q-69 0 -111.5 52t-42.5 144q0 105 36 193.5t129 167.5h123q-79 -66 -121.5 -158.5t-42.5 -191.5q0 -100 58 -100q30 0 50.5 33.5t26.5 91.5l15 139h120l-12 -134q-3 -33 -3 -48q0 -82 53 -82q29 0 49 24.5t28 63.5t11 68.5t3 59.5q0 141 -81 234h129
q77 -99 77 -222q0 -61 -11 -116t-35 -106.5t-69.5 -82t-107.5 -30.5q-42 0 -77.5 22.5t-44.5 70.5q-22 -47 -62.5 -70t-86.5 -23zM481 814q-27 0 -69.5 18.5t-55.5 18.5q-35 0 -76 -28l-44 71q67 67 142 67q28 0 63 -18.5t48 -18.5q35 0 85 26l39 -69q-54 -67 -132 -67z
M333 618q42 43 45 92q4 38 -16 70h108q22 -34 20 -71q-4 -48 -52 -91h-105z" />
    <glyph glyph-name="uni1F67" unicode="&#x1f67;" horiz-adv-x="708" 
d="M183 -11q-69 0 -111.5 52t-42.5 144q0 105 36 193.5t129 167.5h123q-79 -66 -121.5 -158.5t-42.5 -191.5q0 -100 58 -100q30 0 50.5 33.5t26.5 91.5l15 139h120l-12 -134q-3 -33 -3 -48q0 -82 53 -82q29 0 49 24.5t28 63.5t11 68.5t3 59.5q0 141 -81 234h129
q77 -99 77 -222q0 -61 -11 -116t-35 -106.5t-69.5 -82t-107.5 -30.5q-42 0 -77.5 22.5t-44.5 70.5q-22 -47 -62.5 -70t-86.5 -23zM444 814q-27 0 -69.5 18.5t-55.5 18.5q-35 0 -76 -28l-44 71q67 67 142 67q29 0 63 -18.5t48 -18.5q35 0 85 26l39 -69q-54 -67 -132 -67z
M346 618q-43 41 -39 91q2 36 30 71h108q-23 -29 -28 -70q-1 -22 7.5 -45t17.5 -35l9 -12h-105z" />
    <glyph glyph-name="uni1F68" unicode="&#x1f68;" horiz-adv-x="822" 
d="M-85 546q40 43 40 92q0 41 -22 70h108q25 -35 25 -70q0 -50 -46 -92h-105zM22 0l11 107h132q-45 27 -79.5 89.5t-34.5 137.5q0 172 114 278t290 106q154 0 237.5 -84t83.5 -221q0 -95 -47 -182.5t-118 -123.5h128l-11 -107h-289l11 101q87 41 141 124t54 176
q0 96 -51 155.5t-156 59.5q-121 0 -191 -78.5t-70 -196.5q0 -76 40.5 -139t101.5 -101l-11 -101h-286z" />
    <glyph glyph-name="uni1F69" unicode="&#x1f69;" horiz-adv-x="822" 
d="M22 0l11 107h132q-45 27 -79.5 89.5t-34.5 137.5q0 172 114 278t290 106q154 0 237.5 -84t83.5 -221q0 -95 -47 -182.5t-118 -123.5h128l-11 -107h-289l11 101q87 41 141 124t54 176q0 96 -51 155.5t-156 59.5q-121 0 -191 -78.5t-70 -196.5q0 -76 40.5 -139t101.5 -101
l-11 -101h-286zM-63 546q-45 43 -45 92q0 35 24 70h108q-21 -29 -21 -70q0 -22 9.5 -45t19.5 -35l10 -12h-105z" />
    <glyph glyph-name="uni1F6A" unicode="&#x1f6a;" horiz-adv-x="822" 
d="M22 0l11 107h132q-45 27 -79.5 89.5t-34.5 137.5q0 172 114 278t290 106q154 0 237.5 -84t83.5 -221q0 -95 -47 -182.5t-118 -123.5h128l-11 -107h-289l11 101q87 41 141 124t54 176q0 96 -51 155.5t-156 59.5q-121 0 -191 -78.5t-70 -196.5q0 -76 40.5 -139t101.5 -101
l-11 -101h-286zM-337 545q40 43 40 92q0 40 -22 70h108q25 -35 25 -71q0 -50 -46 -91h-105zM-80 546l-94 161h128l72 -161h-106z" />
    <glyph glyph-name="uni1F6B" unicode="&#x1f6b;" horiz-adv-x="822" 
d="M22 0l11 107h132q-45 27 -79.5 89.5t-34.5 137.5q0 172 114 278t290 106q154 0 237.5 -84t83.5 -221q0 -95 -47 -182.5t-118 -123.5h128l-11 -107h-289l11 101q87 41 141 124t54 176q0 96 -51 155.5t-156 59.5q-121 0 -191 -78.5t-70 -196.5q0 -76 40.5 -139t101.5 -101
l-11 -101h-286zM-264 545q-46 41 -46 91q0 36 25 71h108q-22 -30 -22 -70q0 -22 10 -45t20 -35l10 -12h-105zM-67 546l-94 161h128l72 -161h-106z" />
    <glyph glyph-name="uni1F6C" unicode="&#x1f6c;" horiz-adv-x="822" 
d="M22 0l11 107h132q-45 27 -79.5 89.5t-34.5 137.5q0 172 114 278t290 106q154 0 237.5 -84t83.5 -221q0 -95 -47 -182.5t-118 -123.5h128l-11 -107h-289l11 101q87 41 141 124t54 176q0 96 -51 155.5t-156 59.5q-121 0 -191 -78.5t-70 -196.5q0 -76 40.5 -139t101.5 -101
l-11 -101h-286zM-220 545q40 43 40 92q0 40 -22 70h108q25 -35 25 -71q0 -50 -46 -91h-105zM-70 546l72 161h127l-94 -161h-105z" />
    <glyph glyph-name="uni1F6D" unicode="&#x1f6d;" horiz-adv-x="822" 
d="M22 0l11 107h132q-45 27 -79.5 89.5t-34.5 137.5q0 172 114 278t290 106q154 0 237.5 -84t83.5 -221q0 -95 -47 -182.5t-118 -123.5h128l-11 -107h-289l11 101q87 41 141 124t54 176q0 96 -51 155.5t-156 59.5q-121 0 -191 -78.5t-70 -196.5q0 -76 40.5 -139t101.5 -101
l-11 -101h-286zM-199 545q-46 41 -46 91q0 36 25 71h108q-22 -30 -22 -70q0 -22 10 -45t20 -35l10 -12h-105zM-74 546l72 161h128l-94 -161h-106z" />
    <glyph glyph-name="uni1F6E" unicode="&#x1f6e;" horiz-adv-x="822" 
d="M22 0l11 107h132q-45 27 -79.5 89.5t-34.5 137.5q0 172 114 278t290 106q154 0 237.5 -84t83.5 -221q0 -95 -47 -182.5t-118 -123.5h128l-11 -107h-289l11 101q87 41 141 124t54 176q0 96 -51 155.5t-156 59.5q-121 0 -191 -78.5t-70 -196.5q0 -76 40.5 -139t101.5 -101
l-11 -101h-286zM-29 575q-27 0 -69.5 18.5t-55.5 18.5q-35 0 -76 -28l-44 71q67 67 142 67q29 0 63.5 -18.5t47.5 -18.5q35 0 85 26l39 -69q-54 -67 -132 -67zM-177 379q42 43 45 92q4 38 -16 70h108q22 -34 20 -71q-4 -48 -52 -91h-105z" />
    <glyph glyph-name="uni1F6F" unicode="&#x1f6f;" horiz-adv-x="822" 
d="M22 0l11 107h132q-45 27 -79.5 89.5t-34.5 137.5q0 172 114 278t290 106q154 0 237.5 -84t83.5 -221q0 -95 -47 -182.5t-118 -123.5h128l-11 -107h-289l11 101q87 41 141 124t54 176q0 96 -51 155.5t-156 59.5q-121 0 -191 -78.5t-70 -196.5q0 -76 40.5 -139t101.5 -101
l-11 -101h-286zM-50 575q-27 0 -69.5 18.5t-55.5 18.5q-35 0 -76 -28l-44 71q67 67 142 67q28 0 62.5 -18.5t48.5 -18.5q35 0 85 26l39 -69q-54 -67 -132 -67zM-148 379q-43 41 -39 91q2 36 30 71h108q-23 -29 -28 -70q-1 -22 7.5 -45t17.5 -35l9 -12h-105z" />
    <glyph glyph-name="uni1F70" unicode="&#x1f70;" horiz-adv-x="539" 
d="M157 -12q-129 0 -129 173q0 69 17 137t49 125.5t84 93t116 35.5q42 0 84 -34l3 27h114l-56 -545h-123l9 82q-99 -94 -168 -94zM190 97q46 0 145 86l26 240q-36 26 -72 26q-41 0 -73.5 -43t-48.5 -105.5t-16 -127.5q0 -76 39 -76zM301 625l-95 158h128l72 -158h-105z" />
    <glyph glyph-name="uni1F71" unicode="&#x1f71;" horiz-adv-x="539" 
d="M267 626l90 158h124l-117 -157zM157 -12q-129 0 -129 173q0 69 17 137t49 125.5t84 93t116 35.5q42 0 84 -34l3 27h114l-56 -545h-123l9 82q-99 -94 -168 -94zM190 97q46 0 145 86l26 240q-36 26 -72 26q-41 0 -73.5 -43t-48.5 -105.5t-16 -127.5q0 -76 39 -76z" />
    <glyph glyph-name="uni1F72" unicode="&#x1f72;" horiz-adv-x="452" 
d="M216 -12q-91 0 -142.5 39t-51.5 106q0 56 31.5 101t90.5 64q-34 11 -54.5 38t-20.5 62q0 68 58 115t161 47q88 0 152 -41l-36 -83q-56 26 -117 26q-98 0 -98 -70q0 -29 21 -41t47 -12h80l-10 -92h-76q-43 0 -72 -23.5t-29 -64.5q0 -68 98 -68q63 0 142 38l38 -91
q-96 -50 -212 -50zM264 623l-95 158h128l72 -158h-105z" />
    <glyph glyph-name="uni1F73" unicode="&#x1f73;" horiz-adv-x="452" 
d="M222 616l90 158h124l-117 -157zM216 -12q-91 0 -142.5 39t-51.5 106q0 56 31.5 101t90.5 64q-34 11 -54.5 38t-20.5 62q0 68 58 115t161 47q88 0 152 -41l-36 -83q-56 26 -117 26q-98 0 -98 -70q0 -29 21 -41t47 -12h80l-10 -92h-76q-43 0 -72 -23.5t-29 -64.5
q0 -68 98 -68q63 0 142 38l38 -91q-96 -50 -212 -50z" />
    <glyph glyph-name="uni1F74" unicode="&#x1f74;" horiz-adv-x="571" 
d="M321 -220l63 591q3 23 3 38q0 19 -6 26.5t-24 7.5q-31 0 -151 -68l-40 -375h-122l58 546h122l-7 -71q117 85 187 85q60 0 84.5 -23t24.5 -81q0 -16 -4 -62l-65 -614h-123zM278 623l-95 158h128l72 -158h-105z" />
    <glyph glyph-name="uni1F75" unicode="&#x1f75;" horiz-adv-x="571" 
d="M271 616l90 158h124l-117 -157zM321 -220l63 591q3 23 3 38q0 19 -6 26.5t-24 7.5q-31 0 -151 -68l-40 -375h-122l58 546h122l-7 -71q117 85 187 85q60 0 84.5 -23t24.5 -81q0 -16 -4 -62l-65 -614h-123z" />
    <glyph glyph-name="uni1F76" unicode="&#x1f76;" horiz-adv-x="272" 
d="M44 0l57 546h123l-57 -546h-123zM119 623l-95 158h128l72 -158h-105z" />
    <glyph glyph-name="uni1F77" unicode="&#x1f77;" horiz-adv-x="272" 
d="M111 616l90 158h124l-117 -157zM44 0l57 546h123l-57 -546h-123z" />
    <glyph glyph-name="uni1F78" unicode="&#x1f78;" horiz-adv-x="533" 
d="M217 -12q-88 0 -138 57t-50 147q0 164 78 265.5t211 101.5q90 0 138.5 -57.5t48.5 -142.5q0 -49 -8 -97.5t-29 -98.5t-53 -88t-83 -62.5t-115 -24.5zM239 90q56 0 99 72t43 191q0 58 -22 82.5t-66 24.5q-55 0 -96.5 -73.5t-41.5 -185.5q0 -111 84 -111zM280 623l-95 158
h128l72 -158h-105z" />
    <glyph glyph-name="uni1F79" unicode="&#x1f79;" horiz-adv-x="533" 
d="M243 618l90 158h124l-117 -157zM217 -12q-88 0 -138 57t-50 147q0 164 78 265.5t211 101.5q90 0 138.5 -57.5t48.5 -142.5q0 -49 -8 -97.5t-29 -98.5t-53 -88t-83 -62.5t-115 -24.5zM239 90q56 0 99 72t43 191q0 58 -22 82.5t-66 24.5q-55 0 -96.5 -73.5t-41.5 -185.5
q0 -111 84 -111z" />
    <glyph glyph-name="uni1F7A" unicode="&#x1f7a;" horiz-adv-x="552" 
d="M236 -12q-187 0 -187 165q0 15 3 38l37 355h122l-36 -346q-2 -22 -2 -31q0 -41 17.5 -59t54.5 -18q97 0 110 121l35 333h122l-36 -334q-23 -224 -240 -224zM269 623l-95 158h128l72 -158h-105z" />
    <glyph glyph-name="uni1F7B" unicode="&#x1f7b;" horiz-adv-x="552" 
d="M254 626l90 158h124l-117 -157zM236 -12q-187 0 -187 165q0 15 3 38l37 355h122l-36 -346q-2 -22 -2 -31q0 -41 17.5 -59t54.5 -18q97 0 110 121l35 333h122l-36 -334q-23 -224 -240 -224z" />
    <glyph glyph-name="uni1F7C" unicode="&#x1f7c;" horiz-adv-x="708" 
d="M183 -11q-69 0 -111.5 52t-42.5 144q0 105 36 193.5t129 167.5h123q-79 -66 -121.5 -158.5t-42.5 -191.5q0 -100 58 -100q30 0 50.5 33.5t26.5 91.5l15 139h120l-12 -134q-3 -33 -3 -48q0 -82 53 -82q29 0 49 24.5t28 63.5t11 68.5t3 59.5q0 141 -81 234h129
q77 -99 77 -222q0 -61 -11 -116t-35 -106.5t-69.5 -82t-107.5 -30.5q-42 0 -77.5 22.5t-44.5 70.5q-22 -47 -62.5 -70t-86.5 -23zM335 615l-95 158h128l72 -158h-105z" />
    <glyph glyph-name="uni1F7D" unicode="&#x1f7d;" horiz-adv-x="708" 
d="M340 626l90 158h124l-117 -157zM183 -11q-69 0 -111.5 52t-42.5 144q0 105 36 193.5t129 167.5h123q-79 -66 -121.5 -158.5t-42.5 -191.5q0 -100 58 -100q30 0 50.5 33.5t26.5 91.5l15 139h120l-12 -134q-3 -33 -3 -48q0 -82 53 -82q29 0 49 24.5t28 63.5t11 68.5t3 59.5
q0 141 -81 234h129q77 -99 77 -222q0 -61 -11 -116t-35 -106.5t-69.5 -82t-107.5 -30.5q-42 0 -77.5 22.5t-44.5 70.5q-22 -47 -62.5 -70t-86.5 -23z" />
    <glyph glyph-name="uni1F80" unicode="&#x1f80;" horiz-adv-x="539" 
d="M263 623q40 43 40 92q0 41 -22 70h108q25 -35 25 -70q0 -50 -46 -92h-105zM157 -12q-129 0 -129 173q0 69 17 137t49 125.5t84 93t116 35.5q42 0 84 -34l3 27h114l-56 -545h-123l9 82q-99 -94 -168 -94zM190 97q46 0 145 86l26 240q-36 26 -72 26q-41 0 -73.5 -43
t-48.5 -105.5t-16 -127.5q0 -76 39 -76zM230 -293q-44 0 -65 18t-21 59q0 19 24 133h95q-18 -87 -18 -95q0 -18 8.5 -26.5t29.5 -10.5h17l-12 -73q-40 -5 -58 -5z" />
    <glyph glyph-name="uni1F81" unicode="&#x1f81;" horiz-adv-x="539" 
d="M157 -12q-129 0 -129 173q0 69 17 137t49 125.5t84 93t116 35.5q42 0 84 -34l3 27h114l-56 -545h-123l9 82q-99 -94 -168 -94zM190 97q46 0 145 86l26 240q-36 26 -72 26q-41 0 -73.5 -43t-48.5 -105.5t-16 -127.5q0 -76 39 -76zM229 -293q-44 0 -65 18t-21 59
q0 19 24 133h95q-18 -87 -18 -95q0 -18 8.5 -26.5t29.5 -10.5h17l-12 -73q-40 -5 -58 -5zM299 623q-45 43 -45 92q0 35 24 70h108q-21 -29 -21 -70q0 -22 9.5 -45t19.5 -35l10 -12h-105z" />
    <glyph glyph-name="uni1F82" unicode="&#x1f82;" horiz-adv-x="539" 
d="M157 -12q-129 0 -129 173q0 69 17 137t49 125.5t84 93t116 35.5q42 0 84 -34l3 27h114l-56 -545h-123l9 82q-99 -94 -168 -94zM190 97q46 0 145 86l26 240q-36 26 -72 26q-41 0 -73.5 -43t-48.5 -105.5t-16 -127.5q0 -76 39 -76zM226 -293q-44 0 -65 18t-21 59
q0 19 24 133h95q-18 -87 -18 -95q0 -18 8.5 -26.5t29.5 -10.5h17l-12 -73q-40 -5 -58 -5zM150 622q40 43 40 92q0 40 -22 70h108q25 -35 25 -71q0 -50 -46 -91h-105zM407 623l-94 161h128l72 -161h-106z" />
    <glyph glyph-name="uni1F83" unicode="&#x1f83;" horiz-adv-x="539" 
d="M157 -12q-129 0 -129 173q0 69 17 137t49 125.5t84 93t116 35.5q42 0 84 -34l3 27h114l-56 -545h-123l9 82q-99 -94 -168 -94zM190 97q46 0 145 86l26 240q-36 26 -72 26q-41 0 -73.5 -43t-48.5 -105.5t-16 -127.5q0 -76 39 -76zM241 -293q-44 0 -65 18t-21 59
q0 19 24 133h95q-18 -87 -18 -95q0 -18 8.5 -26.5t29.5 -10.5h17l-12 -73q-40 -5 -58 -5zM201 622q-46 41 -46 91q0 36 25 71h108q-22 -30 -22 -70q0 -22 10 -45t20 -35l10 -12h-105zM398 623l-94 161h128l72 -161h-106z" />
    <glyph glyph-name="uni1F84" unicode="&#x1f84;" horiz-adv-x="539" 
d="M157 -12q-129 0 -129 173q0 69 17 137t49 125.5t84 93t116 35.5q42 0 84 -34l3 27h114l-56 -545h-123l9 82q-99 -94 -168 -94zM190 97q46 0 145 86l26 240q-36 26 -72 26q-41 0 -73.5 -43t-48.5 -105.5t-16 -127.5q0 -76 39 -76zM226 -293q-44 0 -65 18t-21 59
q0 19 24 133h95q-18 -87 -18 -95q0 -18 8.5 -26.5t29.5 -10.5h17l-12 -73q-40 -5 -58 -5zM198 622q40 43 40 92q0 40 -22 70h108q25 -35 25 -71q0 -50 -46 -91h-105zM348 623l72 161h127l-94 -161h-105z" />
    <glyph glyph-name="uni1F85" unicode="&#x1f85;" horiz-adv-x="539" 
d="M157 -12q-129 0 -129 173q0 69 17 137t49 125.5t84 93t116 35.5q42 0 84 -34l3 27h114l-56 -545h-123l9 82q-99 -94 -168 -94zM190 97q46 0 145 86l26 240q-36 26 -72 26q-41 0 -73.5 -43t-48.5 -105.5t-16 -127.5q0 -76 39 -76zM232 -293q-44 0 -65 18t-21 59
q0 19 24 133h95q-18 -87 -18 -95q0 -18 8.5 -26.5t29.5 -10.5h17l-12 -73q-40 -5 -58 -5zM229 622q-46 41 -46 91q0 36 25 71h108q-22 -30 -22 -70q0 -22 10 -45t20 -35l10 -12h-105zM354 623l72 161h128l-94 -161h-106z" />
    <glyph glyph-name="uni1F86" unicode="&#x1f86;" horiz-adv-x="539" 
d="M157 -12q-129 0 -129 173q0 69 17 137t49 125.5t84 93t116 35.5q42 0 84 -34l3 27h114l-56 -545h-123l9 82q-99 -94 -168 -94zM190 97q46 0 145 86l26 240q-36 26 -72 26q-41 0 -73.5 -43t-48.5 -105.5t-16 -127.5q0 -76 39 -76zM239 -293q-44 0 -65 18t-21 59
q0 19 24 133h95q-18 -87 -18 -95q0 -18 8.5 -26.5t29.5 -10.5h17l-12 -73q-40 -5 -58 -5zM418 814q-27 0 -69.5 18.5t-55.5 18.5q-35 0 -76 -28l-44 71q67 67 142 67q29 0 63 -18.5t48 -18.5q35 0 85 26l39 -69q-54 -67 -132 -67zM270 618q42 43 45 92q4 38 -16 70h108
q22 -34 20 -71q-4 -48 -52 -91h-105z" />
    <glyph glyph-name="uni1F87" unicode="&#x1f87;" horiz-adv-x="539" 
d="M157 -12q-129 0 -129 173q0 69 17 137t49 125.5t84 93t116 35.5q42 0 84 -34l3 27h114l-56 -545h-123l9 82q-99 -94 -168 -94zM190 97q46 0 145 86l26 240q-36 26 -72 26q-41 0 -73.5 -43t-48.5 -105.5t-16 -127.5q0 -76 39 -76zM234 -293q-44 0 -65 18t-21 59
q0 19 24 133h95q-18 -87 -18 -95q0 -18 8.5 -26.5t29.5 -10.5h17l-12 -73q-40 -5 -58 -5zM389 814q-27 0 -69.5 18.5t-55.5 18.5q-35 0 -76 -28l-44 71q67 67 142 67q28 0 63 -18.5t48 -18.5q35 0 85 26l39 -69q-54 -67 -132 -67zM291 618q-43 41 -39 91q2 36 30 71h108
q-23 -29 -28 -70q-1 -22 7.5 -45t17.5 -35l9 -12h-105z" />
    <glyph glyph-name="uni1F88" unicode="&#x1f88;" horiz-adv-x="647" 
d="M1 546q40 43 40 92q0 41 -22 70h108q25 -35 25 -70q0 -50 -46 -92h-105zM-54 0l352 707h167l158 -707h-130l-49 236h-256l-113 -236h-129zM235 331h189l-39 204l-14 98l-41 -98zM295 -293q-44 0 -65 18t-21 59q0 19 24 133h95q-18 -87 -18 -95q0 -18 8.5 -26.5
t29.5 -10.5h17l-12 -73q-40 -5 -58 -5z" />
    <glyph glyph-name="uni1F89" unicode="&#x1f89;" horiz-adv-x="647" 
d="M-54 0l352 707h167l158 -707h-130l-49 236h-256l-113 -236h-129zM235 331h189l-39 204l-14 98l-41 -98zM292 -293q-44 0 -65 18t-21 59q0 19 24 133h95q-18 -87 -18 -95q0 -18 8.5 -26.5t29.5 -10.5h17l-12 -73q-40 -5 -58 -5zM67 546q-45 43 -45 92q0 35 24 70h108
q-21 -29 -21 -70q0 -22 9.5 -45t19.5 -35l10 -12h-105z" />
    <glyph glyph-name="uni1F8A" unicode="&#x1f8a;" horiz-adv-x="647" 
d="M-54 0l352 707h167l158 -707h-130l-49 236h-256l-113 -236h-129zM235 331h189l-39 204l-14 98l-41 -98zM295 -293q-44 0 -65 18t-21 59q0 19 24 133h95q-18 -87 -18 -95q0 -18 8.5 -26.5t29.5 -10.5h17l-12 -73q-40 -5 -58 -5zM-196 545q40 43 40 92q0 40 -22 70h108
q25 -35 25 -71q0 -50 -46 -91h-105zM61 546l-94 161h128l72 -161h-106z" />
    <glyph glyph-name="uni1F8B" unicode="&#x1f8b;" horiz-adv-x="647" 
d="M-54 0l352 707h167l158 -707h-130l-49 236h-256l-113 -236h-129zM235 331h189l-39 204l-14 98l-41 -98zM294 -293q-44 0 -65 18t-21 59q0 19 24 133h95q-18 -87 -18 -95q0 -18 8.5 -26.5t29.5 -10.5h17l-12 -73q-40 -5 -58 -5zM-144 545q-46 41 -46 91q0 36 25 71h108
q-22 -30 -22 -70q0 -22 10 -45t20 -35l10 -12h-105zM53 546l-94 161h128l72 -161h-106z" />
    <glyph glyph-name="uni1F8C" unicode="&#x1f8c;" horiz-adv-x="647" 
d="M-54 0l352 707h167l158 -707h-130l-49 236h-256l-113 -236h-129zM235 331h189l-39 204l-14 98l-41 -98zM294 -293q-44 0 -65 18t-21 59q0 19 24 133h95q-18 -87 -18 -95q0 -18 8.5 -26.5t29.5 -10.5h17l-12 -73q-40 -5 -58 -5zM-154 545q40 43 40 92q0 40 -22 70h108
q25 -35 25 -71q0 -50 -46 -91h-105zM-4 546l72 161h127l-94 -161h-105z" />
    <glyph glyph-name="uni1F8D" unicode="&#x1f8d;" horiz-adv-x="647" 
d="M-54 0l352 707h167l158 -707h-130l-49 236h-256l-113 -236h-129zM235 331h189l-39 204l-14 98l-41 -98zM296 -299q-44 0 -65 18t-21 59q0 19 24 133h95q-18 -87 -18 -95q0 -18 8.5 -26.5t29.5 -10.5h17l-12 -73q-40 -5 -58 -5zM-122 545q-46 41 -46 91q0 36 25 71h108
q-22 -30 -22 -70q0 -22 10 -45t20 -35l10 -12h-105zM3 546l72 161h128l-94 -161h-106z" />
    <glyph glyph-name="uni1F8E" unicode="&#x1f8e;" horiz-adv-x="647" 
d="M-54 0l352 707h167l158 -707h-130l-49 236h-256l-113 -236h-129zM235 331h189l-39 204l-14 98l-41 -98zM295 -293q-44 0 -65 18t-21 59q0 19 24 133h95q-18 -87 -18 -95q0 -18 8.5 -26.5t29.5 -10.5h17l-12 -73q-40 -5 -58 -5zM41 590q-27 0 -69.5 18.5t-55.5 18.5
q-35 0 -76 -28l-44 71q67 67 142 67q29 0 63.5 -18.5t47.5 -18.5q35 0 85 26l39 -69q-54 -67 -132 -67zM-107 394q42 43 45 92q4 38 -16 70h108q22 -34 20 -71q-4 -48 -52 -91h-105z" />
    <glyph glyph-name="uni1F8F" unicode="&#x1f8f;" horiz-adv-x="647" 
d="M-54 0l352 707h167l158 -707h-130l-49 236h-256l-113 -236h-129zM235 331h189l-39 204l-14 98l-41 -98zM292 -293q-44 0 -65 18t-21 59q0 19 24 133h95q-18 -87 -18 -95q0 -18 8.5 -26.5t29.5 -10.5h17l-12 -73q-40 -5 -58 -5zM39 585q-27 0 -69.5 18.5t-55.5 18.5
q-35 0 -76 -28l-44 71q67 67 142 67q28 0 62.5 -18.5t48.5 -18.5q35 0 85 26l39 -69q-54 -67 -132 -67zM-59 389q-43 41 -39 91q2 36 30 71h108q-23 -29 -28 -70q-1 -22 7.5 -45t17.5 -35l9 -12h-105z" />
    <glyph glyph-name="uni1F90" unicode="&#x1f90;" horiz-adv-x="571" 
d="M288 623q40 43 40 92q0 41 -22 70h108q25 -35 25 -70q0 -50 -46 -92h-105zM321 -220l63 591q3 23 3 38q0 19 -6 26.5t-24 7.5q-31 0 -151 -68l-40 -375h-122l58 546h122l-7 -71q117 85 187 85q60 0 84.5 -23t24.5 -81q0 -16 -4 -62l-65 -614h-123zM109 -293q-44 0 -65 18
t-21 59q0 19 24 133h95q-18 -87 -18 -95q0 -18 8.5 -26.5t29.5 -10.5h17l-12 -73q-40 -5 -58 -5z" />
    <glyph glyph-name="uni1F91" unicode="&#x1f91;" horiz-adv-x="571" 
d="M321 -220l63 591q3 23 3 38q0 19 -6 26.5t-24 7.5q-31 0 -151 -68l-40 -375h-122l58 546h122l-7 -71q117 85 187 85q60 0 84.5 -23t24.5 -81q0 -16 -4 -62l-65 -614h-123zM109 -293q-44 0 -65 18t-21 59q0 19 24 133h95q-18 -87 -18 -95q0 -18 8.5 -26.5t29.5 -10.5h17
l-12 -73q-40 -5 -58 -5zM312 623q-45 43 -45 92q0 35 24 70h108q-21 -29 -21 -70q0 -22 10 -45t20 -35l9 -12h-105z" />
    <glyph glyph-name="uni1F92" unicode="&#x1f92;" horiz-adv-x="571" 
d="M321 -220l63 591q3 23 3 38q0 19 -6 26.5t-24 7.5q-31 0 -151 -68l-40 -375h-122l58 546h122l-7 -71q117 85 187 85q60 0 84.5 -23t24.5 -81q0 -16 -4 -62l-65 -614h-123zM140 622q40 43 40 92q0 40 -22 70h108q25 -35 25 -71q0 -50 -46 -91h-105zM397 623l-94 161h128
l72 -161h-106zM109 -293q-44 0 -65 18t-21 59q0 19 24 133h95q-18 -87 -18 -95q0 -18 8.5 -26.5t29.5 -10.5h17l-12 -73q-40 -5 -58 -5z" />
    <glyph glyph-name="uni1F93" unicode="&#x1f93;" horiz-adv-x="571" 
d="M321 -220l63 591q3 23 3 38q0 19 -6 26.5t-24 7.5q-31 0 -151 -68l-40 -375h-122l58 546h122l-7 -71q117 85 187 85q60 0 84.5 -23t24.5 -81q0 -16 -4 -62l-65 -614h-123zM193 622q-46 41 -46 91q0 36 25 71h108q-22 -30 -22 -70q0 -22 10 -45t20 -35l10 -12h-105z
M390 623l-94 161h128l72 -161h-106zM106 -293q-44 0 -65 18t-21 59q0 19 24 133h95q-18 -87 -18 -95q0 -18 8.5 -26.5t29.5 -10.5h17l-12 -73q-40 -5 -58 -5z" />
    <glyph glyph-name="uni1F94" unicode="&#x1f94;" horiz-adv-x="571" 
d="M321 -220l63 591q3 23 3 38q0 19 -6 26.5t-24 7.5q-31 0 -151 -68l-40 -375h-122l58 546h122l-7 -71q117 85 187 85q60 0 84.5 -23t24.5 -81q0 -16 -4 -62l-65 -614h-123zM187 622q40 43 40 92q0 40 -22 70h108q25 -35 25 -71q0 -50 -46 -91h-105zM337 623l72 161h127
l-94 -161h-105zM106 -301q-44 0 -65 18t-21 59q0 19 24 133h95q-18 -87 -18 -95q0 -18 8.5 -26.5t29.5 -10.5h17l-12 -73q-40 -5 -58 -5z" />
    <glyph glyph-name="uni1F95" unicode="&#x1f95;" horiz-adv-x="571" 
d="M321 -220l63 591q3 23 3 38q0 19 -6 26.5t-24 7.5q-31 0 -151 -68l-40 -375h-122l58 546h122l-7 -71q117 85 187 85q60 0 84.5 -23t24.5 -81q0 -16 -4 -62l-65 -614h-123zM228 622q-46 41 -46 91q0 36 25 71h108q-22 -30 -22 -70q0 -22 10 -45t20 -35l10 -12h-105z
M353 623l72 161h128l-94 -161h-106zM107 -293q-44 0 -65 18t-21 59q0 19 24 133h95q-18 -87 -18 -95q0 -18 8.5 -26.5t29.5 -10.5h17l-12 -73q-40 -5 -58 -5z" />
    <glyph glyph-name="uni1F96" unicode="&#x1f96;" horiz-adv-x="571" 
d="M321 -220l63 591q3 23 3 38q0 19 -6 26.5t-24 7.5q-31 0 -151 -68l-40 -375h-122l58 546h122l-7 -71q117 85 187 85q60 0 84.5 -23t24.5 -81q0 -16 -4 -62l-65 -614h-123zM110 -293q-44 0 -65 18t-21 59q0 19 24 133h95q-18 -87 -18 -95q0 -18 8.5 -26.5t29.5 -10.5h17
l-12 -73q-40 -5 -58 -5zM430 814q-27 0 -69.5 18.5t-55.5 18.5q-35 0 -76 -28l-44 71q67 67 142 67q29 0 63 -18.5t48 -18.5q35 0 85 26l39 -69q-54 -67 -132 -67zM282 618q42 43 45 92q4 38 -16 70h108q22 -34 20 -71q-4 -48 -52 -91h-105z" />
    <glyph glyph-name="uni1F97" unicode="&#x1f97;" horiz-adv-x="571" 
d="M321 -220l63 591q3 23 3 38q0 19 -6 26.5t-24 7.5q-31 0 -151 -68l-40 -375h-122l58 546h122l-7 -71q117 85 187 85q60 0 84.5 -23t24.5 -81q0 -16 -4 -62l-65 -614h-123zM399 814q-27 0 -69.5 18.5t-55.5 18.5q-35 0 -76 -28l-44 71q67 67 142 67q28 0 63 -18.5
t48 -18.5q35 0 85 26l39 -69q-54 -67 -132 -67zM301 618q-43 41 -39 91q2 36 30 71h108q-23 -29 -28 -70q-1 -22 7.5 -45t17.5 -35l9 -12h-105zM112 -303q-44 0 -65 18t-21 59q0 19 24 133h95q-18 -87 -18 -95q0 -18 8.5 -26.5t29.5 -10.5h17l-12 -73q-40 -5 -58 -5z" />
    <glyph glyph-name="uni1F98" unicode="&#x1f98;" horiz-adv-x="757" 
d="M-105 546q40 43 40 92q0 41 -22 70h108q25 -35 25 -70q0 -50 -46 -92h-105zM46 0l75 707h125l-31 -303h338l32 303h127l-74 -707h-127l33 306h-339l-33 -306h-126zM350 -293q-44 0 -65 18t-21 59q0 19 24 133h95q-18 -87 -18 -95q0 -18 8.5 -26.5t29.5 -10.5h17l-12 -73
q-40 -5 -58 -5z" />
    <glyph glyph-name="uni1F99" unicode="&#x1f99;" horiz-adv-x="757" 
d="M46 0l75 707h125l-31 -303h338l32 303h127l-74 -707h-127l33 306h-339l-33 -306h-126zM346 -293q-44 0 -65 18t-21 59q0 19 24 133h95q-18 -87 -18 -95q0 -18 8.5 -26.5t29.5 -10.5h17l-12 -73q-40 -5 -58 -5zM-63 545q-45 43 -45 92q0 35 24 70h108q-21 -29 -21 -70
q0 -22 9.5 -45t19.5 -35l10 -12h-105z" />
    <glyph glyph-name="uni1F9A" unicode="&#x1f9a;" horiz-adv-x="757" 
d="M46 0l75 707h125l-31 -303h338l32 303h127l-74 -707h-127l33 306h-339l-33 -306h-126zM-318 545q40 43 40 92q0 40 -22 70h108q25 -35 25 -71q0 -50 -46 -91h-105zM-61 546l-94 161h128l72 -161h-106zM342 -293q-44 0 -65 18t-21 59q0 19 24 133h95q-18 -87 -18 -95
q0 -18 8.5 -26.5t29.5 -10.5h17l-12 -73q-40 -5 -58 -5z" />
    <glyph glyph-name="uni1F9B" unicode="&#x1f9b;" horiz-adv-x="757" 
d="M46 0l75 707h125l-31 -303h338l32 303h127l-74 -707h-127l33 306h-339l-33 -306h-126zM-243 545q-46 41 -46 91q0 36 25 71h108q-22 -30 -22 -70q0 -22 10 -45t20 -35l10 -12h-105zM-46 546l-94 161h128l72 -161h-106zM346 -293q-44 0 -65 18t-21 59q0 19 24 133h95
q-18 -87 -18 -95q0 -18 8.5 -26.5t29.5 -10.5h17l-12 -73q-40 -5 -58 -5z" />
    <glyph glyph-name="uni1F9C" unicode="&#x1f9c;" horiz-adv-x="757" 
d="M46 0l75 707h125l-31 -303h338l32 303h127l-74 -707h-127l33 306h-339l-33 -306h-126zM-295 545q40 43 40 92q0 40 -22 70h108q25 -35 25 -71q0 -50 -46 -91h-105zM-145 546l72 161h127l-94 -161h-105zM344 -293q-44 0 -65 18t-21 59q0 19 24 133h95q-18 -87 -18 -95
q0 -18 8.5 -26.5t29.5 -10.5h17l-12 -73q-40 -5 -58 -5z" />
    </font>
</defs>
</svg>
